<svg xmlns="http://www.w3.org/2000/svg" viewBox="0 0 463.51 591.03"><defs><style>.a{fill:#984e2f;}.b{fill:#7c5a36;}.c{fill:#cfa987;}.d{fill:#c4a386;}.e{fill:#f7fffd;}.f{fill:#9d4f00;}.g{fill:#4a280a;}.h{fill:#984229;}.i{fill:#a05734;}.j{fill:#83532e;}.k{fill:#60280d;}.l{fill:#9c795e;}.m{fill:#ad9774;}.n{fill:#6e5038;}.o{fill:#bca763;}.p{fill:#c6b9a8;}.q{fill:#f5efea;}.r{fill:#dbd1cb;}.s{fill:#5a3e31;}.t{fill:#867364;}.u{fill:#743b28;}.v{fill:#0c030a;}.w{fill:#000100;}.x{fill:#e8b170;}.y{opacity:0.5;}.z{fill:#a8846b;}.aa{fill:#613831;}.ab{fill:#270501;}.ac{fill:#c2997e;}.ad{fill:#2b1201;}.ae{fill:#72564f;}.af{fill:#bc9f89;}.ag{fill:#7e530c;}.ah{fill:#7d4522;}.ai{fill:#9b6e4a;}.aj{fill:#98613f;}.ak{fill:#ae724d;}.al{fill:#963317;}.am{fill:#643c15;}.an{fill:#6e4e26;}.ao{fill:#886039;}.ap{fill:#fbfef9;}.aq{fill:#885332;}.ar{fill:#83452b;}.as{fill:#2d1305;}.at{fill:#8b4d23;}.au{fill:#511e00;}.av{fill:#68705a;}.aw{fill:#2f291c;}.ax{fill:#00291b;}.ay{fill:#4d6352;}.az{fill:#846a56;}.ba{fill:#5e8464;}.bb{fill:#46756f;}.bc{fill:#405338;}.bd{fill:#6e5f4b;}.be{fill:#bfb6aa;}.bf{fill:#7e3e23;}.bg{fill:#8a5c40;}.bh{fill:#e3e3e1;}.bi{fill:#727272;}.bj{fill:#e8efe7;}.bk{fill:#826648;}.bl{fill:#1f0500;}.bm,.br,.bs{fill:#180600;}.bn,.bo,.bp,.bq{fill:#08090b;}.bn,.br{opacity:0.6;}.bo{opacity:0.2;}.bp{opacity:0.3;}.bs{opacity:0.4;}</style></defs><polygon class="a" points="79.72 313.03 212.35 107.48 263.02 107.48 410.66 317.29 410.66 335.02 400.87 346.56 81.17 341.7 79.72 313.03"/><polygon class="b" points="197.78 140.15 198.44 180.8 269.93 180.8 270.86 148.05 260.51 118.03 207.36 118.03 197.78 140.15"/><polygon class="c" points="282.55 468.33 340.31 469.22 340.31 479.8 341.68 479.8 341.68 469.22 346.76 469.22 391.37 469.61 392.67 396.4 388.93 394.21 347.32 394.67 344.63 394.21 337.61 394.21 290.01 396.4 283.18 398.46 282.55 468.33"/><polygon class="d" points="107.97 480.74 182.19 480.74 183.04 397.03 183.07 375.27 74.77 372.86 76.2 453.81 75.81 476.86 81.13 480.45 107.97 480.74"/><polygon class="e" points="296.85 402.5 297.35 467.67 333.61 467.67 334.2 402.5 296.85 402.5"/><polygon class="f" points="202.93 406.26 202.93 571.9 273.19 571.76 271.73 408.71 202.93 406.26"/><polygon class="g" points="198.46 438.51 205.99 438.51 205.99 570.55 196.6 571.76 196.6 449.12 198.46 438.51"/><polygon class="h" points="393.97 370.21 398.09 364.05 406.5 376.51 405.32 500.86 388.93 502.48 388.93 472.75 392.67 469.96 393.97 399.14 393.97 370.21"/><polygon class="i" points="346.05 485.96 346.32 501.96 386.97 501.96 386.97 484.69 346.05 485.96"/><polygon class="j" points="284.24 482.99 284.24 501.96 341.04 501.96 340.31 485.17 284.24 482.99"/><polygon class="k" points="346.76 486.97 346.76 501.22 345.34 501.23 345.37 485 346.76 486.97"/><polygon class="l" points="340.31 485.17 340.31 501.26 345.34 501.23 345.37 485 340.31 485.17"/><polygon class="m" points="40.19 591.03 67.56 591.03 63.66 349.53 37.59 337.8 40.19 591.03"/><polygon class="n" points="69.33 510.86 198.16 509.69 198.16 501.97 65.85 504.82 65.85 510.86 69.33 510.86"/><rect x="222.63" y="426.39" width="33.36" height="20.6"/><polygon class="o" points="195.49 579.39 274.24 579.93 274.24 574.97 195.49 574.03 195.49 579.39"/><polygon class="e" points="347.32 400.82 382.81 400.82 381.21 467.12 346.76 467.12 347.32 400.82"/><polygon class="p" points="191.41 378.07 191.41 390.74 230.97 391.52 283.18 391.04 283.18 375.27 191.41 378.07"/><polygon points="293.08 397.24 336.07 397.87 336.86 399.14 339 399.14 339.32 398.19 342.65 396.76 338.85 393.67 290.98 394.7 290.98 397.79 293.08 397.24"/><polygon class="q" points="136.65 399.14 169.77 398.74 169.77 468.79 137.7 467.53 136.65 399.14"/><polygon class="r" points="282.5 377.7 284.06 376.96 393.62 377.7 395.57 378.4 395.57 400.82 389.44 400.82 389.2 395.16 308.73 394.21 292.39 395.04 291.55 399.14 284.44 399.14 283.7 389.27 281.46 389.27 282.5 377.7"/><polygon class="s" points="293.08 376.51 293.72 393.19 295.26 376.51 293.08 376.51"/><polygon class="t" points="335.02 376.96 336.07 392.71 337.12 376.96 335.02 376.96"/><polygon class="u" points="386.97 483.93 386.97 502.48 388.93 502.48 388.93 483.45 386.97 483.93"/><polygon class="v" points="345.79 376.96 345.79 395.38 347.32 395.38 347.32 375.78 345.79 376.96"/><rect class="v" x="383.38" y="377.38" width="0.56" height="18"/><path class="w" d="M457.05,574.8s4.65,3.39,3.63,8.75-12.1,7.51-12.1,7.51l-38.2,1.49-.36-2-5.6.18V592l-44.76.06s-15.28-2.42-14.43-8.81h9.13L405,585.38h48.29Z" transform="translate(-64.65 -105.58)"/><polygon class="x" points="192.46 396.3 198.73 403.69 198.73 407.94 199.61 408.71 271.73 408.71 271.73 402.51 276.07 393.23 192.59 393.59 192.46 396.3"/><polygon points="213.05 124.17 213.05 169.95 260.51 171.03 258.91 124.78 213.05 124.17"/><polygon class="y" points="209.53 403.69 271.73 403.69 271.73 402.51 276.07 393.23 192.59 393.59 192.46 396.3 198.73 403.69 209.53 403.69"/><polygon class="z" points="311.03 469.22 340.31 469.22 340.31 479.8 295.39 479.8 284.44 477.69 284.44 469.22 311.03 469.22"/><polygon class="aa" points="391.37 469.61 391.37 400.82 393.97 400.82 392.67 469.96 392.01 471.02 391.37 469.61"/><polygon class="ab" points="332.12 467.67 340 467.67 340.31 469.22 284.44 469.22 284.44 467.67 332.12 467.67"/><path class="ac" d="M406.33,585.38V574.8l49.69.4s2.84,1,2.58,5.51-5.34,4.67-5.34,4.67Z" transform="translate(-64.65 -105.58)"/><polygon class="ad" points="346.76 467.12 381.21 467.12 383.45 469.55 346.76 469.22 346.76 467.12"/><polygon class="w" points="274.3 501.67 274.97 505.32 403.97 506.13 405.32 500.86 274.3 501.67"/><polygon class="w" points="275.51 507.48 276.46 511.13 295.11 512.24 311.85 512.24 402.08 511.94 403.97 508.29 275.51 507.48"/><polygon class="ae" points="274.97 506.13 275.51 507.48 403.97 508.29 403.97 506.13 274.97 505.32 274.97 506.13"/><polygon class="k" points="340.31 501.26 340.31 485.17 339.77 485.18 339.47 501.52 340.31 501.26"/><polygon class="af" points="406.5 591.03 428.71 591.03 431.7 348.14 422.44 336.69 409.91 364.05 406.5 376.51 405.32 500.86 406.5 591.03"/><polygon class="ag" points="200.79 586.33 201.15 591.03 274.24 591.03 274.24 586.33 200.79 586.33"/><polyline class="ah" points="388.93 585.08 346.05 583.78 346.76 511.61 390.46 511.86 388.93 585.08"/><polyline class="ai" points="339.47 583.67 340.31 511.94 346.76 511.01 346.05 583.78 339.47 583.67"/><polygon class="aj" points="320.8 511.94 294.7 511.94 294 583.78 339.47 583.67 340.31 511.94 320.8 511.94"/><polygon class="ak" points="288.73 511.2 283.78 511.2 283.78 583.67 294 583.78 294.7 511.94 288.73 511.2"/><polygon class="al" points="64.78 364.04 73.53 360.76 75.58 380.71 76.76 414.62 75.17 475.17 75.81 476.86 84.8 481.81 90.07 481.59 90.07 504.3 65.85 504.82 64.78 431.15 64.23 385.36 64.78 364.04"/><polygon class="am" points="67.56 591.03 79.83 591.03 79.41 514.02 79.4 512.71 66.3 512.71 67.56 591.03"/><polygon class="an" points="88.91 513.92 89.56 591.03 79.83 591.03 79.41 514.02 88.91 513.92"/><polygon class="ao" points="92.08 513.92 105.73 513.92 107.87 591.03 89.56 591.03 88.91 513.92 92.08 513.92"/><polygon class="am" points="105.46 512.71 182.19 512.71 182.19 591.03 107.87 591.03 105.46 512.71"/><polygon class="g" points="192.37 591.03 182.19 591.03 182.19 512.71 196.36 511.74 195.49 574.03 192.37 591.03"/><polygon class="ap" points="88.15 401.58 89.08 467.13 119.35 467.53 119.35 400.8 88.15 401.58"/><polygon class="aq" points="90.07 483.75 90.07 504.3 182.19 502.32 182.19 480.74 132.13 481.76 90.07 483.75"/><polygon class="ar" points="194.56 502.05 182.19 502.32 182.19 473.43 185.04 395.93 192.46 396.3 194.56 450.19 194.56 502.05"/><polygon class="as" points="194.31 443.76 199.05 435.07 199.61 408.71 198.73 407.94 198.73 403.69 192.46 396.3 194.31 443.76"/><polygon class="at" points="271.31 402.18 273.19 398.46 276.07 393.23 280.54 392.71 281.73 443.76 284.24 482.99 284.24 501.96 283.78 539.82 283.78 583.67 283.78 591.03 274.24 591.03 273.19 569.82 271.73 408.71 271.31 402.18"/><polygon class="a" points="24.42 332.8 25.58 337.8 47.95 339.5 51.55 363.37 67.56 355.03 65.93 336.07 61.68 285.24 54.82 285.24 24.42 332.8"/><polyline class="au" points="406.5 591.03 274.24 591.03 273.88 583.67 406.41 584.48 405.32 500.86 403.97 506.13 403.97 508.29 402.08 511.94 390.46 511.86 390.46 582.63 406.41 584.48"/><path d="M154,573.58" transform="translate(-64.65 -105.58)"/><rect class="av" x="94.91" y="436.13" width="23.97" height="17.68"/><polygon class="aw" points="94.4 429.51 117.5 429.51 117.5 404.48 93.73 404.48 94.4 429.51"/><polygon class="ax" points="144.64 436.55 144.64 457.85 167.43 457.85 168.07 436.55 144.64 436.55"/><polygon class="ay" points="144.18 431.68 166.89 431.68 166.89 409.73 143.53 410.74 144.18 431.68"/><polygon class="az" points="121.64 399.1 121.28 397.3 83.86 396.67 84.04 398.56 120.11 400.35 121.64 399.1"/><polygon class="ba" points="301.86 434.52 301.86 453.67 328.3 453.67 328.3 432.12 301.86 434.52"/><polygon class="bb" points="302.18 408.71 301.86 422.97 328.3 423.75 329.41 406.26 302.18 408.71"/><polygon class="bb" points="353.75 409.97 353.75 428.13 376.44 428.13 377.57 411.3 353.75 409.97"/><polygon class="bc" points="354.69 439.75 355.29 456.53 376.44 456.53 376.44 438.11 354.69 439.75"/><polygon class="bd" points="65.93 336.07 65.93 354.15 406.5 359.35 412.53 336.69 354.71 336.07 348.28 335.02 343.01 336.3 294.96 333.77 257.02 335.02 243.89 336.93 223.36 336.3 178.61 336.42 145.33 335.02 112.68 335.54 81.17 333.77 69.95 333.77 65.93 336.07"/><polygon class="be" points="79.72 313.03 177.18 313.03 378.44 313.95 378.44 336.33 351.4 335.02 343.01 336.3 300.63 333.77 291.61 332.36 287.84 334.01 269.07 334.63 248.41 336.27 231.72 336.33 201.23 336.36 167.43 335.02 132.01 335.02 103.14 334.31 79.72 332.6 79.72 313.03"/><polygon class="bf" points="69.65 319.25 60.9 332.23 64.23 333.77 81.17 333.77 81.17 317.29 69.65 319.25"/><polygon class="bg" points="0 331.72 16.9 350.28 45.02 305.66 54.99 288.45 73.68 280.63 120.3 214.24 161.29 158.36 189.41 110.29 223.33 55.15 232.99 39.55 297.16 139.86 334.35 193.01 382.97 272.83 406.37 306.2 426.68 315.36 438.66 346.56 446.28 346.56 463.51 332.69 462.6 325.62 403.65 242.17 356.48 174.51 310.77 105.39 254.72 30.63 232.99 0 148.6 122.08 96.35 195.91 45.38 265.93 0 331.72"/><polygon class="bh" points="210.23 126.23 209.55 173.24 263.02 175.14 261.82 123.27 257.91 122.77 258.11 169.13 214.25 167.93 213.45 120.97 210.23 126.23"/><polygon class="bh" points="232.99 123.37 232.48 169.43 239.49 169.43 238.79 123.37 232.99 123.37"/><polygon class="bh" points="213.05 140.19 232.99 139.79 232.99 142.3 213.05 141.6 213.05 140.19"/><polygon class="bh" points="213.05 151.61 233.58 151.61 233.58 155.22 214.04 155.22 213.05 151.61"/><polygon class="bh" points="238.09 151.61 258.91 152.41 258.91 156.02 239.28 155.61 238.09 151.61"/><polygon class="bh" points="238.09 141.05 258.91 143.2 258.91 139.79 238.09 138.49 238.09 141.05"/><polygon class="bi" points="212.35 120.97 213.05 124.17 257.93 125.8 258.04 121.71 212.35 120.97"/><polygon class="bj" points="167.56 204 167.56 226.46 184.53 226.46 184.53 215.23 299.13 213.02 299.13 202.41 167.56 204"/><rect class="bk" x="171.6" y="294.09" width="130.92" height="16.47"/><polygon class="p" points="183.04 386.5 183.04 397.03 187.5 394.21 192.46 387.75 192.46 377.04 182.68 378.12 183.04 386.5"/><path d="M90.23,443.38h12l.21,20.45,5.26-3.95s1.88,21.17-1.48,33.48l-3.42,5.42h14.42L119.77,484l7.38-3.2,2.11,33.49,3-34.23L135,468l4.07,17,57.71,2,24.2-.1L256.13,485l3.07-1.48L363,483l86.4.49,9.84.5,4.68-11.08,2,8.61,6.4,1,8.61,5.66,5.42-2,1.47-22.64,3-2.22-3.45-10.09,1-3.69,9.1,6.89,2.22-2,2.95-.25-5.66-25.59-17.48-35.94v16.74l-4.43-1-2.21-8.61s-17.48-20.92-23.14-33.48-20.92-34.7-20.92-34.7l-11.81-14.77-41.35-66.46,1,8.13L297.64,136.21l-37.08,55.63-42.09,63.5L216,259l-2.46-6.16-28.8,48-12.55,29-5.42-4.66-32,55.37-3.93-2.22-11.49,16,2.72,60.87,2.57-.22-.86-11.7h5.57l11.35-5-11.35.64v-3.64s7.71-9.42,14.78-9.42l1.28-5,7.07-1.62,28.7-47.76,2.14.86.64-5.57s5.14-6.42,7.92-6.42L202,346.94l30-42,15-18.2,4.71-15.42,18-30.2,7.71-13.7H326l15.64,42.83s17.77,33,28.91,41.76,40.26,60,40.26,60l25.91,37.69,6.42,9.85,29.77,19.71-.86,21.2H460.65l-2.35-4.71-.86,4.49H416.32l-3.64-8.14-2.57,8.36-48-.65L357.22,454l-2.14,4.71H309.89l-3.21-5.14-1.07,5.57-55.68-.43L245,451.87l.22,6.64-50.76,1.07-1.5-3.85-3,4.49-5.57-7.49-.22,7.06-46.25-.42L127.13,456l-6.62.76-1.4,3.31-3.18.26V403.39Z" transform="translate(-64.65 -105.58)"/><polygon class="w" points="388.93 584.48 390.46 511.86 392.67 582.32 406.41 584.48 406.41 588.28 405.32 588.75 405.32 586.02 388.93 584.48"/><polygon points="75.66 409.49 74.45 477.67 89.33 486.52 127.14 485.52 130.76 482.3 133.57 482.32 135.59 484.97 181.06 484.21 183.07 478.04 181.69 477.54 176.65 479.68 132.81 480.06 81.67 480.06 75.88 476.4 76.76 415.56 76.76 404.48 75.66 409.49"/><polygon class="bl" points="279.02 399.14 280.58 477.69 284.44 477.69 284.44 399.14 279.02 399.14"/><polygon points="183.71 389.27 283.7 389.27 284.44 399.14 279.02 399.14 277.79 393.22 192.59 393.59 192.46 396.3 183.71 396.55 183.71 389.27"/><polygon points="194.56 478.23 194.56 502.05 198.16 501.97 199.21 439.42 205.99 439.42 205.99 408.71 199.61 408.71 199.07 435.03 194.56 443.67 194.56 478.23"/><polygon points="198.16 568.54 200.85 570.55 274.24 570.55 274.24 574.97 195.49 574.03 198.16 568.54"/><polygon points="191.69 574.03 192.37 591.03 201.15 591.03 202.4 587.47 271.6 587.28 274.24 591.03 274.24 579.93 195.49 579.39 194.01 574.03 191.69 574.03"/><polygon class="w" points="283.78 583.67 392.87 584.85 387.21 583.67 283.78 583.67"/><polygon class="bm" points="194.56 512.71 195.49 574.03 198.16 568.54 198.16 513.03 194.56 512.71"/><polygon class="bn" points="294.7 511.94 294.25 557.94 295.42 511.94 294.7 511.94"/><polygon class="bo" points="305.35 511.94 305.35 567.71 306.13 511.94 305.35 511.94"/><polygon class="bp" points="322.18 511.94 322.18 523.41 322.87 511.94 322.18 511.94"/><polygon class="bp" points="340.31 511.54 339.48 582.5 340.68 529.73 341.04 511.54 340.31 511.54"/><polygon class="bp" points="354.9 511.2 354.9 557.94 355.9 511.01 354.9 511.2"/><polygon class="bp" points="368.64 511.44 368.64 538.69 369.82 511.2 368.64 511.44"/><path class="bq" d="M435.78,689.25" transform="translate(-64.65 -105.58)"/><polygon class="bp" points="368.64 583.67 368.25 560.13 367.6 583.67 368.64 583.67"/><polygon class="bo" points="322.87 583.67 322.52 544.2 321.73 583.67 322.87 583.67"/><polygon class="bp" points="303.64 486.48 304.05 498.69 304.88 486.48 303.64 486.48"/><polygon class="bp" points="359.74 485.54 360.27 498.69 361.32 485.17 359.74 485.54"/><polygon points="65.85 512.56 66.35 515.73 198.16 513.03 198.16 509.69 65.85 510.86 65.85 512.56"/><polygon class="br" points="182.19 513.36 182.19 581.83 183.49 513.33 182.19 513.36"/><polygon class="bs" points="115.95 514.71 117.86 572.33 117.45 513.92 115.95 514.71"/><polygon class="bs" points="135.08 513.92 136.03 549.41 136.57 513.92 135.08 513.92"/><polygon class="bs" points="165.72 513.69 166.67 563.51 167.49 512.8 165.72 513.69"/><polygon class="bs" points="147.69 591.03 148.5 548.6 149.18 591.03 147.69 591.03"/><polygon class="bs" points="88.91 515.27 89.25 555.14 89.56 515.25 88.91 515.27"/><polygon class="bs" points="107.87 591.03 106.53 547.58 109.22 591.03 107.87 591.03"/><polygon class="bs" points="79.83 591.03 79.41 553.56 81.21 591.03 79.83 591.03"/><polygon class="bs" points="79.41 515.25 79.83 540.3 81.21 515.25 79.41 515.25"/><polygon points="185.02 396.27 181.07 396.55 182.39 468.79 183.32 460.11 185.02 396.27"/><rect class="bs" x="205.99" y="408.71" width="65.32" height="2.03"/><polygon class="bs" points="221.47 456.81 221.47 557.04 222.89 474.51 221.47 456.81"/><polygon class="bs" points="254.25 445.5 254.25 515.73 255.43 472.84 254.25 445.5"/><polygon class="bs" points="254.25 544.2 254.84 570.55 253.07 549.41 254.25 544.2"/><polygon points="77.67 398.56 88.35 402.86 118.94 402.86 120.11 400.35 84.04 398.56 83.86 396.67 121.28 397.3 121.28 395.42 81.35 394.61 77.67 398.56"/><polygon points="141.55 404.48 143.89 413.99 168.83 410.13 169.46 402.86 168.38 402.5 167.48 403.69 141.55 404.48"/><polygon points="89.37 467.13 89.37 468.86 105.83 469.27 110.35 468.2 119.08 469.27 124.43 469.27 124.43 467.46 118.09 467.55 89.37 467.13"/><polygon points="137.92 466.72 137.35 468.78 169.77 469.27 169.44 466.72 137.92 466.72"/><polygon class="bs" points="104.45 441.49 118.88 441.49 118.88 436.13 94.91 436.13 94.91 441.49 104.45 441.49"/><polygon points="144.64 436.55 168.07 436.55 167.52 443.76 144.64 443.76 144.64 436.55"/><polygon points="299.67 402.5 302.18 407.25 302.18 413.33 329.4 410.74 329.4 406.86 332.83 402.5 299.67 402.5"/><polygon points="351.32 402.5 378.54 402.5 377.35 413.33 353.17 410.82 351.32 402.5"/><polygon points="353.75 435.92 376.44 435.39 376.44 441.01 357.16 440.02 355.84 454.12 353.75 435.92"/><path d="M366.51,535.14V548s-.11-5.73,19.39-5.18l7.05.44v-8.15Z" transform="translate(-64.65 -105.58)"/><path d="M145.11,440l20.28.93s11.06,0,12.45,1.23a32.56,32.56,0,0,0,4.45,2.92s1.08-1.54,4.76-2.54a62.17,62.17,0,0,1,8.76-1.46l12.6.31,18.75-.16,5.38,2.14,11.37,1.09s.31-1.54,5.22-1.92,19.67,0,19.67,0H294l6.76,1.46,9.37-.15,9.53-2.62,3.4-.11L357.73,440s18.78,1.39,26.31,1.7,25.6.61,27.93-.31,6.34,2.3,16.17,1.84,36.57-.69,36.57-.69l8,.59v-2.36H421.84l-9.06-1.69-4.92,1.54L367,439.09,357,438l-7.07,1.38-26,.46L308,441.55l-12.56-1-20.47,1H255.43l-25.59-1.3L227.59,438l-1.16,2.23-29-.09-6.82-3.32-2.88,2.24H176l-3.14-3-.18,3.05-28.28-1Z" transform="translate(-64.65 -105.58)"/><polygon points="269.13 148.9 269.13 180.35 198.44 178.83 198.44 183.89 230.4 183.89 234.65 182.37 238.09 182.17 239.49 185.31 242.23 184.6 260.51 184.8 264.08 186.01 272.17 183.49 272.17 150.92 269.13 148.9"/><polygon points="197.13 146.4 197.13 177.72 198.44 170.14 198.44 143.2 197.13 146.4"/><path d="M232.21,332.05v23.72s0-17.45,3.71-17.69,10.4-.23,10.4-.23l2.54-1.38.32-4.42Z" transform="translate(-64.65 -105.58)"/><polygon points="184.53 221.06 273.22 218.63 277.03 214.93 279.69 218 299.13 215.51 299.13 213.02 184.53 215.23 184.53 221.06"/><polygon points="171.6 310.56 178.16 313.03 295.13 313.57 298.55 310.56 171.6 310.56"/><polygon points="167.56 263.39 167.56 303.6 169.79 281.92 167.56 263.39"/><polygon points="212.35 238.32 213.05 286.82 214.54 234.73 212.35 238.32"/><polygon points="314.52 303.6 311.38 219.67 316.27 286.82 314.52 303.6"/><polygon points="258.04 219.67 258.91 283.5 261.58 218.95 258.04 217.04 258.04 219.67"/><polygon points="114.22 269.83 115.79 289.9 116.53 265.98 114.22 269.83"/><polygon points="116.53 313.03 116.53 300.83 118.95 313.03 116.53 313.03"/></svg>