<svg xmlns="http://www.w3.org/2000/svg" xmlns:xlink="http://www.w3.org/1999/xlink" viewBox="0 0 372.24 580.51"><defs><style>.a{fill:#ef6800;}.b{fill:#65936a;}.c{fill:#3fa773;}.d{fill:#494846;}.e{fill:#7dd7db;}.f{fill:#83a56a;}.g{fill:#8ae5c4;}.h{fill:#ffcc5b;}.i{fill:#fac178;}.j{fill:#fab353;}.k{fill:#6daa93;}.l{fill:url(#a);}.m{fill:#5da5a5;}.n{fill:#e7e5d7;}.o{fill:#000609;}.p{fill:#fae9b2;}.q{fill:#0a0100;}.r{fill:#d6f1e6;}.s{fill:#f1dabf;}.t{fill:#af6108;}.u{fill:#471b19;}.v,.w{fill:#002308;}.bm,.w{opacity:0.2;}.x{fill:#043d24;}.y{fill:#dbc4b4;}.z{fill:#ab8e6d;}.aa{fill:#fff9ed;}.ab{fill:#fcddd5;}.ac{fill:url(#b);}.ad{fill:#f8280b;}.ae{fill:#fffdff;}.af{fill:#0b0101;}.ag{fill:#2f0600;}.ah{fill:#1a0300;}.ai{fill:#560c00;}.aj{fill:#aa3800;}.ak{fill:#b63200;}.al{fill:#400610;}.am{fill:#010302;}.an{fill:#540b02;}.ao{fill:#ba4500;}.ap{fill:#5e1600;}.aq{fill:#7a2400;}.ar{fill:#2d0400;}.as{fill:#f90;}.at{fill:#ffa207;}.au{fill:#7c1f00;}.av{fill:#872800;}.aw{fill:#9f2d00;}.ax{fill:#9c2e00;}.ay{fill:none;}.az{fill:url(#c);}.ba{fill:#000b0b;}.bb{fill:#007d48;}.bc{fill:url(#d);}.bd{fill:#e2d0bd;}.be{fill:#00929e;}.bf{fill:#2ac9bb;}.bg{fill:#5a2e0a;}.bh{fill:#100903;}.bi{fill:#fdba40;}.bj{fill:#a6d1c9;}.bk{fill:#be8634;}.bl{fill:#76918c;}.bn{fill:#712d04;}.bo{fill:#fc9c2d;}.bp{fill:#e8c061;}.bq{fill:#26180e;}.br{fill:#fff;}.bs{fill:#a5a5a5;}.bt{fill:#134942;}.bu{fill:#090100;}.bv{fill:#70b65a;}.bw{fill:#870605;}.bx{fill:#9b9b9b;}.by{fill:#40923d;}.bz{fill:#ffbc62;}.ca{fill:#3dd7ca;}.cb{fill:#1b0e0c;}.cc{fill:#f5d6a0;}.cd{fill:#7fd98b;}.ce{fill:#2d2d2d;}.cf{fill:#faf8e4;}.cg{fill:url(#e);}.ch{fill:#f0e7c9;}.ci,.da{fill:#090300;}.cj{fill:url(#f);}.ck{fill:url(#g);}.cl{fill:#ffd6ab;}.cm{fill:#fff5e0;}.cn{fill:#eaf2e4;}.co{fill:#f1f9f9;}.cp{fill:#b37608;}.cq{fill:#fbfbe1;}.cr{fill:#4a2208;}.cs{fill:#ffdd79;}.ct{fill:#fff7df;}.cu{fill:#e0c79d;}.cv{fill:#cbb996;}.cw{fill:#fce8d0;}.cx{fill:#9b6618;}.cy{fill:#fdf7de;}.cz{fill:#f5b34a;}.da,.dn{opacity:0.5;}.db{fill:#58140c;}.dc{fill:url(#h);}.dd{fill:url(#i);}.de{fill:#515151;}.df{fill:#4b1908;}.dg{fill:#fafdf0;}.dh{fill:#bfc1b9;}.di{fill:#f0d470;}.dj{fill:#f1f2c5;}.dk{fill:#000b07;}.dl{fill:#002907;}.dm{fill:#dd9c4e;}.dn{fill:url(#j);}.do{fill:#1c0902;}.dp{fill:#e5cbbc;}.dq{fill:#fbfef3;}.dr{fill:#f8fdfc;}.ds{fill:#130402;}.dt{fill:#d23400;}.du{fill:#fed891;}.dv{fill:#f4b15e;}.dw{fill:url(#k);}.dx{fill:#ffdf99;}.dy{fill:#b1dce7;}.dz{fill:#fafdef;}.ea{fill:#a67220;}.eb{fill:#dab03b;}.ec{fill:#77875b;}.ed{fill:#ecbd59;}.ee{fill:#fed963;}.ef{fill:#ff9e14;}.eg{fill:#fffed4;}.eh{fill:#de9200;}</style><linearGradient id="a" x1="304.35" y1="500.71" x2="361.61" y2="500.71" gradientUnits="userSpaceOnUse"><stop offset="0" stop-color="#fff"/><stop offset="0" stop-color="#004519"/><stop offset="1" stop-color="#047a28"/></linearGradient><linearGradient id="b" x1="257.93" y1="638.24" x2="353.45" y2="638.24" gradientUnits="userSpaceOnUse"><stop offset="0" stop-color="#fff"/><stop offset="0" stop-opacity="0.9"/><stop offset="1" stop-opacity="0"/></linearGradient><linearGradient id="c" x1="351.94" y1="690.76" x2="351.94" y2="690.76" xlink:href="#b"/><linearGradient id="d" x1="280.79" y1="578.25" x2="280.79" y2="419.4" gradientUnits="userSpaceOnUse"><stop offset="0" stop-color="#fff"/><stop offset="0" stop-opacity="0.9"/><stop offset="1" stop-opacity="0.5"/></linearGradient><linearGradient id="e" x1="133.77" y1="410.82" x2="133.77" y2="405.02" gradientUnits="userSpaceOnUse"><stop offset="0" stop-color="#fff"/><stop offset="0" stop-opacity="0.9"/><stop offset="0.03" stop-color="#201600" stop-opacity="0"/><stop offset="1"/></linearGradient><linearGradient id="f" x1="70.49" y1="371.62" x2="70.49" y2="304.15" gradientUnits="userSpaceOnUse"><stop offset="0" stop-color="#fff"/><stop offset="0" stop-color="#77b7a9"/><stop offset="0.09" stop-color="#9acabf"/><stop offset="0.21" stop-color="#c6e1db"/><stop offset="0.32" stop-color="#e5f1ef"/><stop offset="0.42" stop-color="#f8fbfb"/><stop offset="0.48" stop-color="#fff"/><stop offset="0.59" stop-color="#fcfefd"/><stop offset="0.69" stop-color="#f1f9f8"/><stop offset="0.77" stop-color="#e0f2f0"/><stop offset="0.85" stop-color="#c8e8e3"/><stop offset="0.93" stop-color="#a9dbd4"/><stop offset="1" stop-color="#85ccc2"/></linearGradient><linearGradient id="g" x1="100.71" y1="370.63" x2="100.71" y2="304.15" xlink:href="#f"/><linearGradient id="h" x1="187.21" y1="497.45" x2="187.21" y2="429.98" gradientTransform="matrix(-0.5, 0, 0, 1, 311.25, -126.36)" xlink:href="#f"/><linearGradient id="i" x1="252.48" y1="496.46" x2="252.48" y2="429.98" gradientTransform="matrix(-0.5, 0, 0, 1, 311.25, -126.36)" xlink:href="#f"/><linearGradient id="j" x1="371.73" y1="396.68" x2="482.14" y2="396.68" gradientUnits="userSpaceOnUse"><stop offset="0" stop-color="#fff"/><stop offset="0"/><stop offset="1" stop-opacity="0.5"/></linearGradient><linearGradient id="k" x1="260.46" y1="114.36" x2="297.18" y2="114.36" gradientUnits="userSpaceOnUse"><stop offset="0" stop-color="#fff"/><stop offset="0" stop-opacity="0.7"/><stop offset="1" stop-opacity="0.2"/></linearGradient></defs><polygon class="a" points="145.13 445.27 146.09 565.85 237.7 564.4 242.87 445.85 145.13 445.27"/><polygon class="b" points="243.68 464.86 247.89 447.14 247.89 476.29 246.6 578.25 239.14 577.45 239.52 460.51 243.68 464.86"/><polygon class="c" points="15.99 421.21 15.14 578.25 137.72 578.25 134.17 421.21 15.99 421.21"/><polygon class="d" points="64.07 452.01 104.42 452.01 103.69 516.52 64.55 516.52 64.07 452.01"/><polygon class="e" points="94.99 452.01 95.6 516.52 103.69 516.52 104.42 452.01 94.99 452.01"/><polygon class="f" points="240.64 416.86 252.4 431.98 270.76 432.4 269.8 418.67 240.64 416.86"/><polygon class="g" points="75.91 452.01 73.49 516.52 64.55 516.52 64.07 452.01 75.91 452.01"/><polygon class="h" points="62.26 476.29 105.75 476.9 105.75 473.52 62.26 473.52 62.26 476.29"/><polygon class="i" points="63.22 497.31 105.14 497.31 104.42 494.66 62.26 494.66 63.22 497.31"/><polygon class="j" points="64.55 516.52 55.25 516.52 55.25 445.85 112.87 445.85 112.87 522.32 104.42 522.32 104.42 499.49 104.42 465.66 104.42 452.01 64.07 452.01 64.55 516.52"/><polygon class="f" points="132.38 416.86 132.38 431.28 146.9 420.3 132.38 416.86"/><rect class="j" x="55.25" y="516.52" width="51.46" height="5.8"/><polygon class="k" points="64.07 452.01 65.76 473.52 64.23 473.52 64.07 452.01"/><polygon class="k" points="65.76 476.34 65.76 494.66 64.39 494.66 64.07 476.32 65.76 476.34"/><polygon class="k" points="66.85 516.52 64.55 516.52 64.41 497.31 66.85 516.52"/><polygon class="k" points="69.99 452.01 71.19 452.01 71.19 463.97 69.99 452.01"/><polygon class="l" points="304.83 421.21 304.35 436.19 336.16 436.19 336.16 580.51 361.61 580.51 361.61 420.9 304.83 421.21"/><path class="m" d="M212.51,582a26.47,26.47,0,0,0-.85,8.34c.24,4.83.41,5.92.41,5.92Z" transform="translate(-112.8 -126.36)"/><path class="n" d="M202.36,669.46s18.85.24,23.31,5.92l-1,6s-4-7.13-22.35-7.13-26.07,3.08-26.07,3.08l.92-3.2S186.53,669.7,202.36,669.46Z" transform="translate(-112.8 -126.36)"/><path class="m" d="M212.51,606.76s-1.28,6.52-.88,10.39L212,621Z" transform="translate(-112.8 -126.36)"/><polygon class="o" points="55.25 525.5 54.52 527.19 56.94 528 114.28 528 112.87 525.5 55.25 525.5"/><path class="m" d="M214.8,628.14s-.6,8.34,0,11.12Z" transform="translate(-112.8 -126.36)"/><polygon class="p" points="54.52 521.56 54.85 526.47 113.56 526.47 113.56 522.32 112.87 521.56 54.52 521.56"/><polygon class="q" points="148.19 417.5 145.49 422.42 246.6 422.42 245.15 416.86 148.19 417.5"/><polygon class="r" points="55.25 445.85 52.19 441.99 55.81 441.99 114.68 441.99 112.87 445.85 55.25 445.85"/><path class="s" d="M162.25,568.34a2.36,2.36,0,0,1-1.85-2.41,2.25,2.25,0,0,1,1.85-2.26h65.24a2.76,2.76,0,0,1,0,4.67Z" transform="translate(-112.8 -126.36)"/><polygon class="t" points="59.72 528 61.05 555.06 64.41 549.5 64.41 528 59.72 528"/><polygon class="u" points="112.39 528 111.91 555.06 114.81 555.06 115.29 522.32 112.87 522.32 112.39 528"/><polygon class="v" points="112.87 445.85 115.29 449.56 115.29 522.32 112.87 522.32 112.87 445.85"/><polygon class="w" points="64.07 452.01 64.09 455.64 104.42 461.72 104.42 452.01 64.07 452.01"/><polygon class="q" points="13.57 419.39 15.99 421.21 138.48 422.42 145.49 422.42 149.48 419.39 13.57 419.39"/><polygon class="x" points="15.14 578.25 17.8 578.25 15.5 484.87 15.14 578.25"/><polygon class="y" points="145.13 569.23 145.13 576 239.14 576 239.14 570.42 145.13 569.23"/><polygon class="z" points="246.6 578.25 142.71 578.25 142.71 576 239.14 576 246.6 578.25"/><polygon class="aa" points="15.14 578.25 5.96 578.25 6.93 419.39 16.11 419.39 15.14 578.25"/><polygon class="ab" points="239.14 564.4 146.09 565.85 146.51 568.44 146.74 569.88 239.14 570.42 239.14 564.4"/><path class="ac" d="M259.54,704.61l21.67.24s7.57-73.39,16.43-87.07,18.76-20,28.91-20h25.58l1.32-25.61-95.52-.58Z" transform="translate(-112.8 -126.36)"/><polygon class="ad" points="142.87 420.9 116.94 442.95 274.07 443.52 274.07 440.62 246.44 420.9 142.87 420.9"/><polygon class="ae" points="137.72 578.25 142.71 578.25 142.71 443.52 134.67 443.02 137.72 578.25"/><polygon class="af" points="149.48 443.92 147.3 578.25 142.71 578.25 142.71 443.52 149.48 443.92"/><polygon class="af" points="239.52 568.59 240.64 466.79 239.52 460.51 237.59 570.4 239.14 576 239.52 568.59"/><polygon class="af" points="246.28 472.59 239.46 463.73 239.46 450.68 242.87 445.85 242.87 443.4 247.89 443.42 246.28 472.59"/><polygon class="af" points="147.22 447.14 242.74 447.14 242.87 443.4 142.71 443.52 147.22 447.14"/><polygon class="ae" points="247.89 443.42 246.6 578.25 252.4 578.25 253.69 443.92 247.89 443.42"/><rect class="ag" x="195.5" y="469.89" width="3.91" height="92.9"/><polygon class="ah" points="148.03 453.1 236.13 453.1 235.49 455.64 146.9 455.64 148.03 453.1"/><polygon class="ai" points="228.66 519.54 230.23 519.54 230.29 467.84 228.66 519.54"/><polygon class="aj" points="218.46 519.54 216.95 519.54 217.37 475.99 218.46 519.54"/><polygon class="ak" points="208.85 519.54 210.3 519.54 209.76 470.5 208.85 519.54"/><polygon class="al" points="202.27 519.54 204.08 519.54 204.2 463.49 203.23 463.31 202.27 519.54"/><polygon class="am" points="295.33 467.6 320.54 467.19 318.2 547.65 295.33 548.13 295.33 467.6"/><rect class="an" x="202.69" y="528.78" width="1.51" height="25.25"/><rect class="ao" x="207.22" y="528.78" width="1.63" height="25.25"/><polygon class="ap" points="220.45 528.78 220.45 554.03 221.96 554.03 221.2 528.78 220.45 528.78"/><polygon class="aq" points="227.28 528.78 227.28 553.43 228.66 553.43 228.36 528.78 227.28 528.78"/><polygon class="ar" points="200.52 529.51 233.25 528.78 233.25 526.79 200.52 528.36 200.52 529.51"/><polygon class="as" points="206.92 519.85 206.92 521.66 231.62 521.41 232.47 519.54 206.92 519.85"/><polygon class="at" points="205.53 519.97 205.29 521.66 200.52 521.66 200.52 519.97 205.53 519.97"/><polygon class="au" points="180.28 529.51 179.68 563.39 181.73 563.39 181.73 529.51 180.28 529.51"/><rect class="av" x="188.86" y="529.51" width="1.69" height="33.89"/><polygon class="aw" points="190.55 494.66 192.12 491.43 191.34 522.8 189.7 522.8 190.55 494.66"/><rect class="ax" x="177.74" y="521.56" width="10.51" height="1.25"/><polygon class="ay" points="192.12 529.93 178.95 529.93 178.95 528.15 192.12 528 192.12 529.93"/><path class="az" d="M351.94,690.76" transform="translate(-112.8 -126.36)"/><path class="af" d="M264.45,551.19s-8.94,4.53-13,11.35S264.45,551.19,264.45,551.19Z" transform="translate(-112.8 -126.36)"/><path class="af" d="M356.32,552.15s10.33,6.85,11.54,11.52S356.32,552.15,356.32,552.15Z" transform="translate(-112.8 -126.36)"/><polygon class="ba" points="347.11 549.42 347.11 580.51 337.77 579.54 339.22 548.62 347.11 549.42"/><path class="af" d="M297.64,553.85c-3.71,6.76-2.5,9.82-2.5,9.82Z" transform="translate(-112.8 -126.36)"/><path class="af" d="M325.58,553.85a36.16,36.16,0,0,0,2.9,9.82Z" transform="translate(-112.8 -126.36)"/><polygon class="bb" points="252.4 578.25 303.38 578.25 309.18 556.75 285.02 556.75 285.5 449.72 284.78 443.92 280.79 443.42 282.12 436.19 304.35 436.19 304.83 421.21 300.24 419.39 260.62 419.39 259.93 430.53 274.07 440.62 274.07 443.52 253.69 443.92 252.4 578.25"/><polygon class="bc" points="252.4 578.25 303.38 578.25 309.18 556.75 285.02 556.75 285.5 449.72 284.78 443.92 280.79 443.42 282.12 436.19 304.35 436.19 304.83 421.21 300.24 419.39 260.62 419.39 259.93 430.53 274.07 440.62 274.07 443.52 253.69 443.92 252.4 578.25"/><polygon class="bd" points="309.18 556.75 303.38 578.25 312.16 578.5 313.13 556.75 309.18 556.75"/><polygon class="be" points="325.05 579.54 339.22 579.54 339.22 548.62 313.13 548.62 312.16 578.5 325.05 579.54"/><polygon class="bf" points="318.46 468.64 318.46 517.85 317.39 547.65 329.31 547.65 327.22 465.9 318.46 468.64"/><polygon class="bg" points="285.02 556.75 309.18 556.75 313.13 556.75 313.13 547.17 285.06 547.17 285.02 556.75"/><polygon class="bh" points="285.9 550.55 311.03 550.55 308.25 552.8 285.02 553.43 285.9 550.55"/><polygon class="bi" points="296.81 485.15 296.8 488.45 325.69 488.78 325.69 485.56 296.81 485.15"/><path class="bj" d="M409.78,598.06s6.16-4.35,9.06,0L418.12,579l-9.1.33Z" transform="translate(-112.8 -126.36)"/><rect class="bk" x="296.69" y="509.39" width="29" height="2.98"/><path class="bl" d="M412.14,590.69s-.65.45-.43,3.32.19,2.24.19,2.24Z" transform="translate(-112.8 -126.36)"/><polygon class="bk" points="306.12 547.17 311.19 547.17 311.24 452.62 305.31 452.62 306.12 547.17"/><path class="bj" d="M424.05,579h14.44v18.69a23.27,23.27,0,0,0-8.61-1.37c-4.84.16-5.84,1.77-5.84,1.77Z" transform="translate(-112.8 -126.36)"/><polygon class="bm" points="294.2 450.8 329.31 449.72 327.06 480.4 294.2 465.06 294.2 450.8"/><polygon class="am" points="304.83 421.21 311.23 421.93 360.88 421.93 365.23 419.39 306.04 418.67 300.24 419.39 304.83 421.21"/><polygon class="bn" points="296.98 452.62 296.5 547.17 285.06 547.17 285.5 449.72 287.56 449.72 296.98 452.62"/><polygon class="bo" points="313.13 547.17 325.69 547.17 325.69 451.65 325.69 446.09 336.16 446.09 337.05 548.62 313.13 548.62 313.13 547.17"/><path class="am" d="M452.67,566.17l3.5,3.59v1.87s-4.11,1.3-4.95,4.44-.61,27.31-.61,27.31L452,675h-2.17L449,572.45s2.9-.91,3.61-2.69A5.84,5.84,0,0,0,452.67,566.17Z" transform="translate(-112.8 -126.36)"/><polygon class="bp" points="371.03 580.51 361.61 580.51 360.88 421.93 365.23 419.39 371.03 419.39 371.03 580.51"/><polygon class="bg" points="287.56 450.8 287.56 511.88 288.04 516.34 288.64 451.41 287.56 450.8"/><polygon class="bq" points="286.59 449.72 285.5 449.72 285.02 553.43 285.9 550.55 286.59 449.72"/><polygon class="br" points="285.5 449.72 284.78 443.92 280.79 443.42 282.12 436.19 336.16 436.19 336.16 446.09 325.69 446.09 325.69 452.62 296.21 452.94 287.56 449.72 285.5 449.72"/><polygon class="bs" points="285.81 444.04 336.16 444.04 336.16 446.09 285.02 445.85 284.78 443.92 285.81 444.04"/><polygon class="bs" points="336.16 438.85 281.63 438.85 281.21 441.13 336.16 438.85"/><path class="bt" d="M433.84,656.05a40.39,40.39,0,0,0-.5,7.55,52,52,0,0,0,.25,5.86Z" transform="translate(-112.8 -126.36)"/><path class="bt" d="M436.76,619.38a40.39,40.39,0,0,0-.5,7.55,55.09,55.09,0,0,0,.24,5.86Z" transform="translate(-112.8 -126.36)"/><polygon class="bu" points="256.03 209.07 256.03 245.31 289.01 246.28 289.61 213.66 256.03 209.07"/><polygon class="bv" points="10.67 214.51 10.67 243.22 252.28 244.51 252.28 218.42 247.94 218.34 10.67 214.51"/><path class="bw" d="M485,409.12,474.41,272.61H406.76L410,345.74l-18,.08-1.2,22.95s5.93,1.94,6.35,4.11-.07,8.21-5.15,8.7v4.23l-1.69,9.06L392,409.12Z" transform="translate(-112.8 -126.36)"/><path class="bx" d="M483.84,531.38s-1.76,4.43-1.37,7.18,1.37,7.19,1.37,7.19L456.17,545l-82.75.72-1.69-12.46Z" transform="translate(-112.8 -126.36)"/><polygon class="by" points="361.61 394.39 258.93 394.39 258.93 265.13 277.53 268.51 279.22 285.87 361.61 286.34 361.61 394.39"/><polygon class="bz" points="286.23 323.44 286.23 372.08 337.13 372.08 337.13 323.44 287.52 323.44 286.23 323.44"/><polygon class="ca" points="296.13 329.76 295.73 371.09 325.37 371.09 325.97 329.19 301.53 329.19 296.13 329.76"/><polygon class="cb" points="312.44 329.19 316.19 329.19 316.19 371.09 311.36 371.09 312.44 329.19"/><polygon class="cc" points="258.93 394.39 361.61 394.39 361.61 286.39 370.79 286.39 370.79 397.41 371.03 405.02 258.93 406.93 258.93 394.39"/><polygon class="cd" points="12.97 265.13 253.13 265.13 254.09 397.41 12.36 397.41 10.67 265.13 12.97 265.13"/><polygon class="ce" points="14.29 263.92 14.29 268.03 252.28 268.51 251.8 263.92 14.29 263.92"/><polygon class="cf" points="7.17 410.82 4.51 419.39 75.91 419.39 260.62 419.39 262.79 419.39 261.58 410.82 261.34 406.95 5.96 405.02 6.46 407.43 7.17 410.82"/><polygon class="cg" points="6.46 407.43 6.46 407.43 5.96 405.02 261.34 406.95 261.58 410.82 7.17 410.82 6.46 407.43"/><path class="ch" d="M374.14,533.31s6.53-4.59,0-10.15V391.48H363V521.23l-235.09-.48V391.48h-7.49V522.2s-5.55,2.17-4.59,5.31,2.9,3.87,2.9,3.87Z" transform="translate(-112.8 -126.36)"/><polygon class="ci" points="73.01 305.15 73.01 369.34 98.62 370.63 99.34 303.66 73.01 305.15"/><polygon class="cj" points="64.07 304.15 64.75 371.44 76.91 371.62 75.99 304.15 64.07 304.15"/><polygon class="ck" points="96.08 304.83 96.08 370.63 105.34 370.63 105.34 304.15 96.08 304.83"/><rect class="cl" x="64.75" y="327.3" width="40.59" height="2.42"/><polygon class="cm" points="64.75 346.95 104.94 346.95 104.94 348.97 65.23 349.37 64.75 346.95"/><polygon class="cn" points="76.91 369.99 76.59 305.15 75.06 305.15 75.06 369.99 76.91 369.99"/><polygon class="co" points="84.84 369.99 85.45 304.83 88.27 304.83 88.27 369.99 84.84 369.99"/><polygon class="cp" points="65.15 369.99 65.4 305.15 62.74 305.15 62.74 369.34 65.15 369.99"/><polygon class="cq" points="62.74 369.34 104.94 369.34 104.46 371.92 63.46 371.92 62.74 369.34"/><polygon class="cr" points="55.49 375.14 57.99 378.85 110.74 378.85 114.44 375.14 55.49 375.14"/><polygon class="cs" points="63.62 301.93 63.46 371.92 55.01 371.92 53.48 301.05 63.62 301.05 63.62 301.93"/><polygon class="ct" points="54.04 286.39 111.95 286.39 111.89 288.01 111.84 289.54 111.62 296.05 55.01 296.05 54.04 286.39"/><polygon class="cu" points="83.52 289.85 111.84 289.54 111.89 288.01 54.35 289.52 54.47 290.67 83.52 289.85"/><polygon class="cv" points="54.93 297.1 55.01 296.05 111.62 296.05 111.62 297.1 55.89 297.1 54.93 297.1"/><path class="cw" d="M164,425.07l1,2.33h59.44s1.93-.08,1.93-1.16-2.42-1.17-2.42-1.17Z" transform="translate(-112.8 -126.36)"/><polygon class="cx" points="53.48 301.93 53.48 301.05 111.62 301.05 111.95 301.93 53.48 301.93"/><polygon class="cy" points="52.59 297.74 55.89 297.1 111.62 297.1 111.89 298.79 52.11 298.71 52.59 297.74"/><polygon class="cs" points="62.74 305.88 104.38 305.88 104.46 371.92 111.95 371.92 111.95 301.93 63.62 301.93 62.74 305.88"/><polygon class="cz" points="53.15 371.44 116.54 371.92 116.54 375.62 53.15 375.62 53.15 371.44"/><polygon class="da" points="65.4 305.88 65.16 369.34 67.75 369.34 66.24 305.88 65.4 305.88"/><polygon class="db" points="113.56 371.92 111.95 371.92 111.95 301.93 113.56 301.05 113.56 371.92"/><polygon class="ci" points="215.56 304.63 215.56 368.82 188.08 370.11 187.31 303.14 215.56 304.63"/><polygon class="dc" points="225.15 303.62 224.41 370.91 211.37 371.09 212.36 303.62 225.15 303.62"/><polygon class="dd" points="190.81 304.31 190.81 370.11 180.87 370.11 180.87 303.62 190.81 304.31"/><rect class="cl" x="180.87" y="326.78" width="43.54" height="2.42"/><polygon class="cm" points="224.41 346.43 181.3 346.43 181.3 348.44 223.9 348.85 224.41 346.43"/><polygon class="cn" points="211.37 369.46 211.71 304.63 213.35 304.63 213.35 369.46 211.37 369.46"/><polygon class="co" points="202.86 369.46 202.21 304.31 199.19 304.31 199.19 369.46 202.86 369.46"/><polygon class="cp" points="223.98 369.46 223.72 304.63 226.57 304.63 226.57 368.82 223.98 369.46"/><polygon class="cq" points="226.57 368.82 181.3 368.82 181.82 371.39 225.8 371.39 226.57 368.82"/><polygon class="cr" points="234.35 374.62 231.67 378.32 175.08 378.32 171.11 374.62 234.35 374.62"/><polygon class="cs" points="225.62 301.41 225.8 371.39 234.87 371.39 236.51 300.52 225.62 300.52 225.62 301.41"/><polygon class="ct" points="235.9 285.87 173.78 285.87 173.84 287.48 173.9 289.01 174.13 295.53 234.87 295.53 235.9 285.87"/><polygon class="cu" points="204.28 289.33 173.9 289.01 173.84 287.48 235.57 289 235.44 290.15 204.28 289.33"/><polygon class="cv" points="234.95 296.58 234.87 295.53 174.13 295.53 174.13 296.58 233.92 296.58 234.95 296.58"/><path class="cw" d="M351.73,424.54l-1,2.34H286.93s-2.07-.08-2.07-1.17,2.59-1.17,2.59-1.17Z" transform="translate(-112.8 -126.36)"/><polygon class="cx" points="236.51 301.41 236.51 300.52 174.13 300.52 173.78 301.41 236.51 301.41"/><polygon class="cy" points="237.46 297.22 233.92 296.58 174.13 296.58 173.84 298.27 237.98 298.19 237.46 297.22"/><polygon class="cs" points="226.57 305.36 181.91 305.36 181.82 371.39 173.78 371.39 173.78 301.41 225.62 301.41 226.57 305.36"/><polygon class="cz" points="236.85 370.91 168.86 371.39 168.86 375.1 236.85 375.1 236.85 370.91"/><polygon class="da" points="183.02 305.34 186.09 368.82 181.82 368.88 181.91 305.36 183.02 305.34"/><polygon class="db" points="234.88 370.91 235.94 370.92 237.57 300.52 236.51 300.52 234.88 370.91"/><path class="de" d="M390.33,394.87l1.69-9.06v-4.23s6.42-1.93,5.15-8.7-22-5.52-22-5.52,2.35,1.09,3.56,5.12-4.6,5.47-4.6,5.47v13.53Z" transform="translate(-112.8 -126.36)"/><polygon class="df" points="286.23 375.78 285.1 379.09 337.77 379.09 335.11 374.9 286.23 374.9 286.23 375.78"/><polygon class="dg" points="5.72 265.13 7.89 253.77 261.34 254.5 261.34 259.45 261.34 265.13 250.23 265.13 5.72 265.13"/><polygon class="dh" points="257.48 259.45 6.8 259.45 7.89 253.77 163.49 254.22 261.34 254.5 261.34 259.45 257.48 259.45"/><rect class="di" x="295.94" y="348.85" width="30.04" height="2.17"/><polygon class="dj" points="308.33 329.19 312.44 329.19 312.44 370.91 308.33 371.09 308.33 329.19"/><polygon class="dk" points="295.05 329.19 296.13 338.94 296.13 329.76 306.4 329.19 295.05 329.19"/><polygon class="dl" points="318.6 329.19 325.97 329.19 325.37 331.27 324.4 330.23 318.6 329.19"/><path class="cc" d="M407.85,453.14" transform="translate(-112.8 -126.36)"/><path class="dm" d="M398.47,439.56l53,.65a7.08,7.08,0,0,1,1.13,3.86c.08,2.5-2.66,3.79-2.66,3.79v1.93H400.32l-.24-2.49s-2.74-1.61-2.9-4.35S398.47,439.56,398.47,439.56Z" transform="translate(-112.8 -126.36)"/><path class="dm" d="M400.08,497.87s-3.87.16-3.79,1.29a2.36,2.36,0,0,0,1.89,2.42c1.25.16,51.75,0,51.75,0s1-.16,1-1,.16-1.69-1-2.17S400.08,497.87,400.08,497.87Z" transform="translate(-112.8 -126.36)"/><path class="dn" d="M401,520.75,399,486.2l-2.74-82.8s14.34-25.12,45.59-29.63,40.26-3.87,40.26-3.87l-7.73-97.29H406.76L410,345.74l-38.25-3.22V366s6.68,1.29,7,6.45a4.92,4.92,0,0,1-4.6,5.47v13.53l-2.41,129.27Z" transform="translate(-112.8 -126.36)"/><polygon class="do" points="279.22 282.76 372.24 282.76 370.79 286.39 361.61 286.34 279.22 285.87 279.22 282.76"/><polygon class="dp" points="7.89 253.77 2.95 250.63 261.34 251.6 261.34 254.5 7.89 253.77"/><path class="dq" d="M112.8,373a7.28,7.28,0,0,1,6.81-6.44c6.24-.49,136.55-.65,136.55-.65l106.63.16V345.74l2.29-1v-5.31h8.18v27s5.15,1.17,5.48,6-4.6,5.47-4.6,5.47H269.85l-154.1-1A4.89,4.89,0,0,1,112.8,373Z" transform="translate(-112.8 -126.36)"/><polygon class="dr" points="6.8 211.33 6.8 240.16 15.14 239.99 15.14 211.33 6.8 211.33"/><path class="ds" d="M126.33,345.74l226.15,3.54s5.64-4.35,10.31-3.54l2.29-1v-5.31l-238.75-1.77Z" transform="translate(-112.8 -126.36)"/><polygon class="ds" points="248.66 225.99 249.99 239.68 249.99 219.38 248.66 225.99"/><polygon class="dt" points="6.8 211.33 0 213.1 11.76 17.72 9.82 9.02 19.17 1.61 142.87 0 264.64 1.93 289.45 15.14 291.38 24.16 289.45 27.7 293.96 146.25 297.18 219.38 260.46 213.1 6.8 211.33"/><polygon class="du" points="181.85 138.52 231.78 139.65 231.78 207.3 182.82 207.3 181.85 138.52"/><polygon class="br" points="225.1 206.66 225.1 154.35 186.36 152.96 186.36 206.66 225.1 206.66"/><polygon class="dv" points="203.23 153.38 203.96 206.66 205.77 206.66 205.77 153.38 203.23 153.38"/><polygon class="dw" points="260.46 213.1 262.71 9.34 277.37 16.91 285.1 174.76 295.27 175.94 297.18 219.38 260.46 213.1"/><polygon class="dx" points="52.99 206.66 52.99 139.65 105.5 139.65 105.5 207.3 52.99 206.66"/><polygon class="dy" points="59.64 149.64 58.87 205.45 59.26 207.02 99.62 207.02 98.66 151.29 59.64 149.64"/><polygon class="dz" points="57.83 148.51 99.22 148.51 99.22 151.73 57.83 151.09 57.83 148.51"/><polygon class="ea" points="58.47 150.12 58.47 205.45 59.52 205.45 60 150.12 58.47 150.12"/><polygon class="ea" points="77.31 150.93 77.32 206.96 82.87 207.02 81.58 150.93 77.31 150.93"/><polygon class="ea" points="81.18 170.9 99.22 170.9 99.22 173.48 81.5 173.48 81.18 170.9"/><polygon class="ea" points="78.52 172.19 59.52 172.19 59.83 170.18 78.04 170.18 78.52 172.19"/><polygon class="ea" points="60.48 188.29 79.25 188.29 79.25 190.71 59.23 191.11 59.52 188.29 60.48 188.29"/><polygon class="eb" points="207.1 153.38 207.1 206.05 208.79 206.05 209.4 153.38 207.1 153.38"/><polygon points="59.76 150.72 59.76 152.25 77.64 151.41 59.76 150.72"/><polygon class="ea" points="81.95 188.29 99.22 188.29 99.22 191.11 81.18 191.11 81.95 188.29"/><polygon class="ec" points="187.29 154.23 223.89 155.31 223.89 151.69 187.89 150.6 187.29 154.23"/><rect class="ed" x="186.36" y="186.85" width="38.74" height="2.17"/><polygon class="ee" points="186.36 172.83 186.36 170.29 225.1 169.81 225.1 172.11 186.36 172.83"/><polygon class="ef" points="223.89 151.69 226.31 151.69 227.4 206.66 223.89 206.66 223.89 151.69"/><polygon class="eg" points="224.5 149.28 225.1 151.69 185.48 150.6 184.84 148.67 224.5 149.28"/><polygon class="eh" points="185.48 150.6 187.89 150.6 187.89 206.66 184.84 206.66 185.48 150.6"/><polygon class="bu" points="270.52 211.33 282.12 217.13 289.5 219.38 297.18 219.38 295.97 217.13 270.52 211.33"/><polygon class="bu" points="277.37 16.91 278.82 114.36 283.06 133.21 277.37 16.91"/><polygon class="bu" points="193.61 4.99 192.81 7.73 262.71 9.34 249.99 5.64 193.61 4.99"/><polygon class="bu" points="11.76 17.72 15.87 12.64 13.81 11.44 11.06 14.58 11.76 17.72"/><polygon class="bu" points="18.04 9.5 113.96 9.5 113.96 5.88 105.99 5.88 18.04 9.5"/></svg>