<svg xmlns="http://www.w3.org/2000/svg" xmlns:xlink="http://www.w3.org/1999/xlink" viewBox="0 0 432 617.39"><defs><style>.a{fill:#85625b;}.b{fill:#c08167;}.c{fill:#d78b73;}.d{fill:#c86848;}.e{fill:url(#a);}.f{fill:#9f715b;}.g{fill:#324f57;}.h{fill:#90b2b0;}.i{fill:#f4d6d2;}.j,.n{fill:#201600;}.j{opacity:0.3;}.k{fill:#c6b3a9;}.l{fill:#bf907c;}.m{fill:#c99b8d;}.n{opacity:0.5;}.bs,.o{fill:#818282;}.p{fill:#e7a6a3;}.q{fill:#d4abaa;}.r{fill:#e29296;}.s{fill:#dba7a8;}.t{fill:#fbfcf6;}.u{fill:#8c5e5f;}.v{fill:#6c4435;}.w{fill:#c2a29b;}.x{fill:#d9b9b3;}.y{fill:#99827f;}.z{fill:#f6dac7;}.aa{fill:#f2cdba;}.ab{fill:#daddde;}.ac{fill:#b7cbca;}.ad{fill:#4d8883;}.ae{fill:url(#b);}.af{fill:#aababb;}.ag{fill:#828283;}.ah{fill:#9ba4a6;}.ai{fill:#aac6c9;}.aj{fill:#516763;}.ak{fill:#92bfbb;}.al{fill:#b5c3c8;}.am{fill:#637a80;}.an{fill:#e0d5d0;}.ao{fill:#ecf2f2;}.ap{fill:#4b7c80;}.aq{fill:#c88e73;}.ar{fill:#a3bbbe;}.as{fill:#898477;}.at{fill:#764939;}.au{fill:#819aa0;}.av{fill:#5c3734;}.aw{fill:#d2c0b6;}.ax{fill:#e59a6f;}.ay{fill:#587582;}.az{fill:#c07749;}.ba{fill:#7c413f;}.bb{fill:#e8aaac;}.bc{fill:#6c4935;}.bd{fill:#828384;}.be{fill:#869493;}.bf{fill:#8a908d;}.bg{fill:#5d7f7e;}.bh{fill:#92918d;}.bi{fill:#879394;}.bj{fill:#e8a993;}.bk{fill:#a39993;}.bl{fill:#a39f9f;}.bm{fill:#e6beaa;}.bm,.bs,.bv,.bz{stroke:#fff;}.bm,.bo,.bs,.bv,.bz{stroke-miterlimit:10;}.bn{fill:#f5d8ce;}.bo{fill:none;stroke:#201600;}.bp{fill:#dadfdc;}.bq{fill:#e5e9ea;}.br{fill:#f9eae7;}.bt{fill:#8d918c;}.bu{fill:#838584;}.bv{fill:#878888;}.bw{fill:#e3b5a6;}.bx{fill:#838384;}.by{fill:#ebd4bf;}.bz{fill:#e7c9bc;}.ca{fill:#848485;}.cb{fill:#868586;}.cc{fill:#ccb8c6;}.cd{fill:#828383;}.ce{fill:#c3d3d7;}.cf{fill:#434343;}.cg{fill:#d4d3d3;}.ch{fill:#bfa89f;}.ci{fill:#c4a5a0;}.cj{fill:#baa098;}.ck{fill:#050709;}.cl{fill:#4a7682;}.cm{fill:#58858f;}.cn{fill:#858a8b;}.co{fill:#da6d6d;}.cp{fill:#b7bebd;}.cq{fill:#a59a96;}.cr{fill:#9e8783;}.cs{fill:#878786;}</style><linearGradient id="a" x1="368.42" y1="708.75" x2="368.42" y2="680.43" gradientUnits="userSpaceOnUse"><stop offset="0" stop-color="#fff" stop-opacity="0"/><stop offset="0.03" stop-color="#eee" stop-opacity="0.06"/><stop offset="1"/></linearGradient><linearGradient id="b" x1="400.83" y1="707.94" x2="400.83" y2="680.43" xlink:href="#a"/></defs><polyline class="a" points="44.13 168 39.3 312.64 215.52 317.8 210.81 284.68 53.15 290.96 56.54 164.21 44.13 168"/><polyline class="b" points="38.01 453.42 377.56 456.16 375.62 617.39 39.3 615.78"/><path class="c" d="M354,788.16H324.65l-1.29-121.77s21.42-28.68,61.93-29,56,30.28,56,30.28V788.16Z" transform="translate(-89.8 -170.76)"/><path class="d" d="M354,788.16l-1.29-97.61s15.79-9.83,26.74-9.35,36.73.65,37.37,4.19,0,38.5,0,38.5l-1,64.27Z" transform="translate(-89.8 -170.76)"/><path class="e" d="M354,688.94l-2.41,19.81s16.91-12.89,30.76-2.58l1.48-7.33,1.5-18.41L354,686.68Z" transform="translate(-89.8 -170.76)"/><polygon class="f" points="223.89 565.01 151.57 565.01 151.57 484.67 150.28 454.33 225.18 454.93 224.7 496 223.89 565.01"/><polygon class="g" points="154.47 479.68 154.47 454.36 50.9 453.53 50.04 494.66 78.89 493.69 111.14 484.02 149.92 489.14 154.47 479.68"/><polygon class="h" points="198.36 138.44 200.54 292.35 207.84 292.41 382.47 293.8 381.26 144.7 287.68 34.63 198.36 132.35 198.36 138.44"/><polygon class="i" points="247.09 250.18 247.09 166.07 343.81 166.07 342.55 250.18 247.09 250.18"/><path class="j" d="M140.63,627.57l.07-3.28L315,624.18l-.16,9s-6-1.93-63.3-3.86S140.63,627.57,140.63,627.57Z" transform="translate(-89.8 -170.76)"/><polygon class="k" points="368.86 447.62 368.86 440.21 368.86 300.08 225.18 298.92 223.89 448.59 368.86 447.62"/><polygon class="l" points="214.39 448.75 44.13 447.62 44.13 318.76 215.52 317.8 214.39 448.75"/><polygon class="m" points="46.79 160.27 46.79 300.4 214.63 303.3 214.63 291.09 210.81 291.06 210.81 284.68 203.52 284.62 201.31 122.3 168.89 156.48 46.79 160.27"/><polygon class="n" points="166.23 160.91 167.92 168 201.93 168 201.93 131.54 198.36 132.35 166.23 160.91"/><polygon class="o" points="225.18 454.93 223.89 492.88 287.38 458.71 319.53 465.82 354.93 488.78 364.03 491.44 377.56 456.16 225.18 454.93"/><polygon class="p" points="0 159.56 14.5 8.79 410.74 10.72 432 162.94 404.94 162.94 377.86 130.03 361.45 106.4 357.16 100.63 358.07 97.22 341.15 73.06 338.74 79.34 288.48 24.74 166.23 161.01 0 159.56"/><path class="q" d="M449.59,275s.63-1.17,3.23-1.29,4.71-.24,4.71-.24L454.58,272l-6.59.78Z" transform="translate(-89.8 -170.76)"/><polygon class="r" points="14.5 0 14.5 8.7 410.74 10.63 410.74 0.81 14.5 0"/><polygon class="s" points="166.23 160.91 167.84 165.75 287.68 34.63 401.07 168 404.94 162.84 397.86 151.89 385.13 133.61 368.94 116.22 361.45 106.31 357.16 100.63 358.07 97.13 341.15 72.97 338.74 79.25 288.48 24.64 166.23 160.91"/><rect class="t" x="279.54" y="69.1" width="21.5" height="30.93"/><polygon class="u" points="359.79 119.45 359.79 104.22 358.19 102.02 357.95 117.78 359.79 119.45"/><polygon class="v" points="256.63 476.73 259.33 518.17 264.19 509.07 264.19 473.82 256.63 476.73"/><path class="w" d="M415.41,293.51V273.45h-5.72l7.56-3.89,28-.46,9.8,3.46-2.49.1-4.09.79v22.63H418A2.57,2.57,0,0,1,415.41,293.51Z" transform="translate(-89.8 -170.76)"/><path class="x" d="M427.09,268.51V295a1.12,1.12,0,0,1-1.11,1.12h-9.45a1.12,1.12,0,0,1-1.12-1.12v-20.4a1.11,1.11,0,0,0-1.11-1.11h0a1.12,1.12,0,0,1-.51-2.11l3.35-1.72a.85.85,0,0,1,.24-.09l8.32-2.1A1.12,1.12,0,0,1,427.09,268.51Z" transform="translate(-89.8 -170.76)"/><polygon class="y" points="348.24 98.45 348.24 125.31 358.63 125.31 358.19 102.02 367.73 102.68 359.17 99.66 355.41 98.33 348.24 98.45"/><polygon class="u" points="319.89 102.68 341.15 72.97 367.73 102.68 355.41 98.33 327.45 98.8 319.89 102.68"/><rect class="z" x="327.78" y="104.21" width="7.25" height="14.26"/><rect class="aa" x="339.95" y="104.21" width="6.36" height="14.26"/><rect class="ab" x="350.58" y="103.81" width="5.32" height="14.66"/><polyline class="ac" points="174.68 507.62 198.6 507.14 198.6 550.51 174.68 550.51"/><polygon class="ad" points="32.22 169.93 33.5 322.31 211.65 326.5 211.65 311.03 43.81 308.13 43.81 168 32.22 168 32.22 169.93"/><path class="ae" d="M416.78,685.39v22.55s-12.28-11.43-31.91-1.77l.42-25.74Z" transform="translate(-89.8 -170.76)"/><rect class="af" x="101.15" y="259.01" width="44.13" height="6.12"/><polygon class="ag" points="261.79 402.76 261.26 406.63 342 407.36 344.54 404.13 343.09 402.76 261.79 402.76"/><polygon class="ah" points="207.84 298.79 379.81 300.08 379.81 293.78 207.84 292.41 207.84 298.79"/><polygon class="ai" points="211.65 302.01 211.65 298.82 225.18 298.92 223.89 448.59 211.65 448.59 211.65 302.01"/><rect class="aj" x="111.62" y="188.94" width="28.27" height="70.07"/><polygon class="ak" points="368.86 300.08 368.86 440.21 377.56 440.21 376.27 300.08 368.86 300.08"/><polygon class="al" points="210.2 448.59 210.2 456.16 380.78 455.68 380.78 447.62 210.2 448.59"/><polygon class="am" points="50.04 494.66 76.35 493.69 76.99 571.65 38.95 571.65 39.3 537.5 49.29 537.5 50.04 494.66"/><rect class="an" x="261.26" y="396.72" width="83.27" height="7.41"/><rect class="ao" x="269.8" y="339.06" width="62.01" height="57.66"/><polygon class="ap" points="36.41 322.38 38.01 453.42 41.56 453.42 46.07 448.59 46.07 322.6 36.41 322.38"/><path class="aq" d="M487.66,372.27v88.59S487,485,481.53,490.17H466.25l-.18-19.33h3.54v-6.3l1.45-149.08,19.82,23.3-3.22,7.41Z" transform="translate(-89.8 -170.76)"/><polygon class="ar" points="39.3 445.37 39.3 453.42 164.07 453.42 164.07 456.16 223.89 456.16 223.89 445.37 39.3 445.37"/><rect class="as" x="84.4" y="408.97" width="79.57" height="7.73"/><path class="j" d="M323.36,668.16s21-24.16,51.3-28.27,43.17,8.13,49.45,12.72,17.16,19,17.16,19l4-7.41S432.57,642.46,407,637.39s-49.61,0-49.61,0l-37.61,26.26Z" transform="translate(-89.8 -170.76)"/><polygon class="at" points="328.46 474.59 328.46 512.38 330.09 513.99 331.81 476.58 328.46 474.59"/><polygon class="b" points="39.3 514.07 38.01 453.42 50.9 453.53 49.29 571.74 39.3 571.74 39.3 514.07"/><path class="au" d="M313.69,786.87V662.2s33.19-32.86,67.33-32.86,72.81,32.86,72.81,32.86v126H441.27V667.67s-19.73-30.44-56-30.28-61.93,29-61.93,29l1.29,121.77Z" transform="translate(-89.8 -170.76)"/><polygon class="av" points="259.33 532.67 264.16 617.39 263.19 529.45 259.33 532.67"/><path class="aw" d="M353.16,714.87s-.49-24.32,2.3-25.93c3.19-1.84,15.87-5.8,28.3-5.8,30.44,0,31.41,8.53,31.41,8.53v24H419l.9-32.53s-15-10-37-9-34.33,7.08-34.33,7.08l.78,34.47Z" transform="translate(-89.8 -170.76)"/><polygon class="ax" points="111.38 232.03 140.29 232.03 139.89 259.01 111.62 259.01 111.38 232.03"/><path class="ay" d="M172.76,742.41h59.75l.49-72.72s-8.78-10.36-33.35-8.8-26.89,13.87-26.89,13.87Z" transform="translate(-89.8 -170.76)"/><polygon class="az" points="325.37 544.91 322.79 617.39 328.46 617.39 329.23 544.91 325.37 544.91"/><polygon class="ba" points="291.21 512.42 292.51 617.39 296.77 617.39 296.77 512.42 291.21 512.42"/><polygon class="bb" points="327 176.38 334.47 171.22 334.47 251.11 327.46 248.01 327 176.38"/><polygon class="bc" points="0 159.46 0 164.54 20.05 162.84 20.05 178.55 23.68 178.55 20.54 307.09 33.38 307.09 32.22 168 167.92 168 167.84 165.75 166.23 160.91 0 159.46"/><rect class="bd" x="107.03" y="184.35" width="36" height="4.59"/><polygon class="be" points="341.79 254.74 341.27 287.52 342.72 288.12 343.81 254.74 341.79 254.74"/><polygon class="bf" points="403.65 162.22 401.07 180.58 397.53 190.89 396.57 160.05 403.65 162.22"/><rect class="ad" x="111.62" y="228.32" width="28.27" height="4.95"/><rect class="bg" x="95.92" y="352.51" width="61.13" height="56.46"/><rect class="bh" x="91.81" y="348.4" width="67.65" height="4.11"/><rect class="bi" x="288.97" y="180" width="9.5" height="68.44"/><rect class="bj" x="253.21" y="256.91" width="81.83" height="24.81"/><polygon class="bk" points="259.17 180.84 257.48 180.52 257.48 170.09 334.47 171.22 327.54 180.52 259.17 180.84"/><path class="bl" d="M436.11,420.94v5.45s-15.78-3.19-16.75-2.72-82.47,0-82.47,0v-2.73Z" transform="translate(-89.8 -170.76)"/><polygon class="bm" points="296.7 248.01 327.46 248.01 327.54 180.52 296.7 180.52 296.7 248.01"/><polygon class="bn" points="250.95 166.07 250.95 151.89 284.78 151.89 343.81 151.89 343.81 166.07 250.95 166.07"/><path class="bo" d="M300.17,311.13" transform="translate(-89.8 -170.76)"/><rect class="bp" x="172.87" y="507.62" width="1.81" height="42.89"/><polygon class="bq" points="164.17 499.05 164.17 501.82 201.5 501.82 201.5 499.53 164.17 499.05"/><rect class="br" x="198.6" y="508.23" width="1.33" height="42.28"/><polygon class="bd" points="254.05 260.21 335.03 260.21 335.03 256.91 253.21 256.91 254.05 260.21"/><polygon class="bd" points="101.15 265.13 102.12 266.25 144.48 266.58 145.29 265.13 101.15 265.13"/><rect class="br" x="171.91" y="550.51" width="26.7" height="3.5"/><rect class="bs" x="102.6" y="354.52" width="19.33" height="42.85"/><polygon class="bt" points="268.83 339.06 334.47 339.06 341.96 326.09 334.87 334.71 270.76 335.03 268.83 339.06"/><polygon class="bu" points="262.39 328.51 267.7 338.17 267.7 342.44 269.39 342.85 270.52 335.68 336.24 335.27 341.96 326.09 340.51 325.37 335.11 333.74 269.8 334.11 268.91 335.27 264.08 327.54 262.39 328.51"/><rect class="bs" x="129.83" y="354.52" width="19.49" height="45.26"/><polygon class="bv" points="298.75 339.06 298.15 392.13 269.8 392.13 269.8 339.06 298.75 339.06"/><rect class="bv" x="304.91" y="339.06" width="26.9" height="53.07"/><polygon class="bw" points="298.75 338.58 298.15 392.13 304.91 392.13 304.91 338.58 298.75 338.58"/><path class="bx" d="M315,469.68l-.12,14.05s45.39,4.83,77.84,4.83,66-3.22,66-3.22v-14.5Z" transform="translate(-89.8 -170.76)"/><polygon class="by" points="223.96 440.21 377.56 440.21 377.56 447.62 223.89 448.59 223.96 440.21"/><polygon class="bz" points="260.21 248.01 259.17 180.84 290.09 180.52 290.09 248.01 260.21 248.01"/><polygon class="ca" points="297.18 183.36 327 182.46 327 181.03 297.18 180.93 297.18 183.36"/><polygon class="cb" points="259.73 183.52 289.54 183.34 289.57 180.95 259.73 181.33 259.73 182.38 259.73 183.52"/><polygon class="cc" points="252.64 166.07 257.64 172.03 333.74 172.03 332.94 250.18 342.55 250.18 343.81 166.07 252.64 166.07"/><polygon class="a" points="208.75 139.45 209.56 272.21 210.36 140.37 208.75 139.45"/><polygon class="bx" points="198.36 138.44 325.85 139.49 198.39 140.46 198.36 138.44"/><path class="be" d="M299.36,443.78S298.88,453,305,453s29.47,0,29.47,0l.41-1.12-30.12.24S299,449.66,299.36,443.78Z" transform="translate(-89.8 -170.76)"/><polygon class="cd" points="198.36 132.35 206.09 130.59 287.76 44.09 328.86 90.16 331.61 86.3 287.68 34.63 198.36 132.35"/><polygon class="cd" points="319.89 102.68 324 104.22 325.61 109.21 325.61 102.68 319.89 102.68"/><path class="n" d="M172.76,674.76l.56,1s7.89-11.36,16.91-13.13,13-2.23,19.41-1.19S232,669,232,669l1.05.73v-4.43s-14.26-10.55-26.58-8.86-20.94,2.58-24.48,6.2-9.89,10.7-9.89,10.7Z" transform="translate(-89.8 -170.76)"/><path class="ce" d="M162.77,664.45l-7.73,1s20-20.94,45.9-21.26,43.33,6.28,43.33,6.28v4.63l-7.09,2.62-38.65-6.28L171.31,662.6Z" transform="translate(-89.8 -170.76)"/><polygon class="cd" points="326.23 125.31 327.2 125.84 358.55 126.36 358.63 125.31 326.23 125.31"/><polygon class="cd" points="358.63 124.31 364.78 125.31 358.63 118.08 358.63 124.31"/><polygon class="cf" points="359.79 119.45 359.79 124.5 358.63 124.31 358.63 118.08 359.79 119.45"/><polygon class="cd" points="358.55 126.36 359.79 126.36 359.79 124.5 358.63 124.31 358.55 126.36"/><rect class="cg" x="111.62" y="188.94" width="28.27" height="1.81"/><polygon class="n" points="46.07 322.6 46.07 324.72 211.65 328.91 211.65 326.5 46.07 322.6"/><rect class="ch" x="91.81" y="352.51" width="4.11" height="1.05"/><polygon class="ci" points="96.52 353.56 95.92 353.56 95.92 352.51 157.05 352.51 157.05 353.56 96.52 353.56"/><rect class="cj" x="157.05" y="352.51" width="2.42" height="1.05"/><polygon class="ck" points="84.4 416.7 84.4 418.95 163.97 419.56 163.97 416.7 84.4 416.7"/><polygon class="ck" points="111.38 234.72 139.89 234.72 140.29 232.03 111.38 232.03 111.38 234.72"/><polygon class="cl" points="82.95 571.65 76.99 571.65 76.35 497.07 76.35 493.69 78.77 495.3 79.65 498.2 82.95 504 82.95 571.65"/><path class="cm" d="M174.37,672.59s9.66-14.1,27.22-13.77a68.37,68.37,0,0,1,30.92,8.37v75.22h8.86v-87s-14.52-7.91-38.85-7.43-42,16.45-42,16.45l8.06,1.61,4.19,8.7Z" transform="translate(-89.8 -170.76)"/><polygon class="cn" points="151.57 459.7 151.57 476.78 153.02 476.12 153.02 456.8 151.57 459.7"/><polygon class="cn" points="64.43 488.05 64.43 456.8 66.68 457.61 64.43 488.05"/><path class="n" d="M160.51,664.45l5.64-1.85s20.94-14.09,35.2-14.09,40,8.45,40,8.45v-1.53a74.19,74.19,0,0,0-19.15-5.93,116.11,116.11,0,0,0-20.79-2c-11.36.32-22.72,5.79-25.86,7.24C169.45,657.61,160.51,664.45,160.51,664.45Z" transform="translate(-89.8 -170.76)"/><polygon class="cn" points="65.23 494.66 77.48 493.69 82.25 501.66 82.25 502.54 76.35 495.21 65.23 494.66"/><polygon class="n" points="75.46 497.23 76.84 553.45 76.35 497.07 75.46 497.23"/><polygon class="n" points="83.52 504.96 82.95 554.82 84 553.85 84 504.31 83.52 504.96"/><polygon class="n" points="141.58 497.23 142.23 560.62 143.19 498.93 141.58 497.23"/><polygon class="co" points="402.78 165.73 432 166.07 432 162.94 404.94 162.84 402.78 165.73"/><rect class="cp" x="151.57" y="565.01" width="72.32" height="6.64"/><polygon class="b" points="223.89 571.65 223.89 616.11 39.3 615.78 38.95 571.65 223.89 571.65"/><polygon class="n" points="109.85 490.12 109.85 526.55 111.78 488.05 109.85 490.12"/><polygon class="cq" points="171.91 554.01 171.91 554.82 199.27 555.14 198.6 554.01 171.91 554.01"/><polygon class="n" points="223.89 571.65 223.89 576 49.29 571.74 223.89 571.65"/><polygon class="cr" points="38.01 453.42 38.01 456.8 50.9 455.11 50.9 453.53 38.01 453.42"/><polygon class="n" points="82.95 571.65 82.95 616.11 85.21 571.74 82.95 571.65"/><polygon class="n" points="131.42 573.1 131.42 616.23 133.53 573.1 131.42 573.1"/><polygon class="n" points="180.88 574.95 182.84 574.95 180.88 616.46 180.88 574.95"/><polygon class="cr" points="223.89 576 223.89 616.11 222.28 575.96 223.89 576"/><polygon class="cr" points="364.03 567.3 364.03 617.39 365.48 617.35 364.03 567.3"/><polygon class="cr" points="350.07 499.05 351.46 544.11 351.46 500.86 350.07 499.05"/><polygon class="cr" points="157.05 353.56 157.05 408.97 158.86 408.97 157.05 353.56"/><polygon class="n" points="72.6 325.39 72.6 371.96 73.93 325.39 72.6 325.39"/><polygon class="cr" points="44.13 168 43.81 296.21 46.39 168 44.13 168"/><polygon class="cr" points="143.03 188.94 143.03 228.32 142.31 188.94 143.03 188.94"/><polygon class="cr" points="107.03 188.94 107.03 229.53 107.92 188.94 107.03 188.94"/><polygon class="cr" points="381.26 144.7 379.81 293.78 379.81 300.08 383.92 300.08 381.26 144.7"/><polygon class="cr" points="253.21 256.91 253.21 281.72 259.17 281.72 253.21 256.91"/><polygon class="cs" points="279.54 69.1 279.54 81.02 301.05 75.7 301.05 69.1 279.54 69.1"/><polygon class="n" points="182.84 328.18 182.84 418.13 185.56 328.25 182.84 328.18"/><polygon class="cr" points="242.9 332.58 242.9 419.56 244.51 336.16 242.9 332.58"/><polygon class="cr" points="359.36 328.27 359.36 422.01 362.61 315.12 359.36 328.27"/><polygon class="cr" points="268.83 325.37 340.51 325.37 338.7 328.18 263.68 328.91 261.26 325.37 268.83 325.37"/><polygon class="bx" points="76.35 293.8 175.25 293.8 182.84 288.12 68.62 288.12 76.35 293.8"/></svg>