<svg xmlns="http://www.w3.org/2000/svg" xmlns:xlink="http://www.w3.org/1999/xlink" viewBox="0 0 263.77885 535.48885"><defs><style>.fecea07f-7e64-420e-8024-bde28569c6b3{fill:#54aa3c;}.f3b1eebb-bcde-4383-a76c-a9088db61250{fill:#32701d;}.ed033397-58ec-4932-9385-df5b4ee6cc2b{fill:#1e3a3a;}.a56487e1-449c-4d72-af57-729cc7689631,.a8abbb51-db93-40aa-b124-845affa97132{fill:#3f6b6b;}.f6c304c8-bc93-41f0-8e31-589d778a1d89{fill:#d8c09e;}.ae400b3e-b95a-4a3a-afd6-9860c2a55c2f{fill:#49280d;}.b4c2e28b-88ec-4f7f-83fb-15a6da02734c{fill:#d0a863;}.aa91b775-915c-4391-a6a3-34341fc9fb1b{fill:#7a4718;}.bc0eb000-0a5e-4969-b9a5-805f3f01475c{fill:#448487;}.a337a6ce-f5d6-48cd-becd-6bdd60eb99eb{fill:#9b9d58;}.e091fbde-092a-402a-8e2d-40dc513abffd{opacity:0.1;}.bc24f738-accc-43de-8dad-fd65b702d7f6{fill:#ffe188;}.a93d4578-fc82-4ab1-bfad-cd1643e2badb,.ae587268-edd9-4c40-9720-3ef6cb47a6a4,.b2988f99-016f-4eaf-b899-2e3a861950bd{fill:none;}.b2988f99-016f-4eaf-b899-2e3a861950bd{stroke:#492c05;}.a56487e1-449c-4d72-af57-729cc7689631,.a93d4578-fc82-4ab1-bfad-cd1643e2badb,.ae587268-edd9-4c40-9720-3ef6cb47a6a4,.b2988f99-016f-4eaf-b899-2e3a861950bd{stroke-miterlimit:10;}.a6a95594-2830-4b90-82bd-53a047769b5c,.a6c672fc-8aee-4f3c-b02b-3df9272c7edd,.afa491a9-1e41-47fd-99a2-d60e8b9a362f,.b931abd0-f615-44ff-9a95-43963f1be373,.bb3063c0-464e-4c8c-b5dc-42a301a9444e,.e091cd85-e757-4f32-9ec7-f53e7d73961c,.e83426a7-e38c-496d-842e-ead2f107240f,.f5673d5d-9f8f-4db0-bdab-62d4d2558a24{opacity:0.3;}.e83426a7-e38c-496d-842e-ead2f107240f{fill:url(#fbe24142-18d9-433a-99ea-0926044725f7);}.abf36696-5a27-41d8-95a9-1335f7e5b979{fill:#b29b62;}.a56487e1-449c-4d72-af57-729cc7689631{stroke:#6b4b24;}.b777d651-c606-4e6c-82ce-cba8977ff931{fill:#d89b72;}.a2fbee1c-3930-41ab-8bbf-afeff320f09e{fill:#fafa9d;}.ac7a35e1-7715-4f85-8abb-03fa69f91144{fill:#93845d;}.b9ca685e-f7bc-46de-b99c-be1adc8c22f6{fill:#f7eda4;}.ad0c9415-81b0-48c9-81fb-4479ce656d8f{fill:#584f52;}.bb151bd6-1ea7-47fb-9afa-41e23ec3ba1b{fill:#607551;}.a25ff3c0-b908-458b-97a7-8cec696ac1d6,.a8dc319b-2066-456c-8027-fe5ce6d3eb86,.ac336475-a073-4553-95bf-83df1dc57cca,.ae9a7975-d239-4e4f-8da4-63ab15359106,.aebbff3d-6bd6-4e4b-9aeb-4166875f4380,.b3c0efa8-47e3-4bb3-99ba-9dd6798de815,.b7d44ab9-b968-4c1c-b56c-cd915f4fe859,.b88afe72-0b6e-41e0-b803-d6198a025151,.bafb2eaf-63c1-44c3-bb2b-7ae7c745e518,.e0158923-4bf4-4e83-bade-38d401462d80,.eca70418-3e1f-41c2-b53f-d826d1df2e82,.ef8d8036-268e-4bc9-b842-9f455d29ee5e,.f197ce66-ea6a-4d1d-96f6-6cc5757140d7,.fb32b48b-6aee-41ef-bcde-f0a7451a2f5b{opacity:0.2;}.e2d15f2d-3315-45bc-8ead-629e7c4aafa8{fill:#a9683c;}.e983c504-c999-4b24-a37c-ed9ac3c56390{fill:#198e42;}.f6e471f5-710b-4045-9065-1914edc48a71{fill:#f7d7a1;}.ae587268-edd9-4c40-9720-3ef6cb47a6a4{stroke:#fff;}.aa101fe1-529d-4bd1-b257-33fd8f1c083d{fill:#bcb257;}.b6c19c2b-9b77-4f51-a594-173ca60a7c56{fill:#976b29;}.a384bb26-a066-4118-a4d1-375ace4f0bf8{fill:#754517;}.f652bfcc-95e6-453e-b210-13dd6101d31d{fill:#705725;}.b13f272e-3857-4794-9a4a-83389f785389{fill:#eccc62;}.ffc7acce-2de8-4897-99db-ccced0bb651a{fill:#a47820;}.a7b995ea-a332-4282-bf77-69ef6f498973{fill:#995f19;}.bf2a1b7b-c205-458f-8b23-ad6f4d587791{fill:#fad882;}.a66d059c-4cc7-487a-95cd-95f02decdae5{fill:#f1cb6a;}.a03750dc-ac46-4e3b-ab87-76917f80ee73{fill:#9f6323;}.ff048bf5-b529-41f5-8b86-406c93eaecdb{fill:#aa6e27;}.a89869f5-500e-4547-89c9-77f06bd39bdf{fill:#fbdd86;}.b75a1eee-afde-4a92-846d-e7ab955c9827{fill:#a7752d;}.ef8d8036-268e-4bc9-b842-9f455d29ee5e{fill:url(#aa177ebd-134d-471e-92bf-2aced878c6f5);}.a605ab14-facb-423c-a54f-02c48003a03c,.b3566565-0336-4f56-9b64-4889f25f638b,.bb5c9533-f801-4571-86ab-17419ff3d677,.e8769640-b86d-4dc2-b2e7-5e6f9c4859d9,.f3007956-8bab-4985-a469-ae782949e855{opacity:0.4;}.e9847cf1-07d6-4559-b901-f8b54ddbe065{opacity:0.5;}.ac336475-a073-4553-95bf-83df1dc57cca{fill:url(#a8178051-c37a-4477-882f-5e053bcb47a3);}.a25ff3c0-b908-458b-97a7-8cec696ac1d6{fill:url(#e415dd60-08bb-4afb-aac8-7fa7da2d8c31);}.eca70418-3e1f-41c2-b53f-d826d1df2e82{fill:url(#a586e715-4191-49fd-addf-4bf72bdb06c1);}.b88afe72-0b6e-41e0-b803-d6198a025151{fill:url(#b747e144-43c8-4a39-9649-2bf9992b5d39);}.b3c0efa8-47e3-4bb3-99ba-9dd6798de815{fill:url(#fa57d81f-b213-4133-a250-e9981926ae23);}.e0158923-4bf4-4e83-bade-38d401462d80{fill:url(#afda237c-5bc5-4689-9645-445bc5acce9c);}.fb32b48b-6aee-41ef-bcde-f0a7451a2f5b{fill:url(#a9e55427-cfc5-42ff-bd6f-aca2a194eef2);}.a8dc319b-2066-456c-8027-fe5ce6d3eb86{fill:url(#e26ccbec-361c-49b8-8c03-7dafc307b25b);}.b931abd0-f615-44ff-9a95-43963f1be373{fill:url(#e854d3c9-f7f7-46e5-ace6-a472c3799565);}.f5673d5d-9f8f-4db0-bdab-62d4d2558a24{fill:url(#ace50109-8b24-4016-89b9-35564bd9243d);}.a6a95594-2830-4b90-82bd-53a047769b5c{fill:url(#bf18c3ed-3e86-487c-8e36-55871b591368);}.bb3063c0-464e-4c8c-b5dc-42a301a9444e{fill:url(#bd8e264c-4751-4e62-b233-4d74ea8f2c7d);}.afa491a9-1e41-47fd-99a2-d60e8b9a362f{fill:url(#e01883b9-0187-452a-a5df-48061643cce4);}.f3007956-8bab-4985-a469-ae782949e855{fill:url(#a5ea3299-1d37-4193-8507-471286715605);}.e8769640-b86d-4dc2-b2e7-5e6f9c4859d9{fill:url(#ec1f264c-41cc-44e2-9e00-5504688397b7);}.a605ab14-facb-423c-a54f-02c48003a03c{fill:url(#a790555b-32be-4595-8c83-1c940bbb2ca5);}.bb5c9533-f801-4571-86ab-17419ff3d677{fill:url(#e8a4f6ee-294f-43d4-becd-7fa5a2e98393);}.b7d44ab9-b968-4c1c-b56c-cd915f4fe859{fill:url(#fa6f766f-725d-45f5-8b7e-344339c31698);}.bafb2eaf-63c1-44c3-bb2b-7ae7c745e518{fill:url(#aa1ac7be-49df-4bb7-94c4-5eb636641222);}.eeaa229a-aa53-47e9-bfd6-7c4fe45d6760,.f22c0cda-c117-4e58-9610-fd7f0940b571,.f6a54c40-6fe7-448f-a374-30b3f92e6a5f{opacity:0.6;}.b86f7200-0cf2-44e3-b160-a05a15ec13ab{opacity:0.15;}.ae9a7975-d239-4e4f-8da4-63ab15359106{fill:url(#b7e468da-ceae-4c48-8457-e376e02aadaa);}.a909609d-18c5-4970-aedc-c497a9da6bb7{fill:url(#b01c20c5-deb5-412a-95bc-74ab35031873);}.bbf3df22-2607-4508-9f2b-ebc0c037291d{fill:url(#a9b55c1f-145d-46a2-937b-65308411cdd6);}.e650c88b-840c-4399-a2dc-f791d953028e{fill:url(#a7536fe4-699f-479a-9ea1-e5242c69a061);}.eeaa229a-aa53-47e9-bfd6-7c4fe45d6760{fill:url(#bcdbf3a6-805f-4193-89bf-4cfca56890d3);}.bd068b23-5762-423a-93e7-5ef50c5e30e4{fill:url(#bf220475-7d63-4aa7-a6c3-f85bb6dd8ea8);}.f6a54c40-6fe7-448f-a374-30b3f92e6a5f{fill:url(#a51e7f0e-3ea9-4a1e-9212-8b8d2ead75c2);}.a6c672fc-8aee-4f3c-b02b-3df9272c7edd{fill:url(#b3a2da82-09d4-4695-b506-4a7ffc8f7c5c);}.aebbff3d-6bd6-4e4b-9aeb-4166875f4380{fill:url(#b344c91a-bbad-4597-957b-396a4e61158f);}.a93d4578-fc82-4ab1-bfad-cd1643e2badb{stroke:#000;}</style><linearGradient id="fbe24142-18d9-433a-99ea-0926044725f7" x1="83.92624" y1="514.99225" x2="84.91976" y2="514.99225" gradientUnits="userSpaceOnUse"><stop offset="0" stop-color="#050505" stop-opacity="0"/><stop offset="1"/></linearGradient><linearGradient id="aa177ebd-134d-471e-92bf-2aced878c6f5" x1="251.2856" y1="248.63206" x2="281.36608" y2="248.63206" gradientUnits="userSpaceOnUse"><stop offset="0" stop-color="#050505" stop-opacity="0.4"/><stop offset="1"/></linearGradient><linearGradient id="a8178051-c37a-4477-882f-5e053bcb47a3" x1="75.20119" y1="159.88558" x2="82.99312" y2="159.88558" xlink:href="#aa177ebd-134d-471e-92bf-2aced878c6f5"/><linearGradient id="e415dd60-08bb-4afb-aac8-7fa7da2d8c31" x1="86.67768" y1="159.5131" x2="117.36889" y2="159.5131" xlink:href="#aa177ebd-134d-471e-92bf-2aced878c6f5"/><linearGradient id="a586e715-4191-49fd-addf-4bf72bdb06c1" x1="86.67768" y1="185.15399" x2="117.60379" y2="185.15399" xlink:href="#aa177ebd-134d-471e-92bf-2aced878c6f5"/><linearGradient id="b747e144-43c8-4a39-9649-2bf9992b5d39" x1="86.67768" y1="210.20092" x2="117.60379" y2="210.20092" xlink:href="#aa177ebd-134d-471e-92bf-2aced878c6f5"/><linearGradient id="fa57d81f-b213-4133-a250-e9981926ae23" x1="87.2817" y1="241.35857" x2="117.60379" y2="241.35857" xlink:href="#fbe24142-18d9-433a-99ea-0926044725f7"/><linearGradient id="afda237c-5bc5-4689-9645-445bc5acce9c" x1="87.2817" y1="270.03972" x2="117.60379" y2="270.03972" xlink:href="#fbe24142-18d9-433a-99ea-0926044725f7"/><linearGradient id="a9e55427-cfc5-42ff-bd6f-aca2a194eef2" x1="86.55687" y1="297.44739" x2="117.32191" y2="297.44739" xlink:href="#fbe24142-18d9-433a-99ea-0926044725f7"/><linearGradient id="e26ccbec-361c-49b8-8c03-7dafc307b25b" x1="106.1273" y1="323.47586" x2="118.69104" y2="323.47586" xlink:href="#fbe24142-18d9-433a-99ea-0926044725f7"/><linearGradient id="e854d3c9-f7f7-46e5-ace6-a472c3799565" x1="241.54985" y1="284.51621" x2="245.174" y2="284.51621" xlink:href="#fbe24142-18d9-433a-99ea-0926044725f7"/><linearGradient id="ace50109-8b24-4016-89b9-35564bd9243d" x1="164.43591" y1="225.22102" x2="169.18758" y2="225.22102" xlink:href="#fbe24142-18d9-433a-99ea-0926044725f7"/><linearGradient id="bf18c3ed-3e86-487c-8e36-55871b591368" x1="227.25357" y1="220.52323" x2="232.97268" y2="220.52323" xlink:href="#fbe24142-18d9-433a-99ea-0926044725f7"/><linearGradient id="bd8e264c-4751-4e62-b233-4d74ea8f2c7d" x1="164.03323" y1="272.65717" x2="169.18758" y2="272.65717" xlink:href="#fbe24142-18d9-433a-99ea-0926044725f7"/><linearGradient id="e01883b9-0187-452a-a5df-48061643cce4" x1="232.97268" y1="271.882" x2="235.46932" y2="271.882" xlink:href="#fbe24142-18d9-433a-99ea-0926044725f7"/><linearGradient id="a5ea3299-1d37-4193-8507-471286715605" x1="116.83869" y1="469.32791" x2="120.06016" y2="469.32791" xlink:href="#fbe24142-18d9-433a-99ea-0926044725f7"/><linearGradient id="ec1f264c-41cc-44e2-9e00-5504688397b7" x1="134.81852" y1="517.00567" x2="134.81852" y2="508.17859" xlink:href="#fbe24142-18d9-433a-99ea-0926044725f7"/><linearGradient id="a790555b-32be-4595-8c83-1c940bbb2ca5" x1="177.64394" y1="514.83118" x2="177.64394" y2="508.17859" xlink:href="#fbe24142-18d9-433a-99ea-0926044725f7"/><linearGradient id="e8a4f6ee-294f-43d4-becd-7fa5a2e98393" x1="221.79821" y1="530.77745" x2="221.79821" y2="510.11978" xlink:href="#fbe24142-18d9-433a-99ea-0926044725f7"/><linearGradient id="fa6f766f-725d-45f5-8b7e-344339c31698" x1="88.89244" y1="378.6838" x2="120.06016" y2="378.6838" xlink:href="#fbe24142-18d9-433a-99ea-0926044725f7"/><linearGradient id="aa1ac7be-49df-4bb7-94c4-5eb636641222" x1="161.87799" y1="66.4965" x2="176.96842" y2="66.4965" xlink:href="#fbe24142-18d9-433a-99ea-0926044725f7"/><linearGradient id="b7e468da-ceae-4c48-8457-e376e02aadaa" x1="45.06031" y1="191.66237" x2="32.85899" y2="191.66237" xlink:href="#aa177ebd-134d-471e-92bf-2aced878c6f5"/><linearGradient id="b01c20c5-deb5-412a-95bc-74ab35031873" x1="50.57507" y1="206.44583" x2="26.87914" y2="206.44583" xlink:href="#aa177ebd-134d-471e-92bf-2aced878c6f5"/><linearGradient id="a9b55c1f-145d-46a2-937b-65308411cdd6" x1="46.75158" y1="219.79486" x2="27.24156" y2="219.79486" xlink:href="#aa177ebd-134d-471e-92bf-2aced878c6f5"/><linearGradient id="a7536fe4-699f-479a-9ea1-e5242c69a061" x1="46.75158" y1="223.26801" x2="28.208" y2="223.26801" xlink:href="#aa177ebd-134d-471e-92bf-2aced878c6f5"/><linearGradient id="bcdbf3a6-805f-4193-89bf-4cfca56890d3" x1="40.1073" y1="234.57839" x2="29.65766" y2="234.57839" xlink:href="#fbe24142-18d9-433a-99ea-0926044725f7"/><linearGradient id="bf220475-7d63-4aa7-a6c3-f85bb6dd8ea8" x1="48.82836" y1="247.16031" x2="22.34895" y2="247.16031" xlink:href="#aa177ebd-134d-471e-92bf-2aced878c6f5"/><linearGradient id="a51e7f0e-3ea9-4a1e-9212-8b8d2ead75c2" x1="43.48985" y1="298.83161" x2="30.6241" y2="298.83161" xlink:href="#fbe24142-18d9-433a-99ea-0926044725f7"/><linearGradient id="b3a2da82-09d4-4695-b506-4a7ffc8f7c5c" x1="250.0109" y1="635.55075" x2="266.4421" y2="635.55075" xlink:href="#fbe24142-18d9-433a-99ea-0926044725f7"/><linearGradient id="b344c91a-bbad-4597-957b-396a4e61158f" x1="23.73821" y1="530.60608" x2="50.10057" y2="530.60608" xlink:href="#fbe24142-18d9-433a-99ea-0926044725f7"/></defs><g id="acf75b0c-adbb-452b-90da-630b81a24c0a" data-name="Слой 8"><ellipse class="fecea07f-7e64-420e-8024-bde28569c6b3" cx="216.46265" cy="177.90568" rx="12.4832" ry="13.44964"/><ellipse class="fecea07f-7e64-420e-8024-bde28569c6b3" cx="235.54986" cy="182.18434" rx="10.14763" ry="11.67783"/><ellipse class="fecea07f-7e64-420e-8024-bde28569c6b3" cx="67.40926" cy="64.13316" rx="16.75164" ry="15.01004"/><ellipse class="fecea07f-7e64-420e-8024-bde28569c6b3" cx="89.35049" cy="55.25391" rx="10.25334" ry="13.69695"/><circle class="f3b1eebb-bcde-4383-a76c-a9088db61250" cx="122.1843" cy="61.97205" r="14.84893"/></g><g id="a9789899-54cc-4f6d-8310-749b0b962cc8" data-name="Слой 6"><polygon class="ed033397-58ec-4932-9385-df5b4ee6cc2b" points="23.013 436.187 23.851 525.744 54.302 525.744 54.076 437.637 23.013 436.187"/><polyline class="a8abbb51-db93-40aa-b124-845affa97132" points="4.387 134.289 7.913 141.543 11.174 151.812 13.107 156.644 14.799 157.731 18.423 157.731 19.188 159.513 21.262 159.513 21.262 169.993 21.262 178.721 21.262 197.778 21.262 205.57 20.557 205.57 20.557 214.147 20.919 216.241 20.557 245.798 20.436 275.093 20.919 306.362 21.262 336.14 22.047 365.395 22.53 405.543 23.738 445.046 25.518 440.884 52.409 441.1 50.255 415.167 53.033 414.14 50.919 404.476 50.255 389.595 52.309 384.321 54.101 371.355 53.778 306.684 51.846 267.875 55.148 214.268 55.148 162.886 51.915 134.289 4.387 134.289"/><polygon class="f6c304c8-bc93-41f0-8e31-589d778a1d89" points="52.068 127.349 0 128.074 4.387 134.289 51.915 134.289 52.068 127.349"/><polygon class="ae400b3e-b95a-4a3a-afd6-9860c2a55c2f" points="18.423 157.731 18.423 168.644 18.423 183.674 17.698 212.053 17.054 249.261 17.738 285.583 18.101 315.704 18.423 344.697 18.987 384.08 19.389 424.751 19.389 432.885 18.221 436.187 21.725 438.281 23.398 433.923 22.089 368.858 21.564 331.892 21.161 300.386 20.473 266.093 20.557 239.114 20.919 212.859 21.262 197.778 21.725 181.127 21.406 156.719 18.342 156.719 18.423 157.731"/></g><g id="bd4db86b-b8f5-44ec-8900-6fd9d902264e" data-name="Слой 7"><path class="b4c2e28b-88ec-4f7f-83fb-15a6da02734c" d="M214.70849,516.22883V656.02675H413.43292L411.98326,534.08s1.69127-6.76509,4.5906-7.73153,5.07381-4.99328,5.07381-4.99328L353.634,517.88335H214.70849" transform="translate(-164.60792 -120.5585)"/><path class="aa91b775-915c-4391-a6a3-34341fc9fb1b" d="M233.57971,656.02675H266.4421V625.685s-4.99328-10.63085-16.4312-10.63085-16.43119,12.059-16.43119,12.059v28.91366" transform="translate(-164.60792 -120.5585)"/><rect class="bc0eb000-0a5e-4969-b9a5-805f3f01475c" x="136.97288" y="434.73738" width="67.16765" height="32.05363"/><polygon class="a337a6ce-f5d6-48cd-becd-6bdd60eb99eb" points="212.516 510.12 212.315 535.468 231.281 535.468 231.04 510.12 212.516 510.12"/><polygon class="b4c2e28b-88ec-4f7f-83fb-15a6da02734c" points="136.973 446.737 204.141 447.301 204.141 450.764 154.693 450.419 136.973 450.296 136.973 446.737"/><rect class="b4c2e28b-88ec-4f7f-83fb-15a6da02734c" x="153.57016" y="450.41927" width="1.1232" height="16.37174"/><polygon class="b4c2e28b-88ec-4f7f-83fb-15a6da02734c" points="185.376 450.633 185.376 466.791 186.664 466.791 186.664 450.642 185.376 450.633"/><rect class="e091fbde-092a-402a-8e2d-40dc513abffd" x="136.97288" y="466.79101" width="67.16765" height="1.651"/><rect class="bc24f738-accc-43de-8dad-fd65b702d7f6" x="133.02986" y="468.44201" width="73.84891" height="2.17449"/><polyline class="b2988f99-016f-4eaf-b899-2e3a861950bd" points="85.403 494.496 85.403 535.468 85.403 494.496"/><polygon class="e83426a7-e38c-496d-842e-ead2f107240f" points="83.926 535.479 83.926 494.632 84.92 494.506 84.92 535.479 83.926 535.479"/><polygon class="bc24f738-accc-43de-8dad-fd65b702d7f6" points="46.211 468.442 50.101 468.442 120.06 468.442 120.06 470.617 46.211 470.617 46.211 468.442"/><polygon class="abf36696-5a27-41d8-95a9-1335f7e5b979" points="50.101 467.234 46.211 468.442 50.101 468.442 50.101 467.234"/><rect class="aa91b775-915c-4391-a6a3-34341fc9fb1b" x="64.69114" y="461.96953" width="12.92615" height="1.39867"/><rect class="aa91b775-915c-4391-a6a3-34341fc9fb1b" x="93.61858" y="461.96953" width="13.11275" height="1.39867"/><rect class="aa91b775-915c-4391-a6a3-34341fc9fb1b" x="63.57794" y="436.91187" width="43.15338" height="1.14765"/><rect class="bc0eb000-0a5e-4969-b9a5-805f3f01475c" x="66.98547" y="453.21412" width="8.59326" height="8.7554"/><rect class="bc0eb000-0a5e-4969-b9a5-805f3f01475c" x="81.3346" y="453.21412" width="9.07967" height="10.9997"/><rect class="bc0eb000-0a5e-4969-b9a5-805f3f01475c" x="95.44052" y="453.21412" width="9.07967" height="8.7554"/><rect class="bc0eb000-0a5e-4969-b9a5-805f3f01475c" x="95.7648" y="440.4053" width="8.43113" height="8.91754"/><rect class="bc0eb000-0a5e-4969-b9a5-805f3f01475c" x="81.3346" y="438.05952" width="9.07967" height="12.23614"/><rect class="bc0eb000-0a5e-4969-b9a5-805f3f01475c" x="66.58013" y="440.4053" width="9.40395" height="9.89036"/><polygon class="a337a6ce-f5d6-48cd-becd-6bdd60eb99eb" points="50.101 535.468 50.101 525.744 23.738 525.744 23.738 535.489 50.101 535.468"/><circle class="a56487e1-449c-4d72-af57-729cc7689631" cx="66.58013" cy="421.69039" r="6.60489"/><circle class="a56487e1-449c-4d72-af57-729cc7689631" cx="86.55687" cy="421.69043" r="6.60489"/><circle class="a56487e1-449c-4d72-af57-729cc7689631" cx="104.5202" cy="421.69043" r="6.60489"/></g><g id="f168d111-d6f8-457c-aaaf-ed988c1585c7" data-name="Слой 5"><polyline class="b777d651-c606-4e6c-82ce-cba8977ff931" points="110.476 128.98 228.946 128.98 217.63 136.59 215.979 182.979 214.248 182.979 214.248 186 254.597 186 250.731 189.986 249.523 195.302 249.402 238.268 249.644 261.14 249.644 277.691 249.644 298.228 249.402 334.469 249.161 380.737 249.523 398.133 204.825 398.133 119.416 397.529 110.476 128.98"/><rect class="a337a6ce-f5d6-48cd-becd-6bdd60eb99eb" x="143.45609" y="151.99298" width="20.17446" height="20.91942"/><rect class="a337a6ce-f5d6-48cd-becd-6bdd60eb99eb" x="194.19424" y="153.50305" width="6.64428" height="21.906"/><polygon class="a337a6ce-f5d6-48cd-becd-6bdd60eb99eb" points="135.362 215.436 169.188 215.838 169.188 234.604 135.362 234.604 135.362 215.436"/><polygon class="a337a6ce-f5d6-48cd-becd-6bdd60eb99eb" points="134.396 202.792 134.396 211.731 169.713 211.731 169.832 202.792 134.396 202.792"/><polygon class="a337a6ce-f5d6-48cd-becd-6bdd60eb99eb" points="197.698 202.792 198.342 211.731 232.973 211.731 232.973 204.845 235.55 202.792 197.698 202.792"/><polygon class="a337a6ce-f5d6-48cd-becd-6bdd60eb99eb" points="198.986 214.711 232.973 214.711 232.731 234.201 199.63 233.557 198.986 214.711"/><polygon class="a337a6ce-f5d6-48cd-becd-6bdd60eb99eb" points="131.379 256.107 131.899 263.194 169.027 263.194 169.188 257.718 169.671 254.818 131.379 256.107"/><polygon class="a2fbee1c-3930-41ab-8bbf-afeff320f09e" points="205.268 123.704 202.852 13.047 176.968 4.562 176.968 123.704 205.268 123.704"/><polygon class="a337a6ce-f5d6-48cd-becd-6bdd60eb99eb" points="131.899 266.738 169.027 266.738 169.027 285.181 131.899 285.261 131.899 266.738"/><polygon class="a337a6ce-f5d6-48cd-becd-6bdd60eb99eb" points="198.1 257.677 198.986 263.999 235.394 263.999 235.469 256.107 197.134 256.107 198.1 257.677"/><polygon class="a337a6ce-f5d6-48cd-becd-6bdd60eb99eb" points="198.986 267.543 235.337 267.543 235.067 284.516 198.986 284.516 198.986 267.543"/><polyline class="a337a6ce-f5d6-48cd-becd-6bdd60eb99eb" points="197.456 310.872 197.456 317.798 234.825 317.798 234.825 311.677 197.456 310.872"/><polygon class="a337a6ce-f5d6-48cd-becd-6bdd60eb99eb" points="197.456 321.543 234.221 321.543 234.221 340.268 197.134 339.523 197.456 321.543"/><polyline class="a337a6ce-f5d6-48cd-becd-6bdd60eb99eb" points="133.03 320.778 150.02 320.778 150.02 338.818 133.912 338.818 133.03 320.778"/><polyline class="a337a6ce-f5d6-48cd-becd-6bdd60eb99eb" points="152.76 320.536 168.624 320.536 168.624 338.335 153.241 338.335 152.76 320.536"/><polygon class="a337a6ce-f5d6-48cd-becd-6bdd60eb99eb" points="133.03 317.798 169.188 317.798 169.671 309.261 132.221 309.583 133.03 317.798"/><path class="a337a6ce-f5d6-48cd-becd-6bdd60eb99eb" d="M298.27879,332.28961" transform="translate(-164.60792 -120.5585)"/><polygon class="ac7a35e1-7715-4f85-8abb-03fa69f91144" points="135.362 215.436 134.396 211.731 169.713 211.731 169.188 215.838 135.362 215.436"/><polygon class="ac7a35e1-7715-4f85-8abb-03fa69f91144" points="198.986 214.711 198.342 211.731 232.973 211.731 232.973 214.711 198.986 214.711"/><polygon class="ac7a35e1-7715-4f85-8abb-03fa69f91144" points="198.986 263.999 198.986 267.543 235.337 267.543 235.394 263.999 198.986 263.999"/><rect class="ac7a35e1-7715-4f85-8abb-03fa69f91144" x="131.89906" y="263.1941" width="37.12744" height="3.54362"/><polygon class="ac7a35e1-7715-4f85-8abb-03fa69f91144" points="133.03 317.798 169.188 317.798 168.624 320.536 152.76 320.536 153.241 338.335 150.02 338.818 150.02 320.778 133.03 320.778 133.03 317.798"/><polygon class="ac7a35e1-7715-4f85-8abb-03fa69f91144" points="197.456 321.543 197.456 317.798 234.825 317.798 234.221 321.543 218.838 321.543 218.838 340.268 214.852 340.268 214.852 321.543 197.456 321.543"/><path class="b9ca685e-f7bc-46de-b99c-be1adc8c22f6" d="M275.08421,249.5381s-4.22818-4.46979-.84564-4.8322,23.39922-.443,23.39922-.443H403.86247s3.26174-.04026,3.38255,2.13423a3.49377,3.49377,0,0,1-2.05369,3.14093H275.08421" transform="translate(-164.60792 -120.5585)"/><polygon class="ad0c9415-81b0-48c9-81fb-4479ce656d8f" points="188.839 18.926 194.396 20.295 194.396 28.562 188.839 27.624 188.839 18.926"/><polygon class="ad0c9415-81b0-48c9-81fb-4479ce656d8f" points="190.288 64.59 195.604 65.436 195.604 73.832 190.288 73.047 190.288 64.59"/><polygon class="ad0c9415-81b0-48c9-81fb-4479ce656d8f" points="190.91 89.245 196.226 90.09 196.226 98.486 190.91 97.701 190.91 89.245"/><polygon class="bb151bd6-1ea7-47fb-9afa-41e23ec3ba1b" points="176.968 123.704 133.03 123.704 134.315 15.544 176.968 4.562 176.968 123.704"/><polygon class="f197ce66-ea6a-4d1d-96f6-6cc5757140d7" points="145.147 370.831 145.147 397.992 222.1 398.009 222.1 370.831 145.147 370.831"/><polygon class="e2d15f2d-3315-45bc-8ead-629e7c4aafa8" points="117.886 15.141 176.968 0 216.463 14.416 216.463 15.544 202.906 15.544 202.852 13.047 176.968 4.562 134.315 15.544 134.269 19.412 117.886 15.141"/><ellipse class="e983c504-c999-4b24-a37c-ed9ac3c56390" cx="163.53176" cy="390.28109" rx="11.87806" ry="10.74697"/><path class="f6e471f5-710b-4045-9065-1914edc48a71" d="M382.23836,257.14882l.36241,44.6979,41.557.24161s4.16777.906,4.22817,2.4161-3.08053,2.05369-3.08053,2.05369H378.85581V303.538h1.73154Z" transform="translate(-164.60792 -120.5585)"/><ellipse class="e983c504-c999-4b24-a37c-ed9ac3c56390" cx="181.72111" cy="392.96901" rx="11.87806" ry="10.74697"/><ellipse class="e983c504-c999-4b24-a37c-ed9ac3c56390" cx="194.2176" cy="388.31801" rx="5.93903" ry="10.74697"/><polyline class="ae587268-edd9-4c40-9720-3ef6cb47a6a4" points="148.085 398.131 148.407 368.091 223.95 368.166 223.95 368.166"/><line class="ae587268-edd9-4c40-9720-3ef6cb47a6a4" x1="224.11587" y1="398.13082" x2="223.95027" y2="368.16596"/><line class="ae587268-edd9-4c40-9720-3ef6cb47a6a4" x1="219.44028" y1="398.13082" x2="219.44028" y2="368.16596"/><line class="ae587268-edd9-4c40-9720-3ef6cb47a6a4" x1="213.87213" y1="398.13082" x2="214.28593" y2="368.16596"/><line class="ae587268-edd9-4c40-9720-3ef6cb47a6a4" x1="208.88997" y1="398.13082" x2="208.88997" y2="368.16596"/><line class="ae587268-edd9-4c40-9720-3ef6cb47a6a4" x1="202.83862" y1="398.13082" x2="203.2524" y2="368.09061"/><line class="ae587268-edd9-4c40-9720-3ef6cb47a6a4" x1="198.25912" y1="398.13082" x2="198.74234" y2="368.09061"/><line class="ae587268-edd9-4c40-9720-3ef6cb47a6a4" x1="151.78941" y1="398.13082" x2="151.78941" y2="368.09061"/><line class="ae587268-edd9-4c40-9720-3ef6cb47a6a4" x1="156.21894" y1="398.13082" x2="156.21894" y2="368.16596"/><line class="ae587268-edd9-4c40-9720-3ef6cb47a6a4" x1="162.01758" y1="398.13082" x2="162.01758" y2="368.09061"/><line class="ae587268-edd9-4c40-9720-3ef6cb47a6a4" x1="166.93032" y1="398.13082" x2="167.25247" y2="368.16596"/><line class="ae587268-edd9-4c40-9720-3ef6cb47a6a4" x1="172.08468" y1="398.13082" x2="172.48736" y2="368.16596"/><line class="ae587268-edd9-4c40-9720-3ef6cb47a6a4" x1="177.88332" y1="398.13082" x2="177.88332" y2="368.16596"/><line class="ae587268-edd9-4c40-9720-3ef6cb47a6a4" x1="182.8766" y1="398.13082" x2="182.8766" y2="368.16596"/><line class="ae587268-edd9-4c40-9720-3ef6cb47a6a4" x1="187.62827" y1="398.13082" x2="187.62827" y2="368.16596"/><line class="ae587268-edd9-4c40-9720-3ef6cb47a6a4" x1="193.42691" y1="398.13082" x2="193.8296" y2="368.16596"/></g><g id="ecd721ba-60a6-497b-9d7d-43994839efe9" data-name="Слой 4"><path class="b4c2e28b-88ec-4f7f-83fb-15a6da02734c" d="M214.33433,407.26933l.28691,3.54064h.72484l-.72484,14.947-.56533,2.85743v1.72208l1.77339.25442.69463,33.13787.39261,13.2297-.78523,10.68553v4.26149l-.64508,13.54773-.87558,6.343s-2.635.52409-2.88873,1.64067a5.13531,5.13531,0,0,0,1.26846,4.48992c1.14764.94631,7.61072.56531,7.61072.56531H294.715A1.40714,1.40714,0,0,0,295.9835,517.22c.0604-1.14487-.604-2.735-1.93289-2.9258a19.942,19.942,0,0,1-4.28858-1.84452l.06041-29.894-.72484-29.91524h-6.04025l-.84564-44.94707Z" transform="translate(-164.60792 -120.5585)"/><polygon class="b4c2e28b-88ec-4f7f-83fb-15a6da02734c" points="49.913 195.302 50.879 196.993 49.913 225.986 49.268 227.597 49.913 228.563 48.382 254.335 49.027 256.107 49.631 260.617 49.726 286.711 117.604 287.114 117.604 258.523 118.144 195.785 49.913 195.302"/><polygon class="b4c2e28b-88ec-4f7f-83fb-15a6da02734c" points="51.825 145.228 50.678 176.456 51.342 177.664 51.825 192.523 49.913 192.523 49.913 195.302 118.144 195.785 117.369 145.228 51.825 145.228"/><path class="b4c2e28b-88ec-4f7f-83fb-15a6da02734c" d="M217.883,204.02477l-.63422,1.63087-.81544,60.13075h65.54349l-.61073-9.24159s-.84564.1208-2.53691-1.63087a32.35859,32.35859,0,0,1-3.94495-5.7344c-.35536-.66494-1.49128-1.45351-1.67249-2.54075a1.55734,1.55734,0,0,1,1.38926-1.93288c1.02684-.24161,23.23485-.443,23.23485-.443l.27281-39.62408Z" transform="translate(-164.60792 -120.5585)"/><polyline class="ae587268-edd9-4c40-9720-3ef6cb47a6a4" points="52.168 63.141 52.49 33.101 128.033 33.176 133.228 33.181"/><line class="ae587268-edd9-4c40-9720-3ef6cb47a6a4" x1="128.19882" y1="63.14081" x2="128.03322" y2="33.17596"/><line class="ae587268-edd9-4c40-9720-3ef6cb47a6a4" x1="123.52324" y1="63.14081" x2="123.52324" y2="33.17596"/><line class="ae587268-edd9-4c40-9720-3ef6cb47a6a4" x1="117.95509" y1="63.14081" x2="118.36889" y2="33.17596"/><line class="ae587268-edd9-4c40-9720-3ef6cb47a6a4" x1="112.97293" y1="63.14081" x2="112.97293" y2="33.17596"/><line class="ae587268-edd9-4c40-9720-3ef6cb47a6a4" x1="106.92158" y1="63.14081" x2="107.33535" y2="33.1006"/><line class="ae587268-edd9-4c40-9720-3ef6cb47a6a4" x1="102.34208" y1="63.14081" x2="102.8253" y2="33.1006"/><line class="ae587268-edd9-4c40-9720-3ef6cb47a6a4" x1="55.87237" y1="63.14081" x2="55.87237" y2="33.1006"/><line class="ae587268-edd9-4c40-9720-3ef6cb47a6a4" x1="60.30189" y1="63.14081" x2="60.30189" y2="33.17596"/><line class="ae587268-edd9-4c40-9720-3ef6cb47a6a4" x1="66.10054" y1="63.14081" x2="66.10054" y2="33.1006"/><line class="ae587268-edd9-4c40-9720-3ef6cb47a6a4" x1="71.01328" y1="63.14081" x2="71.33543" y2="33.17596"/><line class="ae587268-edd9-4c40-9720-3ef6cb47a6a4" x1="76.16763" y1="63.14081" x2="76.57032" y2="33.17596"/><line class="ae587268-edd9-4c40-9720-3ef6cb47a6a4" x1="81.96628" y1="63.14081" x2="81.96628" y2="33.17596"/><line class="ae587268-edd9-4c40-9720-3ef6cb47a6a4" x1="86.95956" y1="63.14081" x2="86.95956" y2="33.17596"/><line class="ae587268-edd9-4c40-9720-3ef6cb47a6a4" x1="91.71122" y1="63.14081" x2="91.71122" y2="33.17596"/><line class="ae587268-edd9-4c40-9720-3ef6cb47a6a4" x1="97.50987" y1="63.14081" x2="97.91255" y2="33.17596"/><polygon class="b4c2e28b-88ec-4f7f-83fb-15a6da02734c" points="133.687 62.489 36.141 63.543 39.121 68.376 133.687 68.376 133.687 62.489"/><path class="b4c2e28b-88ec-4f7f-83fb-15a6da02734c" d="M203.72865,188.9342a39.95492,39.95492,0,0,0,7.81206,7.208,44.23872,44.23872,0,0,1,6.16107,4.7718v3.72482h80.40687l.18662-15.70466Z" transform="translate(-164.60792 -120.5585)"/><polygon class="aa101fe1-529d-4bd1-b257-33fd8f1c083d" points="59.255 89.919 74.96 89.919 74.557 110.617 59.255 110.617 59.255 89.919"/><rect class="b6c19c2b-9b77-4f51-a594-173ca60a7c56" x="90.42264" y="95.51659" width="14.97984" height="15.10064"/><polygon class="a384bb26-a066-4118-a4d1-375ace4f0bf8" points="91.147 151.993 91.147 172.409 107.577 172.409 107.577 151.812 91.147 151.993"/><rect class="f652bfcc-95e6-453e-b210-13dd6101d31d" x="59.81867" y="152.85875" width="10.87246" height="20.05365"/><polygon class="b13f272e-3857-4794-9a4a-83389f785389" points="71.698 173.315 75.382 173.315 75.382 151.51 70.691 157.973 70.691 172.912 71.698 173.315"/><polygon class="ffc7acce-2de8-4897-99db-ccced0bb651a" points="59.98 203.275 73.631 203.275 73.188 225.02 59.255 225.02 59.98 203.275"/><polygon class="a7b995ea-a332-4282-bf77-69ef6f498973" points="90.02 202.469 89.698 224.375 111.604 224.375 111.604 202.228 90.02 202.469"/><polygon class="bf2a1b7b-c205-458f-8b23-ad6f4d587791" points="82.933 198.523 82.933 225.986 86.396 225.986 86.396 197.476 82.933 197.476 82.933 198.523"/><polygon class="a66d059c-4cc7-487a-95cd-95f02decdae5" points="73.631 203.275 73.188 225.02 77.456 225.664 77.859 202.228 73.631 203.275"/><polygon class="a03750dc-ac46-4e3b-ab87-76917f80ee73" points="60.463 265.369 60.463 284.375 60.463 284.818 71.416 284.818 71.577 265.369 60.463 265.369"/><polygon class="ff048bf5-b529-41f5-8b86-406c93eaecdb" points="99.121 264.644 108.866 264.644 108.664 284.375 99.121 284.375 99.121 264.644"/><polygon class="a89869f5-500e-4547-89c9-77f06bd39bdf" points="72.06 264.644 71.416 284.818 76.087 284.818 76.087 262.308 71.758 262.308 72.06 264.644"/><polygon class="a89869f5-500e-4547-89c9-77f06bd39bdf" points="54.342 285.261 54.342 286.738 114.342 287.094 114.342 285.664 54.342 285.261"/><rect class="aa91b775-915c-4391-a6a3-34341fc9fb1b" x="60.46297" y="320.15372" width="15.06037" height="17.53688"/><polygon class="a89869f5-500e-4547-89c9-77f06bd39bdf" points="80.839 338.093 80.839 314.875 60.463 315.166 60.463 320.154 75.523 320.154 75.523 338.093 80.839 338.093"/><polygon class="a89869f5-500e-4547-89c9-77f06bd39bdf" points="90.423 321.181 102.262 321.181 102.262 337.691 106.127 337.691 106.127 314.899 90.423 314.899 90.423 321.181"/><polygon class="b75a1eee-afde-4a92-846d-e7ab955c9827" points="95.819 337.691 90.02 337.691 90.423 321.181 102.262 321.181 102.262 337.691 95.819 337.691"/><path class="bc24f738-accc-43de-8dad-fd65b702d7f6" d="M216.70229,517.92682l35.4193.38035,91.24876.38475h71.74007s6.16015.84564,5.90348,3.34228-8.47021,2.59731-8.47021,2.59731l-121.79127-.906-76.23185-.40269v-5.396Z" transform="translate(-164.60792 -120.5585)"/></g><g id="a35f06b4-afd4-4b0e-a02e-aefd2c477c54" data-name="Слой 3"><rect class="e091fbde-092a-402a-8e2d-40dc513abffd" x="56.5972" y="113.99977" width="25.9731" height="28.14759"/><path class="ef8d8036-268e-4bc9-b842-9f455d29ee5e" d="M251.2856,234.55827v28.14759h30.08048V256.5448s-3.26174-1.69127-6.28187-7.0067-.84564-4.8322-.84564-4.8322h4.46979l.12081-10.14763Z" transform="translate(-164.60792 -120.5585)"/><path class="f197ce66-ea6a-4d1d-96f6-6cc5757140d7" d="M272.82918,235.08175s-.38416,7.35186.65356,10.38425l2.16523-.7601h3.06039l.12081-10.14763h-5.83892Z" transform="translate(-164.60792 -120.5585)"/><rect class="b3566565-0336-4f56-9b64-4889f25f638b" x="51.8254" y="145.2279" width="31.16772" height="1.38926"/><polygon class="b3566565-0336-4f56-9b64-4889f25f638b" points="86.013 145.228 116.758 145.228 116.758 145.923 86.013 146.194 86.013 145.228"/><polygon class="e9847cf1-07d6-4559-b901-f8b54ddbe065" points="90.423 151.993 90.423 172.409 91.449 172.409 91.449 153.261 98.335 151.993 90.423 151.993"/><polygon class="e9847cf1-07d6-4559-b901-f8b54ddbe065" points="105.886 151.993 108 151.993 108 172.409 106.943 172.409 106.943 152.959 105.886 151.993"/><polygon class="ac336475-a073-4553-95bf-83df1dc57cca" points="75.201 149.879 75.201 173.154 82.57 173.154 82.993 146.617 75.201 146.617 75.201 149.879"/><polygon class="e091fbde-092a-402a-8e2d-40dc513abffd" points="55.953 149.637 55.953 173.154 59.658 173.154 59.658 152.617 75.201 152.617 75.201 149.879 55.953 149.637"/><polygon class="a25ff3c0-b908-458b-97a7-8cec696ac1d6" points="86.678 146.194 86.678 158.376 86.678 173.154 117.369 173.154 117.369 145.872 86.678 146.194"/><rect class="e091fbde-092a-402a-8e2d-40dc513abffd" x="55.95291" y="177.42246" width="26.33552" height="15.46306"/><polygon class="eca70418-3e1f-41c2-b53f-d826d1df2e82" points="86.678 177.422 86.678 192.886 117.604 192.886 117.439 177.422 86.678 177.422"/><polygon class="b88afe72-0b6e-41e0-b803-d6198a025151" points="86.678 195.302 117.604 195.302 117.604 225.1 111.523 225.1 111.765 202.067 86.678 202.067 86.678 195.302"/><polygon class="e091fbde-092a-402a-8e2d-40dc513abffd" points="82.993 225.664 77.376 225.664 77.376 201.422 55.953 201.422 55.953 195.302 82.993 195.302 82.993 225.664"/><polygon class="e091fbde-092a-402a-8e2d-40dc513abffd" points="55.148 229.731 55.148 251.275 82.449 251.758 82.449 229.731 55.148 229.731"/><polygon class="b3c0efa8-47e3-4bb3-99ba-9dd6798de815" points="87.282 230.093 87.282 252.161 117.604 252.624 117.604 230.093 87.282 230.093"/><polygon class="e0158923-4bf4-4e83-bade-38d401462d80" points="87.282 254.818 117.604 254.818 117.322 285.261 111.684 285.261 111.684 258.845 87.282 258.926 87.282 254.818"/><polygon class="e9847cf1-07d6-4559-b901-f8b54ddbe065" points="90.986 262.147 90.986 284.375 93.966 284.375 94.369 263.355 101.939 263.355 105.322 262.147 90.986 262.147"/><polygon class="e091fbde-092a-402a-8e2d-40dc513abffd" points="82.449 254.818 82.449 284.858 75.926 284.858 75.926 262.147 78.825 262.147 78.664 259.167 49.726 259.328 49.107 254.818 82.449 254.818"/><rect class="e091fbde-092a-402a-8e2d-40dc513abffd" x="55.7113" y="289.77123" width="26.7382" height="15.86574"/><polygon class="f197ce66-ea6a-4d1d-96f6-6cc5757140d7" points="77.778 295.973 77.778 305.637 82.449 305.637 82.449 289.771 77.778 289.771 77.778 295.973"/><polygon class="fb32b48b-6aee-41ef-bcde-f0a7451a2f5b" points="86.557 289.258 86.557 305.637 117.322 305.315 117.06 289.258 86.557 289.258"/><polygon class="a8dc319b-2066-456c-8027-fe5ce6d3eb86" points="118.691 338.093 118.127 308.617 106.127 308.617 106.127 338.335 118.691 338.093"/><polygon class="e091fbde-092a-402a-8e2d-40dc513abffd" points="50.346 308.617 108.06 308.617 108.06 311.597 51.523 311.597 50.346 308.617"/><polygon class="e091fbde-092a-402a-8e2d-40dc513abffd" points="87.926 342.845 87.926 362.174 119.255 362.174 118.691 342.845 87.926 342.845"/><polygon class="e091fbde-092a-402a-8e2d-40dc513abffd" points="58.208 341.959 58.208 362.174 82.611 362.174 82.611 342.402 58.208 341.959"/><polygon class="f197ce66-ea6a-4d1d-96f6-6cc5757140d7" points="88.429 343.348 117.725 343.771 118.268 362.174 119.255 362.174 118.691 342.845 87.926 342.845 88.429 343.348"/><polygon class="f197ce66-ea6a-4d1d-96f6-6cc5757140d7" points="58.832 342.442 81.785 343.107 82.611 362.174 82.611 342.402 58.208 341.959 58.832 342.442"/><polygon class="f197ce66-ea6a-4d1d-96f6-6cc5757140d7" points="88.892 367.731 120.06 367.087 120.06 368.053 88.892 367.731"/><polygon class="f197ce66-ea6a-4d1d-96f6-6cc5757140d7" points="51.523 366.764 81.805 367.57 51.523 367.57 51.523 366.764"/><polygon class="f197ce66-ea6a-4d1d-96f6-6cc5757140d7" points="58.933 314.174 60.221 317.556 79.203 317.315 78.825 338.093 80.839 338.093 80.839 314.174 58.933 314.174"/><polygon class="f197ce66-ea6a-4d1d-96f6-6cc5757140d7" points="89.134 314.174 106.127 314.174 106.127 338.335 104.919 338.093 104.839 315.543 90.664 315.785 90.181 320.697 89.134 314.174"/><polygon class="e091fbde-092a-402a-8e2d-40dc513abffd" points="56.174 311.597 56.899 338.093 56.174 338.093 55.329 311.597 56.174 311.597"/><polygon class="f197ce66-ea6a-4d1d-96f6-6cc5757140d7" points="60.06 371.999 62.235 371.999 61.913 386.737 59.738 386.737 60.06 371.999"/><rect class="f197ce66-ea6a-4d1d-96f6-6cc5757140d7" x="63.68444" y="372.64354" width="13.28856" height="14.09393"/><polygon class="f197ce66-ea6a-4d1d-96f6-6cc5757140d7" points="117.241 78.845 116.758 123.704 133.03 123.704 133.643 72.121 127.953 79.032 117.241 78.845"/><polygon class="f197ce66-ea6a-4d1d-96f6-6cc5757140d7" points="110.476 128.98 228.946 128.98 223.791 131.637 112.206 131.637 110.476 128.98"/><rect class="f197ce66-ea6a-4d1d-96f6-6cc5757140d7" x="143.45609" y="151.99298" width="20.17446" height="7.52012"/><rect class="f197ce66-ea6a-4d1d-96f6-6cc5757140d7" x="194.19424" y="153.50305" width="6.64428" height="8.69797"/><polygon class="f197ce66-ea6a-4d1d-96f6-6cc5757140d7" points="214.248 186 254.597 186 252.371 188.295 215.335 188.295 214.248 186"/><polygon class="b931abd0-f615-44ff-9a95-43963f1be373" points="245.174 188.295 244.449 380.737 241.55 344.456 241.55 188.295 245.174 188.295"/><rect class="f197ce66-ea6a-4d1d-96f6-6cc5757140d7" x="197.69759" y="237.26127" width="36.72476" height="2.01342"/><polygon class="f197ce66-ea6a-4d1d-96f6-6cc5757140d7" points="131.899 237.261 171.201 237.261 171.201 241.359 131.899 240 131.899 237.261"/><polygon class="f197ce66-ea6a-4d1d-96f6-6cc5757140d7" points="133.671 202.792 169.832 202.792 169.832 209.234 133.993 209.234 133.671 202.792"/><rect class="f5673d5d-9f8f-4db0-bdab-62d4d2558a24" x="164.43591" y="215.83849" width="4.75167" height="18.76506"/><polygon class="f197ce66-ea6a-4d1d-96f6-6cc5757140d7" points="197.375 202.792 198.422 206.577 232.973 206.899 235.55 202.792 197.375 202.792"/><polygon class="a6a95594-2830-4b90-82bd-53a047769b5c" points="232.731 234.201 232.731 215.436 232.973 206.899 227.254 206.846 227.254 233.879 232.731 234.201"/><polygon class="f197ce66-ea6a-4d1d-96f6-6cc5757140d7" points="197.134 256.107 235.469 256.107 235.469 259.248 198.1 259.248 197.134 256.107"/><polygon class="f197ce66-ea6a-4d1d-96f6-6cc5757140d7" points="169.188 260.134 169.993 255.301 131.899 255.624 131.899 260.134 169.188 260.134"/><polygon class="bb3063c0-464e-4c8c-b5dc-42a301a9444e" points="169.027 261.1 169.027 285.181 164.033 285.181 164.033 260.134 169.188 260.134 169.027 261.1"/><polygon class="afa491a9-1e41-47fd-99a2-d60e8b9a362f" points="235.067 284.516 235.469 259.248 232.973 259.248 232.973 284.516 235.067 284.516"/><polygon class="f197ce66-ea6a-4d1d-96f6-6cc5757140d7" points="129.241 305.637 172.167 305.637 169.912 307.167 130.208 307.167 129.241 305.637"/><polygon class="f197ce66-ea6a-4d1d-96f6-6cc5757140d7" points="197.456 310.872 197.456 316.59 234.825 316.59 234.825 311.677 197.456 310.872"/><rect class="f197ce66-ea6a-4d1d-96f6-6cc5757140d7" x="197.45598" y="307.65039" width="39.94623" height="1.61074"/><rect class="f3007956-8bab-4985-a469-ae782949e855" x="116.83869" y="403.16804" width="3.22147" height="132.32081"/><rect class="e8769640-b86d-4dc2-b2e7-5e6f9c4859d9" x="123.76485" y="508.17859" width="22.10734" height="8.82708"/><polygon class="a605ab14-facb-423c-a54f-02c48003a03c" points="169.067 508.179 169.067 514.831 186.221 508.179 169.067 508.179"/><polygon class="bb5c9533-f801-4571-86ab-17419ff3d677" points="212.315 510.12 212.315 530.777 214.369 511.505 231.281 510.12 212.315 510.12"/><polygon class="f197ce66-ea6a-4d1d-96f6-6cc5757140d7" points="133.03 320.778 150.02 320.778 150.02 338.818 148.812 321.583 133.03 320.778"/><polygon class="f197ce66-ea6a-4d1d-96f6-6cc5757140d7" points="152.76 320.536 153.241 338.335 154.127 321.503 168.624 320.536 152.76 320.536"/><polygon class="f197ce66-ea6a-4d1d-96f6-6cc5757140d7" points="132.221 309.583 169.671 309.261 169.671 314.174 133.03 314.174 132.221 309.583"/><polygon class="f197ce66-ea6a-4d1d-96f6-6cc5757140d7" points="130.288 288.724 169.671 288.724 169.188 290.738 132.221 290.738 130.288 288.724"/><polygon class="f197ce66-ea6a-4d1d-96f6-6cc5757140d7" points="198.1 288.08 236.516 288.08 231.281 289.731 199.389 289.731 198.1 288.08"/><polygon class="f197ce66-ea6a-4d1d-96f6-6cc5757140d7" points="120.06 403.167 254.234 404.133 249.485 404.979 120.06 404.979 120.06 403.167"/><polygon class="b7d44ab9-b968-4c1c-b56c-cd915f4fe859" points="112.409 389.637 120.06 389.637 120.06 368.053 88.892 367.731 88.892 372.402 112.248 371.999 112.409 389.637"/><polygon class="f197ce66-ea6a-4d1d-96f6-6cc5757140d7" points="202.852 15.866 179.577 9.664 176.968 28.562 176.968 4.562 202.852 13.047 202.852 15.866"/><polygon class="e091cd85-e757-4f32-9ec7-f53e7d73961c" points="134.315 15.544 176.968 4.562 176.968 9.289 134.315 15.544"/><polygon points="39.121 68.376 133.03 68.376 90.906 69.101 39.121 68.376"/><polygon class="bafb2eaf-63c1-44c3-bb2b-7ae7c745e518" points="176.968 123.704 176.968 9.289 161.878 11.502 161.878 123.704 176.968 123.704"/><polygon class="f22c0cda-c117-4e58-9610-fd7f0940b571" points="134.269 19.412 117.886 15.141 133.671 14.658 144.267 12.981 134.315 15.544 134.269 19.412"/><polygon class="f197ce66-ea6a-4d1d-96f6-6cc5757140d7" points="127.03 14.861 156.382 6.966 131.076 14.737 127.03 14.861"/><polygon class="e091cd85-e757-4f32-9ec7-f53e7d73961c" points="136.351 14.234 176.968 4.562 137.88 14.626 136.351 14.234"/><polygon class="e091cd85-e757-4f32-9ec7-f53e7d73961c" points="202.852 13.047 204.342 13.047 179.214 4.913 176.968 4.562 202.852 13.047"/><polygon class="e091fbde-092a-402a-8e2d-40dc513abffd" points="31.309 176.778 49.913 176.778 49.309 177.422 31.309 177.422 31.309 176.778"/><polygon class="b86f7200-0cf2-44e3-b160-a05a15ec13ab" points="23.054 169.127 50.947 169.127 50.678 169.993 23.456 169.993 23.054 169.127"/><polygon class="f197ce66-ea6a-4d1d-96f6-6cc5757140d7" points="22.651 164.295 50.947 164.295 50.758 165.302 23.054 165.302 22.651 164.295"/><polygon class="e091fbde-092a-402a-8e2d-40dc513abffd" points="21.725 159.261 50.597 159.624 51.161 159.624 51.161 160.429 21.725 159.845 21.725 159.261"/><polygon class="e091fbde-092a-402a-8e2d-40dc513abffd" points="19.188 156.644 51.406 156.644 51.366 157.731 19.188 156.644"/><polygon class="b86f7200-0cf2-44e3-b160-a05a15ec13ab" points="24.916 169.993 24.916 203.184 28.208 203.184 27.362 169.993 24.916 169.993"/><rect class="ae9a7975-d239-4e4f-8da4-63ab15359106" x="32.85899" y="183.67413" width="12.20132" height="15.97648"/><polygon class="a909609d-18c5-4970-aedc-c497a9da6bb7" points="26.879 206.114 50.575 206.114 50.553 206.778 26.879 206.114"/><polygon class="bbf3df22-2607-4508-9f2b-ebc0c037291d" points="27.242 219.221 46.752 219.221 46.752 220.369 27.242 219.221"/><polygon class="e650c88b-840c-4399-a2dc-f791d953028e" points="28.208 223.208 46.752 222.966 46.752 223.57 28.993 223.57 28.208 223.208"/><rect class="eeaa229a-aa53-47e9-bfd6-7c4fe45d6760" x="29.65766" y="227.94921" width="10.44964" height="13.25836"/><polygon class="bd068b23-5762-423a-93e7-5ef50c5e30e4" points="22.349 246.825 48.828 246.825 48.789 247.496 23.134 247.496 22.349 246.825"/><polygon class="e091cd85-e757-4f32-9ec7-f53e7d73961c" points="24.493 252.624 44.335 253.288 24.493 253.288 24.493 252.624"/><polygon class="e091cd85-e757-4f32-9ec7-f53e7d73961c" points="49.707 281.495 27.242 281.073 27.242 281.677 49.707 281.495"/><polygon class="f6a54c40-6fe7-448f-a374-30b3f92e6a5f" points="30.624 290.979 30.926 306.684 43.067 306.684 43.49 291.221 30.624 290.979"/><polygon class="e091cd85-e757-4f32-9ec7-f53e7d73961c" points="30.101 253.288 29.658 268.348 30.624 268.348 30.987 253.288 30.101 253.288"/><rect class="e091fbde-092a-402a-8e2d-40dc513abffd" x="34.61067" y="332.89866" width="3.86376" height="14.1342"/><rect class="e091fbde-092a-402a-8e2d-40dc513abffd" x="41.37576" y="332.89866" width="3.02013" height="14.1342"/><rect class="f197ce66-ea6a-4d1d-96f6-6cc5757140d7" x="34.61067" y="374.69723" width="3.86376" height="15.58386"/><rect class="f197ce66-ea6a-4d1d-96f6-6cc5757140d7" x="41.37576" y="374.69723" width="3.62415" height="15.58386"/><polygon class="f197ce66-ea6a-4d1d-96f6-6cc5757140d7" points="48.06 406.469 28.611 406.469 30.262 405.543 48.06 405.543 48.06 406.469"/><polygon class="e091fbde-092a-402a-8e2d-40dc513abffd" points="51.523 360.724 22.45 359.355 24.383 360.04 51.523 360.724"/><polygon class="e091fbde-092a-402a-8e2d-40dc513abffd" points="26.154 362.657 51.523 363.623 51.523 364.348 26.476 363.503 26.154 362.657"/><polygon class="f197ce66-ea6a-4d1d-96f6-6cc5757140d7" points="50.101 437.637 50.101 436.59 23.013 436.187 23.013 437.153 50.101 437.637"/><polygon class="e091fbde-092a-402a-8e2d-40dc513abffd" points="37.631 253.288 37.631 268.087 38.96 268.087 38.718 253.288 37.631 253.288"/><polygon class="e091fbde-092a-402a-8e2d-40dc513abffd" points="43.248 253.288 43.248 268.348 44.335 268.348 43.792 253.288 43.248 253.288"/><rect class="e091fbde-092a-402a-8e2d-40dc513abffd" x="23.25499" y="276.05949" width="26.43238" height="0.84599"/><polygon class="e091fbde-092a-402a-8e2d-40dc513abffd" points="24.493 279.805 25.973 279.805 25.671 306.684 24.493 306.684 24.493 279.805"/><polygon class="e091fbde-092a-402a-8e2d-40dc513abffd" points="51.101 326.484 29.537 326.295 29.537 345.986 30.624 327.301 51.101 326.484"/><polygon class="e091fbde-092a-402a-8e2d-40dc513abffd" points="51.916 354.603 24.705 354.201 24.705 355.006 51.101 355.006 51.916 354.603"/><polygon class="e091fbde-092a-402a-8e2d-40dc513abffd" points="5.698 135.986 52.168 135.986 51.825 133.691 3.926 133.691 5.698 135.986"/><polygon class="e091fbde-092a-402a-8e2d-40dc513abffd" points="136.973 434.737 204.141 434.737 204.141 466.791 200.597 437.637 136.973 434.737"/><polygon class="e091fbde-092a-402a-8e2d-40dc513abffd" points="174.02 450.419 182.537 452.013 185.376 466.791 185.376 450.633 174.02 450.419"/><polygon class="e091fbde-092a-402a-8e2d-40dc513abffd" points="191.62 450.764 202.859 456.245 203.992 465.569 204.141 450.764 191.62 450.764"/><polygon class="e091fbde-092a-402a-8e2d-40dc513abffd" points="143.214 450.339 151.55 452.133 153.57 466.791 153.57 450.419 143.214 450.339"/><rect class="e091fbde-092a-402a-8e2d-40dc513abffd" x="133.02986" y="470.6165" width="73.84891" height="1.57047"/><path class="a6c672fc-8aee-4f3c-b02b-3df9272c7edd" d="M266.4421,656.02675V625.685s-4.86028-10.55031-16.4312-10.63085c0,0,12.18743,1.93289,14.12031,11.11407v29.87914Z" transform="translate(-164.60792 -120.5585)"/><rect class="f197ce66-ea6a-4d1d-96f6-6cc5757140d7" x="50.10057" y="470.6165" width="69.95959" height="2.17449"/><polygon class="f197ce66-ea6a-4d1d-96f6-6cc5757140d7" points="64.691 463.368 64.087 464.214 76.973 464.214 77.617 463.368 64.691 463.368"/><polygon class="f197ce66-ea6a-4d1d-96f6-6cc5757140d7" points="93.619 463.368 93.322 464.214 106.208 464.214 106.731 463.368 93.619 463.368"/><rect class="f197ce66-ea6a-4d1d-96f6-6cc5757140d7" x="63.57794" y="438.05952" width="43.15338" height="1.10738"/><polygon class="f197ce66-ea6a-4d1d-96f6-6cc5757140d7" points="81.335 453.214 90.414 453.214 90.414 464.214 89.98 453.664 81.335 453.214"/><polygon class="f197ce66-ea6a-4d1d-96f6-6cc5757140d7" points="95.765 440.405 104.196 440.405 104.196 449.323 103.792 440.737 95.765 440.405"/><polygon class="f197ce66-ea6a-4d1d-96f6-6cc5757140d7" points="75.984 450.296 75.984 440.405 66.58 440.405 75.579 440.818 75.984 450.296"/><polygon class="f197ce66-ea6a-4d1d-96f6-6cc5757140d7" points="50.101 406.469 119.939 406.469 120.06 403.167 49.913 402.764 50.101 406.469"/><polygon class="aebbff3d-6bd6-4e4b-9aeb-4166875f4380" points="50.101 535.468 43.188 528.683 23.738 528.683 23.738 525.744 50.033 525.744 50.101 535.468"/><polyline class="f197ce66-ea6a-4d1d-96f6-6cc5757140d7" points="23.738 525.744 50.033 525.744 50.055 528.683 23.738 528.683 23.738 525.744"/><polygon class="f197ce66-ea6a-4d1d-96f6-6cc5757140d7" points="120.02 482.813 248.194 483.779 243.657 484.625 120.02 484.625 120.02 482.813"/><rect class="f197ce66-ea6a-4d1d-96f6-6cc5757140d7" x="163.63054" y="413.52154" width="83.7448" height="2.61185"/><rect class="f197ce66-ea6a-4d1d-96f6-6cc5757140d7" x="204.14053" y="421.69039" width="43.33192" height="2.65775"/></g><g id="acd8c86a-6c35-4e54-b268-80a28bd1c933" data-name="Слой 2"><rect x="150.58208" y="508.17859" width="16.37584" height="27.28967"/><path d="M196.31927,632.49035h9.5436v-7.1275s-.36241-3.745-4.7718-3.62416-4.7718,3.02013-4.7718,3.02013Z" transform="translate(-164.60792 -120.5585)"/><polygon points="25.349 527.032 26.476 443.596 25.349 440.405 23.738 444.402 23.738 525.744 25.349 527.032"/><polygon points="182.073 404.073 250.208 404.073 220.047 404.677 182.073 404.073"/><polygon points="195.12 342.845 236.033 343.489 217.751 344.456 195.12 342.845"/><polygon points="133.03 341.959 172.49 341.959 169.751 342.845 134.396 342.845 133.03 341.959"/><polygon points="244.449 380.133 244.449 304.872 243.724 356.576 244.449 380.133"/><polygon points="127.47 253.369 170.798 252.483 166.933 253.369 130.047 254.174 127.47 253.369"/><polygon points="195.684 253.328 237.966 252.805 236.919 253.691 197.617 254.174 195.684 253.328"/><rect x="215.33514" y="215.43581" width="0.8859" height="18.12077"/><polygon points="117.845 253.328 118.449 136.953 116.758 135.986 117.604 187.449 117.402 234 117.402 252.684 117.845 253.328"/><polygon points="117.322 289.449 117.322 305.315 117.06 303.966 117.06 289.258 117.322 289.449"/><rect x="150.16077" y="90.20116" width="6.46307" height="9.18119"/><rect x="150.7648" y="64.59047" width="6.28187" height="9.24159"/><path d="M298.25077,192.67916v13.36462s-8.12632,2.42058-7.482-3.17673l-.03758-3.46308Z" transform="translate(-164.60792 -120.5585)"/><polygon points="147.845 30.08 155.496 30.08 155.496 17.195 147.845 18.443 147.845 30.08"/><polygon points="74.96 110.617 74.96 89.919 74.154 89.919 74.557 110.617 74.96 110.617"/><polygon points="58.812 86.98 83.013 86.98 82.49 87.382 59.456 87.382 58.812 86.98"/><polygon points="87.604 89.436 111.604 89.436 110.798 89.919 88.691 89.919 87.604 89.436"/><polygon points="12.624 151.208 51.342 151.208 51.342 151.812 12.342 151.61 12.624 151.208"/><polygon points="24.644 170.537 24.644 203.516 25.188 202.852 25.188 169.993 24.644 170.537"/><polygon points="32.859 183.674 32.859 200.134 34.007 199.198 34.007 184.61 35.184 183.674 32.859 183.674"/><polygon points="20.557 214.268 49.913 214.268 48.342 214.63 21.685 214.63 20.557 214.268"/><polygon points="22.127 208.067 38.718 208.067 27 208.55 22.127 208.067"/><polygon points="24.493 252.624 24.493 269.567 24.795 269.567 24.795 252.956 29.235 252.624 24.493 252.624"/><polygon points="35.215 292.308 35.215 304.811 37.208 304.811 37.45 292.308 35.215 292.308"/><polygon points="23.617 313.449 50.013 313.751 23.617 314.174 23.617 313.449"/><polygon points="24.705 320.154 51.101 320.154 25.852 320.697 25.55 338.093 24.705 320.154"/><polygon points="117.241 81.866 117.241 79.032 125.982 78.845 117.906 79.631 117.241 81.866"/><polygon points="23.98 218.255 23.98 241.208 25.671 241.208 25.188 218.255 23.98 218.255"/><polygon points="120.06 403.167 120.06 450.296 119.416 420.664 120.06 403.167"/><polygon points="49.107 290.375 49.107 308.617 50.013 304.268 50.346 290.375 49.107 290.375"/><polygon points="51.523 326.254 52.309 348.483 51.523 339.845 51.523 326.254"/><polygon points="50.255 389.595 50.96 383.919 51.523 368.858 50.255 383.516 50.255 389.595"/><rect x="96.30182" y="264.64376" width="2.81879" height="19.7315"/><polygon points="67.228 265.369 71.758 265.369 71.758 270.382 71.275 265.912 67.228 265.369"/><polygon points="59.98 203.275 73.631 203.275 73.631 206.114 73.087 203.818 59.98 203.275"/><polygon points="29.658 227.949 31.862 227.949 31.862 230.728 31.621 228.251 29.658 227.949"/><path d="M196.82262,590.14958h9.54361v-7.1275s-.36242-3.745-4.7718-3.62415-4.77181,3.02013-4.77181,3.02013Z" transform="translate(-164.60792 -120.5585)"/><line class="a93d4578-fc82-4ab1-bfad-cd1643e2badb" x1="90.41427" y1="512.59213" x2="90.41427" y2="516.28084"/></g></svg>