<svg xmlns="http://www.w3.org/2000/svg" xmlns:xlink="http://www.w3.org/1999/xlink" viewBox="0 0 481.28894 687.86843"><defs><style>.bf07a455-22f6-4825-b0d3-82aaaf1ab0fd{fill:#d88364;}.b57cf7a6-ffe1-4ce3-a569-772b437121dd{fill:#d88664;}.a4486e51-ef98-4e48-9128-744c9ecf9612{fill:#f1cebb;}.a113d4ee-1dcf-460c-83b0-1817b2e39953{fill:#1d2735;}.aac7d258-b716-4b0e-a0d0-98d0fc442d27{fill:#ebd0be;}.eb8c8315-92ba-4c8c-9d46-0871c042d0c2{fill:#8e4537;}.a276d19d-5581-462f-8d06-42a31b562c51{fill:#191f24;}.fc170c50-7da1-43f8-9648-1f512203e359{fill:#70514b;}.b1a7ae79-bf99-41d2-8e69-3fd1ac294ee0{fill:#263a44;}.a607e2f3-9e4d-40e7-bd80-93408583bb36{fill:#263e48;}.f70ba793-a7e2-4f20-96fe-d8f1a018a042{fill:#233843;}.ea1dbedd-dddc-40ce-b486-3dc6caad3029{fill:#7c5c58;}.abe0553e-4403-41a6-871b-360cbfade43e{fill:#985346;}.f91fda75-28a7-4286-b272-72a10691a641{fill:#ffecd8;}.b94ee5cd-646b-4910-8061-fb95e4307277{fill:#29313d;}.e2220f93-bce4-4c12-9676-fc751a686792{fill:#2f3e46;}.a4854f90-41ed-4741-bc8d-32680f93c588{fill:#ffdbc2;}.b880d1a9-3a8d-442f-8bcd-362859b6c9a4{fill:#ffeddb;}.a6406853-6547-4168-806a-219ff7041fc2,.abb2164f-266c-44e9-be25-3d7e190678ae,.adf0c98a-c47b-49c6-bf0d-19585c8a0e9f,.afb849af-b8cf-495d-9829-985e4fe8b732,.bfeccdab-da4a-4f17-8042-2be1b5196e0f,.f7a5b31c-bffa-4a3e-bbe4-71cd5393e935{fill:none;}.a6406853-6547-4168-806a-219ff7041fc2,.adf0c98a-c47b-49c6-bf0d-19585c8a0e9f,.afb849af-b8cf-495d-9829-985e4fe8b732,.b14013a7-a9a5-41c2-9821-c4f4b2784cd4,.bfeccdab-da4a-4f17-8042-2be1b5196e0f{stroke:#000;}.a6406853-6547-4168-806a-219ff7041fc2,.abb2164f-266c-44e9-be25-3d7e190678ae,.adf0c98a-c47b-49c6-bf0d-19585c8a0e9f,.afb849af-b8cf-495d-9829-985e4fe8b732,.b14013a7-a9a5-41c2-9821-c4f4b2784cd4,.bfeccdab-da4a-4f17-8042-2be1b5196e0f,.f7a5b31c-bffa-4a3e-bbe4-71cd5393e935{stroke-miterlimit:10;}.adf0c98a-c47b-49c6-bf0d-19585c8a0e9f,.afb849af-b8cf-495d-9829-985e4fe8b732,.bfeccdab-da4a-4f17-8042-2be1b5196e0f{stroke-width:0.75px;}.afb849af-b8cf-495d-9829-985e4fe8b732,.bb510cad-a262-4d68-9d3d-a93f7957e294{opacity:0.5;}.b3fc5c9e-f840-4c66-a37f-2959a2aa5300,.bfeccdab-da4a-4f17-8042-2be1b5196e0f,.f7a5b31c-bffa-4a3e-bbe4-71cd5393e935{opacity:0.2;}.b14013a7-a9a5-41c2-9821-c4f4b2784cd4,.b3fc5c9e-f840-4c66-a37f-2959a2aa5300{fill:#fff;}.abb2164f-266c-44e9-be25-3d7e190678ae,.f7a5b31c-bffa-4a3e-bbe4-71cd5393e935{stroke:#fff;}.abb2164f-266c-44e9-be25-3d7e190678ae,.f8cf8963-5847-4411-870d-907082011d24{opacity:0.4;}.a15347f4-46cb-44da-9476-12d6aebc9e07{fill:url(#feaad455-0110-42c8-b1b8-261741148411);}.b917d377-7e9c-4424-8047-04109cff6b18{fill:url(#bb17f2af-0cc2-41ae-bb5c-569e3b301032);}.e59a1574-c201-4a96-8935-4f5f687e281c{fill:url(#a80bfeb3-0a9c-4f8b-9b1f-794fae1df39e);}.fef2f5c6-6418-492d-9972-34de9150ca79{fill:url(#a572d974-daa4-4195-9c22-e525260448b5);}.a7140c4f-e02f-4266-ba1f-f1f0af2012a0{fill:url(#fa1b5c80-4920-4713-94d1-9f5e0822a141);}.bb510cad-a262-4d68-9d3d-a93f7957e294{fill:url(#aa99a307-8660-4db2-b6b3-40ff13b42fa5);}.b462481e-10c0-40c2-87ea-5ce3b8e101ed{fill:url(#a09a09c1-b716-4826-a533-e5d14b79c0cc);}.a0dbaf82-6fe4-44c5-a528-67625be32378{fill:url(#bc1a00a0-d63e-4592-a311-c544d34ce3b4);}</style><linearGradient id="feaad455-0110-42c8-b1b8-261741148411" x1="302.80844" y1="341.86642" x2="302.80844" y2="225.32315" gradientUnits="userSpaceOnUse"><stop offset="0" stop-opacity="0.1"/><stop offset="1" stop-opacity="0.3"/></linearGradient><linearGradient id="bb17f2af-0cc2-41ae-bb5c-569e3b301032" x1="463.14354" y1="225.32315" x2="463.14354" y2="85.89187" xlink:href="#feaad455-0110-42c8-b1b8-261741148411"/><linearGradient id="a80bfeb3-0a9c-4f8b-9b1f-794fae1df39e" x1="300.38128" y1="544.57009" x2="300.38128" y2="444.62229" xlink:href="#feaad455-0110-42c8-b1b8-261741148411"/><linearGradient id="a572d974-daa4-4195-9c22-e525260448b5" x1="65.06274" y1="110.14031" x2="65.06274" y2="103.99727" xlink:href="#feaad455-0110-42c8-b1b8-261741148411"/><linearGradient id="fa1b5c80-4920-4713-94d1-9f5e0822a141" x1="71.5303" y1="306.04184" x2="71.5303" y2="298.98234" xlink:href="#feaad455-0110-42c8-b1b8-261741148411"/><linearGradient id="aa99a307-8660-4db2-b6b3-40ff13b42fa5" x1="333.9849" y1="107.64619" x2="333.9849" y2="88.60021" xlink:href="#feaad455-0110-42c8-b1b8-261741148411"/><linearGradient id="a09a09c1-b716-4826-a533-e5d14b79c0cc" x1="9.72914" y1="271.39282" x2="14.81354" y2="271.39282" xlink:href="#feaad455-0110-42c8-b1b8-261741148411"/><linearGradient id="bc1a00a0-d63e-4592-a311-c544d34ce3b4" x1="51.69624" y1="585.38291" x2="213.43593" y2="585.38291" xlink:href="#feaad455-0110-42c8-b1b8-261741148411"/></defs><g id="f3ba655f-ec78-454a-9d2c-1ad6d35f4376" data-name="Слой 2"><g id="b0e7675f-c723-407c-805a-37d8c0863a45" data-name="Слой 2"><polygon class="bf07a455-22f6-4825-b0d3-82aaaf1ab0fd" points="131.415 43.633 247.673 15.288 467.76 78.85 469.347 444.622 130.936 444.622 131.415 43.633"/><polygon class="b57cf7a6-ffe1-4ce3-a569-772b437121dd" points="130.936 444.622 5.895 444.622 5.895 442.236 0 442.236 2.267 92.455 120.396 92.455 120.396 46.805 131.415 43.633 130.936 444.622"/><rect class="a4486e51-ef98-4e48-9128-744c9ecf9612" x="5.89518" y="444.62229" width="463.45223" height="243.24614"/><rect class="a113d4ee-1dcf-460c-83b0-1817b2e39953" x="273.29473" y="486.07172" width="41.71977" height="58.95185"/><rect class="aac7d258-b716-4b0e-a0d0-98d0fc442d27" x="277.30043" y="491.05995" width="34.91763" height="49.88233"/><rect class="eb8c8315-92ba-4c8c-9d46-0871c042d0c2" x="343.50789" y="676.07806" width="88.65451" height="11.79037"/><rect class="eb8c8315-92ba-4c8c-9d46-0871c042d0c2" x="346.90896" y="664.06095" width="80.71869" height="12.01711"/><rect class="eb8c8315-92ba-4c8c-9d46-0871c042d0c2" x="349.40308" y="652.49732" width="75.95719" height="11.56363"/><rect class="eb8c8315-92ba-4c8c-9d46-0871c042d0c2" x="350.7635" y="640.02674" width="73.0096" height="12.47058"/><rect class="eb8c8315-92ba-4c8c-9d46-0871c042d0c2" x="354.39131" y="630.05027" width="66.66094" height="9.97647"/><polygon class="a276d19d-5581-462f-8d06-42a31b562c51" points="350.764 470.049 422.639 470.049 423.773 630.05 350.764 630.05 350.764 470.049"/><rect class="fc170c50-7da1-43f8-9648-1f512203e359" x="51.69624" y="525.07063" width="161.73969" height="162.7978"/><rect class="b1a7ae79-bf99-41d2-8e69-3fd1ac294ee0" x="51.69624" y="486.07172" width="161.73969" height="38.99892"/><rect class="a607e2f3-9e4d-40e7-bd80-93408583bb36" x="20.85989" y="298.98234" width="52.30087" height="119.7697"/><polygon class="f70ba793-a7e2-4f20-96fe-d8f1a018a042" points="76.486 298.982 77.393 418.752 120.396 418.752 120.396 298.982 76.486 298.982"/><polygon class="ea1dbedd-dddc-40ce-b486-3dc6caad3029" points="73.161 418.752 77.393 418.752 76.486 298.982 73.161 298.982 73.161 418.752"/><rect class="a607e2f3-9e4d-40e7-bd80-93408583bb36" x="20.85989" y="133.72105" width="52.82993" height="91.6021"/><polygon class="abe0553e-4403-41a6-871b-360cbfade43e" points="120.396 133.721 120.396 290.17 20.86 290.17 20.86 225.323 73.69 225.323 73.69 133.721 120.396 133.721"/><polygon class="f91fda75-28a7-4286-b272-72a10691a641" points="239.889 97.769 427.174 97.769 427.174 204.125 239.889 205.219 239.889 97.769"/><rect class="b94ee5cd-646b-4910-8061-fb95e4307277" x="239.88868" y="88.82695" width="187.28549" height="8.9423"/><rect class="e2220f93-bce4-4c12-9676-fc751a686792" x="137.62989" y="205.21906" width="330.13036" height="19.19714"/><polygon class="e2220f93-bce4-4c12-9676-fc751a686792" points="117.043 31.177 117.043 48.316 247.673 15.288 467.76 78.85 469.347 444.622 481.289 444.622 480.664 66.15 247.831 0.516 117.043 31.177"/><rect class="e2220f93-bce4-4c12-9676-fc751a686792" x="172.62311" y="242.2115" width="254.55106" height="18.93624"/><rect class="a4854f90-41ed-4741-bc8d-32680f93c588" x="172.62311" y="261.14774" width="254.55106" height="84.04417"/><polygon class="b880d1a9-3a8d-442f-8bcd-362859b6c9a4" points="4.938 53.456 4.938 56.568 6.651 56.568 5.795 92.455 120.396 92.455 120.396 53.078 4.938 53.456"/><line class="afb849af-b8cf-495d-9829-985e4fe8b732" x1="194.08763" y1="33.33315" x2="290.22449" y2="33.33315"/><line class="afb849af-b8cf-495d-9829-985e4fe8b732" x1="143.29834" y1="48.31645" x2="336.47902" y2="48.31645"/><line class="afb849af-b8cf-495d-9829-985e4fe8b732" x1="131.41515" y1="61.6184" x2="403.89575" y2="61.6184"/><line class="afb849af-b8cf-495d-9829-985e4fe8b732" x1="130.93607" y1="75.82731" x2="445.91783" y2="75.22268"/><line class="afb849af-b8cf-495d-9829-985e4fe8b732" x1="131.41515" y1="92.45475" x2="239.88868" y2="92.45475"/><line class="afb849af-b8cf-495d-9829-985e4fe8b732" x1="131.41515" y1="107.64619" x2="239.88868" y2="107.64619"/><line class="afb849af-b8cf-495d-9829-985e4fe8b732" x1="131.41515" y1="122.98879" x2="239.88868" y2="122.98879"/><line class="afb849af-b8cf-495d-9829-985e4fe8b732" x1="131.17561" y1="135.98843" x2="239.88868" y2="135.98843"/><line class="afb849af-b8cf-495d-9829-985e4fe8b732" x1="131.41515" y1="150.94699" x2="239.88868" y2="150.94699"/><line class="afb849af-b8cf-495d-9829-985e4fe8b732" x1="131.41515" y1="164.70856" x2="239.88868" y2="164.70856"/><line class="afb849af-b8cf-495d-9829-985e4fe8b732" x1="131.17561" y1="178.61515" x2="238.52825" y2="178.61515"/><line class="afb849af-b8cf-495d-9829-985e4fe8b732" x1="131.41515" y1="193.12637" x2="238.52825" y2="193.12637"/><line class="afb849af-b8cf-495d-9829-985e4fe8b732" x1="427.17417" y1="91.5478" x2="467.76025" y2="91.5478"/><line class="afb849af-b8cf-495d-9829-985e4fe8b732" x1="427.17417" y1="109.38452" x2="467.76025" y2="109.38452"/><line class="afb849af-b8cf-495d-9829-985e4fe8b732" x1="427.17417" y1="123.89574" x2="469.80089" y2="123.89574"/><line class="afb849af-b8cf-495d-9829-985e4fe8b732" x1="427.17417" y1="136.89538" x2="467.76025" y2="136.89538"/><line class="afb849af-b8cf-495d-9829-985e4fe8b732" x1="427.17417" y1="150.94699" x2="467.76025" y2="150.94699"/><line class="afb849af-b8cf-495d-9829-985e4fe8b732" x1="427.17417" y1="164.70856" x2="467.76025" y2="164.70856"/><line class="afb849af-b8cf-495d-9829-985e4fe8b732" x1="428.98807" y1="178.61515" x2="467.76025" y2="178.61515"/><line class="afb849af-b8cf-495d-9829-985e4fe8b732" x1="428.98807" y1="192.82406" x2="467.76025" y2="192.82406"/><path class="afb849af-b8cf-495d-9829-985e4fe8b732" d="M131.41515,246.93883c2.51136-.60463,39.394,0,39.394,0"/><line class="afb849af-b8cf-495d-9829-985e4fe8b732" x1="131.41515" y1="263.05143" x2="170.8092" y2="263.05143"/><line class="afb849af-b8cf-495d-9829-985e4fe8b732" x1="131.41515" y1="277.17055" x2="168.39067" y2="277.17055"/><line class="afb849af-b8cf-495d-9829-985e4fe8b732" x1="131.41515" y1="291.68177" x2="168.39067" y2="291.68177"/><line class="afb849af-b8cf-495d-9829-985e4fe8b732" x1="131.17561" y1="306.04184" x2="170.8092" y2="306.04184"/><line class="afb849af-b8cf-495d-9829-985e4fe8b732" x1="131.41515" y1="321.30886" x2="170.8092" y2="321.30886"/><line class="afb849af-b8cf-495d-9829-985e4fe8b732" x1="131.41515" y1="333.40154" x2="170.8092" y2="333.40154"/><line class="afb849af-b8cf-495d-9829-985e4fe8b732" x1="131.41515" y1="360.00546" x2="469.34741" y2="358.86719"/><line class="afb849af-b8cf-495d-9829-985e4fe8b732" x1="130.93607" y1="373.30741" x2="469.34741" y2="373.30741"/><line class="afb849af-b8cf-495d-9829-985e4fe8b732" x1="131.41515" y1="387.214" x2="469.34741" y2="387.214"/><line class="afb849af-b8cf-495d-9829-985e4fe8b732" x1="132.71724" y1="401.72523" x2="469.34741" y2="403.84145"/><line class="afb849af-b8cf-495d-9829-985e4fe8b732" x1="132.71724" y1="416.84108" x2="469.34741" y2="416.84108"/><line class="adf0c98a-c47b-49c6-bf0d-19585c8a0e9f" x1="132.71724" y1="432.64532" x2="469.34741" y2="434.6778"/><line class="bfeccdab-da4a-4f17-8042-2be1b5196e0f" x1="76.48625" y1="103.99727" x2="76.48625" y2="297.72812"/><line class="bfeccdab-da4a-4f17-8042-2be1b5196e0f" x1="9.72914" y1="120.87257" x2="120.39634" y2="120.87257"/><line class="bfeccdab-da4a-4f17-8042-2be1b5196e0f" x1="20.85989" y1="225.32315" x2="20.85989" y2="298.98234"/><line class="bfeccdab-da4a-4f17-8042-2be1b5196e0f" x1="20.85989" y1="421.37584" x2="20.85989" y2="432.64532"/><rect class="b3fc5c9e-f840-4c66-a37f-2959a2aa5300" x="343.50789" y="676.07806" width="88.65451" height="3.62781"/><rect class="b3fc5c9e-f840-4c66-a37f-2959a2aa5300" x="346.90896" y="664.06095" width="80.71869" height="3.40107"/><rect class="b3fc5c9e-f840-4c66-a37f-2959a2aa5300" x="349.40308" y="652.49732" width="76.86414" height="3.40107"/><rect class="b3fc5c9e-f840-4c66-a37f-2959a2aa5300" x="350.7635" y="640.02674" width="73.0096" height="4.7615"/><rect class="b3fc5c9e-f840-4c66-a37f-2959a2aa5300" x="354.39131" y="630.05027" width="66.66094" height="3.85454"/><line class="afb849af-b8cf-495d-9829-985e4fe8b732" x1="51.69624" y1="671.39215" x2="213.43593" y2="671.39215"/><line class="afb849af-b8cf-495d-9829-985e4fe8b732" x1="51.69624" y1="652.64848" x2="213.43593" y2="652.64848"/><line class="afb849af-b8cf-495d-9829-985e4fe8b732" x1="51.69624" y1="627.85847" x2="213.43593" y2="627.85847"/><line class="afb849af-b8cf-495d-9829-985e4fe8b732" x1="51.69624" y1="607.90554" x2="213.43593" y2="607.90554"/><line class="afb849af-b8cf-495d-9829-985e4fe8b732" x1="51.69624" y1="581.60394" x2="213.43593" y2="581.60394"/><line class="afb849af-b8cf-495d-9829-985e4fe8b732" x1="51.69624" y1="561.04638" x2="213.43593" y2="561.04638"/><line class="afb849af-b8cf-495d-9829-985e4fe8b732" x1="51.69624" y1="537.76795" x2="213.43593" y2="537.76795"/><line class="afb849af-b8cf-495d-9829-985e4fe8b732" x1="51.69624" y1="525.07063" x2="213.43593" y2="525.07063"/><line class="f7a5b31c-bffa-4a3e-bbe4-71cd5393e935" x1="360.36207" y1="481.83928" x2="360.36207" y2="623.0214"/><line class="f7a5b31c-bffa-4a3e-bbe4-71cd5393e935" x1="371.24549" y1="481.83928" x2="371.24549" y2="623.0214"/><line class="f7a5b31c-bffa-4a3e-bbe4-71cd5393e935" x1="381.52428" y1="481.83928" x2="380.01269" y2="623.0214"/><line class="f7a5b31c-bffa-4a3e-bbe4-71cd5393e935" x1="389.38452" y1="481.83928" x2="389.38452" y2="623.0214"/><line class="f7a5b31c-bffa-4a3e-bbe4-71cd5393e935" x1="399.66331" y1="480.63001" x2="399.66331" y2="623.92835"/><line class="f7a5b31c-bffa-4a3e-bbe4-71cd5393e935" x1="409.94209" y1="481.83928" x2="409.94209" y2="623.0214"/><line class="afb849af-b8cf-495d-9829-985e4fe8b732" x1="272.99241" y1="261.14774" x2="272.99241" y2="345.19191"/><line class="afb849af-b8cf-495d-9829-985e4fe8b732" x1="348.87402" y1="261.14774" x2="348.87402" y2="345.19191"/><line class="abb2164f-266c-44e9-be25-3d7e190678ae" x1="205.27336" y1="275.05433" x2="205.27336" y2="324.63435"/><line class="abb2164f-266c-44e9-be25-3d7e190678ae" x1="231.87727" y1="265.98481" x2="231.87727" y2="335.51776"/><line class="abb2164f-266c-44e9-be25-3d7e190678ae" x1="308.36352" y1="268.3213" x2="308.36352" y2="333.40154"/><line class="abb2164f-266c-44e9-be25-3d7e190678ae" x1="328.01414" y1="278.68213" x2="328.01414" y2="293.79799"/><line class="abb2164f-266c-44e9-be25-3d7e190678ae" x1="375.78025" y1="270.51957" x2="375.78025" y2="343.98264"/><line class="abb2164f-266c-44e9-be25-3d7e190678ae" x1="383.94281" y1="265.98481" x2="385.15208" y2="343.98264"/><line class="abb2164f-266c-44e9-be25-3d7e190678ae" x1="403.89575" y1="270.51957" x2="403.89575" y2="330.07605"/><polygon class="f8cf8963-5847-4411-870d-907082011d24" points="118.584 46.2 130.936 48.694 136.95 51.869 250.545 24.887 467.76 88.6 467.76 77.717 247.825 15.591 118.584 46.2"/><polygon class="a15347f4-46cb-44da-9476-12d6aebc9e07" points="137.857 225.323 172.774 263.051 424.453 263.051 435.337 285.606 447.581 285.606 467.76 341.866 467.76 225.323 137.857 225.323"/><polygon class="b917d377-7e9c-4424-8047-04109cff6b18" points="458.527 85.892 458.527 225.323 467.76 225.323 467.76 88.6 458.527 85.892"/><polygon class="e59a1574-c201-4a96-8935-4f5f687e281c" points="131.415 444.622 245.034 544.57 469.347 544.57 469.347 444.622 131.415 444.622"/><rect class="fef2f5c6-6418-492d-9972-34de9150ca79" x="9.72914" y="103.99727" width="110.6672" height="6.14304"/><rect class="a7140c4f-e02f-4266-ba1f-f1f0af2012a0" x="22.66426" y="298.98234" width="97.73207" height="7.0595"/><polygon class="bb510cad-a262-4d68-9d3d-a93f7957e294" points="240.796 89.734 240.796 107.646 427.174 106.966 427.174 88.6 240.796 89.734"/><polygon class="b462481e-10c0-40c2-87ea-5ce3b8e101ed" points="9.729 110.14 14.814 110.14 14.209 432.645 9.729 432.645 9.729 110.14"/><polygon class="a0dbaf82-6fe4-44c5-a528-67625be32378" points="51.696 484.56 51.696 686.206 56.533 686.206 56.533 498.467 213.436 499.676 213.436 484.56 51.696 484.56"/><line class="b14013a7-a9a5-41c2-9821-c4f4b2784cd4" x1="130.93607" y1="440.78966" x2="131.41515" y2="43.63334"/><line class="b14013a7-a9a5-41c2-9821-c4f4b2784cd4" x1="5.89518" y1="444.62229" x2="481.28894" y2="444.62229"/><line class="b14013a7-a9a5-41c2-9821-c4f4b2784cd4" x1="4.93835" y1="56.56847" x2="120.39634" y2="56.56847"/><polyline class="a6406853-6547-4168-806a-219ff7041fc2" points="117.043 31.177 247.831 0.516 480.664 66.15"/><line class="a6406853-6547-4168-806a-219ff7041fc2" x1="306.75799" y1="204.12474" x2="306.75799" y2="97.76924"/><line class="a6406853-6547-4168-806a-219ff7041fc2" x1="362.81021" y1="97.76924" x2="362.81021" y2="204.12474"/><line class="a6406853-6547-4168-806a-219ff7041fc2" x1="9.72914" y1="263.05143" x2="120.39634" y2="263.05143"/><polyline class="a6406853-6547-4168-806a-219ff7041fc2" points="120.396 432.645 9.729 432.645 9.729 103.997"/><polyline class="a6406853-6547-4168-806a-219ff7041fc2" points="120.396 298.982 22.664 298.982 22.664 418.752"/></g></g></svg>