<svg xmlns="http://www.w3.org/2000/svg" viewBox="0 0 313.97 649.96"><defs><style>.a{fill:#69b8ba;}.b{fill:#86babf;}.c{fill:#ccd8d7;}.d{fill:#47b9ad;}.e{fill:#ff7e00;}.f{opacity:0.4;}.g{fill:#dd7f6f;}.h{fill:#fda262;}.i{fill:#010000;}.j{fill:#56544f;}.k{fill:#444c4f;}.l{fill:#d9d3d0;}.m{fill:#000511;}.n{fill:#7c6557;}.o{fill:#b89f95;}.p{fill:#182928;}.q{fill:#0e2e23;}.r{fill:#ff7b38;}.s{fill:#c78131;}.t{fill:#e9e9dc;}.u{fill:#ca5100;}.v{fill:#d9cccd;}.w{fill:#000001;}.x{fill:#d26200;}.y{fill:#ff7d21;}.z{fill:#385000;}.aa{fill:#243002;}.ab{fill:#dfdcc6;}.ac{opacity:0.2;}.ad{fill:#e0752d;}.ae{fill:#cb5e58;}.af{fill:#fda385;}.ag{fill:#6c6561;}.ah{fill:#b09795;}.ai{fill:#ec8a63;}.aj{fill:#004b55;}.ak{fill:#107064;}.al{fill:#d0d8d6;}.am{fill:#6eacb4;}.an{fill:#ffc066;}.ao{fill:#a7c2c0;}.ap{fill:#468f77;}.aq{fill:#006e68;}.ar{fill:#a7dadc;}.as{fill:#c0d4d5;}.at{fill:#918474;}.au{fill:#8e2b24;}.av{fill:#db5418;}.aw{fill:#b35347;}.ax{fill:#f9f9f7;}.ay{fill:#f9faec;}.az{fill:#192c28;}.ba{fill:#be6c53;}.bb{opacity:0.3;}.bc{opacity:0.6;}.bd{opacity:0.3;}</style></defs><polygon class="a" points="25.63 357.18 25.63 383.91 49.45 361.24 50.01 352.13 25.63 357.18"/><polygon class="b" points="20.85 358.84 20.05 343.42 56.14 342.93 56.14 357.84 25.63 358.71 20.85 358.84"/><polygon class="c" points="14.16 229.1 17.79 343.42 63.63 342.83 66.45 338.58 66.45 249.15 74.64 237.98 55.06 235.89 14.16 229.1"/><rect class="d" x="29.87" y="237.34" width="26.28" height="72.17"/><polygon class="e" points="59.8 237.34 59.67 348.87 55.01 353.4 56.14 237.34 59.8 237.34"/><polygon class="f" points="25.63 361.08 44.7 361.54 47.93 358.07 25.63 358.71 25.63 361.08"/><polyline class="f" points="25.77 237.2 75.14 237.38 66.45 247.89 14.61 243.27 14.41 237.04"/><polyline class="g" points="72.86 237.86 0 236.84 73.57 180.53"/><polyline class="h" points="28.72 496.39 256.33 495.74 257.77 412.62 176.54 410.16 28.03 411.32 28.72 496.39"/><polygon class="i" points="142.5 423.47 142.5 467.39 200.97 466.26 200.12 422.77 142.5 423.47"/><polygon class="j" points="184.53 424.3 185.03 464.68 186.7 464.68 186.7 423.47 184.53 424.3"/><polygon class="j" points="173.47 436.05 199.54 436.54 199.54 437.63 173.47 437.63 173.47 436.05"/><polygon class="j" points="174.16 448.38 199.54 448.38 198.75 449.78 173.47 449.78 174.16 448.38"/><polygon class="k" points="154.12 424.79 155.1 465.38 156.29 464.68 156.29 424.3 154.12 424.79"/><polygon class="k" points="166.95 449.78 143.65 449.78 143.25 448.38 166.95 448.38 166.95 449.78"/><polygon class="k" points="166.19 436.84 143.25 436.45 143.25 435.36 166.95 435.86 166.19 436.84"/><rect class="l" x="142.5" y="420.26" width="58.47" height="5.02"/><polygon class="l" points="144.18 418.61 144.18 442.52 144.18 463.07 166.19 463.07 166.19 419.57 174.49 419.57 174.86 463.67 197.76 463.67 198.43 420.26 208 420.26 206.46 470.63 139.28 470.63 138.93 418.3 144.18 418.61"/><polygon class="m" points="37.29 419.57 37.29 460.53 91.4 461.13 90.92 419.57 37.29 419.57"/><polygon class="n" points="66.58 445.25 89.93 445.87 89.93 447.41 66.58 446.89 66.58 445.25"/><polygon class="n" points="77.66 421.74 77.03 459.81 79.02 459.81 79.02 421.76 77.66 421.74"/><rect class="o" x="38.55" y="444.86" width="22.62" height="2.03"/><polygon class="o" points="49.17 459.33 51.17 459.33 50.84 421.72 49.48 421.72 49.17 459.33"/><polygon class="l" points="33.83 421.92 33.1 464.68 94.5 464.88 94.5 421.3 89.99 421.3 89.37 459.08 67.08 458.93 67 422.15 60.96 422.04 60.71 458.76 39.22 458.76 39.41 421.7 33.83 421.92"/><polygon class="p" points="29.09 413.17 29.09 420.95 94.5 421.3 94.5 412 29.09 412 29.09 413.17"/><polyline class="q" points="138.93 414.21 138.93 420.26 225.24 420.26 224.78 413.63 138.93 414.21"/><path class="l" d="M301.8,541.09" transform="translate(-152.03 -115.81)"/><polygon class="r" points="16.77 412.29 17.79 470.63 19.98 497.71 26.73 497.71 26.94 486.75 26.14 412.29 16.77 412.29"/><polyline class="s" points="27.04 496.39 26.73 497.71 19.98 497.71 16.77 501.78 53.59 501.78 139.64 502.91 264.93 505.31 264.43 500.85 256.33 495.74 27.04 496.39"/><polygon class="t" points="17.7 492.24 9.79 505.31 12.01 508.06 12.01 512 135.36 513.02 137.85 513.98 217.09 514.61 259.36 514.94 262.03 512.74 264.93 508.75 264.54 502.62 169.33 502.22 110.37 502.52 46.83 501.78 16.77 501.78 19.98 497.71 19.63 493.37 17.7 492.24"/><polyline class="u" points="107.59 649.3 255.66 649.3 255.66 515.72 107.59 514.94 107.59 649.3"/><polygon class="v" points="129.39 525.84 130.96 588.27 195.82 588.27 196.66 526.54 129.39 525.84"/><polygon class="w" points="166.01 580.97 165.63 531.99 189.37 532.34 189.37 580.97 166.01 580.97"/><polyline class="w" points="134.63 531.99 134.63 581.2 160.03 580.97 160.03 531.99 134.63 531.99"/><polygon class="x" points="25.09 514.34 27.71 649.16 108.88 649.67 107.59 514.94 25.09 514.34"/><polygon class="y" points="18.54 514.94 21.57 649.3 27.71 649.16 27.71 514.14 18.54 514.94"/><polyline class="z" points="48.19 536.59 98.95 535.68 97.48 649.67 49.05 649.96 48.19 536.59"/><polyline class="aa" points="49.1 602.43 98.09 602.43 98.03 607.21 49.1 607.74 49.1 602.43"/><polygon class="ab" points="147.59 531.99 147.21 580.97 149.03 580.97 149.34 531.99 147.59 531.99"/><polygon class="ab" points="176.98 532.29 176.22 580.97 178.73 580.97 178.2 531.99 176.98 532.29"/><polygon class="ab" points="134.63 550.02 160.03 550.49 160.03 551.23 134.63 551.23 134.63 550.02"/><polygon class="ab" points="134.63 564.16 160.03 564.16 160.03 566.05 134.63 565.64 134.63 564.16"/><polygon class="ab" points="166.01 564.39 166.01 565.86 189.37 566.05 189.37 564.39 166.01 564.39"/><polygon class="ab" points="165.63 551.93 189.37 552.31 189.37 551.23 165.63 550.92 165.63 551.93"/><path class="ac" d="M291.23,720.48s-4.12,26.16-3.36,28.41" transform="translate(-152.03 -115.81)"/><path class="ac" d="M302.17,731.74s-26.42-1.74-28.6-.78" transform="translate(-152.03 -115.81)"/><path class="ac" d="M391.68,701.17s-26.17-4.12-28.42-3.36" transform="translate(-152.03 -115.81)"/><path class="ac" d="M380.42,712.11s1.74-26.43.78-28.6" transform="translate(-152.03 -115.81)"/><polygon class="ad" points="71.77 259.53 71.77 339.36 81.1 340.69 96.55 319.94 96.55 259.02 71.77 259.53"/><polygon class="ae" points="77.7 340.97 35.77 389 22.97 400.52 17.79 407.7 28.03 407.7 104.36 408.65 169.23 408.65 277.97 408.65 270.64 381.48 114.22 378.63 77.44 376.03 77.7 340.97"/><path class="af" d="M245.46,434.34s-22.91,30.27-23.28,39.21,0,16.82,0,16.82l15.87,8.6,60.67-.47h62.79l49.84-.2s9.11.51,10.65,1.41,3.43,1.82,3.43,1.82-2.38-34.19-3.22-39.38-1.54-11.63-3.5-13.87-2.07-12.12-2.07-12.12l-2.56-1.48Z" transform="translate(-152.03 -115.81)"/><polygon class="ad" points="90.76 260.55 89.65 297.12 91.83 319.94 265.48 319.95 265.27 268.74 271.2 260.06 219.72 259.64 157.03 259.02 90.76 260.55"/><polygon class="ag" points="140.5 271.18 141.15 312.72 213.87 312.21 213.87 269.89 140.5 271.18"/><polygon class="ah" points="199.85 273.29 200.41 310.83 202.1 310.83 201.74 273.3 199.85 273.29"/><polygon class="ah" points="212.48 295.38 189.73 295.35 189.73 294.26 212.84 294.55 212.48 295.38"/><polyline class="ai" points="81.55 116.25 77.72 232.68 81.55 234.03 162.24 234.03 256.34 234.03 267.13 234.03 264.6 106.66 222.97 58.77 168.25 8.56 75.96 115.43"/><polygon class="aj" points="152.76 83.95 151.91 131.42 179.1 130.78 179.61 86.44 152.76 83.95"/><polygon class="ak" points="179.61 86.44 179.1 130.78 192.17 130.78 192.17 83.09 179.1 85.08 179.61 86.44"/><polygon class="al" points="172.57 109.97 191.43 109.61 191.43 111.19 172.88 111.71 150.8 112.34 150.8 110.42 170.21 110.04 172.57 109.97"/><polygon points="140.29 146.91 140.29 197.6 203.19 197.6 201.09 146.32 140.29 146.91"/><polygon class="am" points="128.06 132.19 127.49 136.32 127.14 140.88 215.37 142 215.73 140.56 213.22 133.31 128.06 132.19"/><polygon class="an" points="73.15 121.9 72.3 240.81 79.19 232.47 80.67 216.12 83.13 110.77 73.15 121.9"/><path class="g" d="M201,250.16l17.92-21.06,15.64-17.73,20.75-22.32L270.75,171l18.33-19.3s16.55-18.19,19.76-24.82,6-11.07,6-11.07l13.7.43A121.85,121.85,0,0,0,340.46,133c6.39,7.22,10.05,10.86,10.05,10.86l17.2,17,15,13.16,18.14,18.75,22.51,21L448,236.75l15.81,15.67,2.18,5.39-24.33-.51-17.89-26.72-27.65-21.66-23.35-20.84L348.47,167l-15-13.77-7.19-5.29-3.92-15.25-15.81,22.91L289.33,172l-18.59,21.72L247.65,216.4l-14.07,15.65-16.47,14.21L207,251.13l-6,.23Z" transform="translate(-152.03 -115.81)"/><polygon class="am" points="144.36 80.86 157.23 76.76 194.18 76.76 196.05 81.5 144.36 80.86"/><polygon class="am" points="150.11 84.26 148.11 130.78 150.93 130.78 150.93 82.54 150.11 84.26"/><polygon class="ao" points="190.46 83.98 191.28 130.78 127.14 130.78 127.85 132.87 213.08 133.78 215.17 140.88 216.17 140.88 214.54 132.51 209.07 130.78 195.08 130.78 195.08 82.54 191.15 82.54 190.46 83.98"/><polygon class="ap" points="129.87 143 129.87 148.06 213.41 148.46 213.64 142.6 129.87 143"/><polygon class="ap" points="134.03 149.24 133.37 195.7 142.59 195.7 142.59 149.24 134.03 149.24"/><polygon class="aq" points="198.41 150.5 198.88 194.2 208.81 194.6 207.7 150.1 198.41 150.5"/><path class="ar" d="M362.59,266.13l1.2,44.56,1.88,3.8L315,315.77l-30.6-.91-3.66-.87s-.7,0-.7-1,3.71-1.28,3.71-1.28l77.11.26-1.1-46.07Z" transform="translate(-152.03 -115.81)"/><polygon class="ar" points="142.59 150.1 144.79 150.1 144.23 195.95 142.59 195.7 142.59 150.1"/><polygon class="as" points="166.46 148.23 166.46 192.56 144.26 193.48 144.23 195.95 208.81 196.17 208.81 194.6 196.09 193.79 195.16 149.62 190.52 149.24 190.21 192.56 172.34 192.56 171.66 148.23 166.46 148.23"/><polygon class="as" points="144.23 177.52 166.84 177.52 166.84 178.6 144.23 179.11 144.23 177.52"/><polygon class="as" points="144.23 166.73 166.84 165.71 166.84 164.86 144.23 165.25 144.23 166.73"/><polygon class="as" points="152.76 148.73 153.61 193.59 154.24 193.59 153.73 148.73 152.76 148.73"/><polygon class="as" points="178.72 150.1 179.68 193.18 180.57 193.18 179.99 149.58 178.72 150.1"/><polygon class="ap" points="210.89 311.63 216.84 311.63 216.25 273.48 210.89 273.47 210.89 311.63"/><polygon class="at" points="179.22 273.48 178.73 311.63 180.14 311.63 180.14 273.48 179.22 273.48"/><polygon class="as" points="171.43 159.35 190.79 159.35 190.79 160.52 171.43 161.13 171.43 159.35"/><polygon class="as" points="171.43 178.32 191.28 178.32 191.28 179.39 171.75 179.64 171.43 178.32"/><polygon class="at" points="189.63 296 170.36 296 170.24 295.23 189.63 295.07 189.63 295.56 189.63 296"/><polygon class="ah" points="152.03 273.47 152.59 311.01 154.28 311.01 153.92 273.48 152.03 273.47"/><polygon class="al" points="169.04 84.43 169.44 131.42 172.89 131.42 173.49 83.09 169.04 84.43"/><path class="au" d="M215.66,372.69l3.36,3.89,135.44-1.25,75.37.53s2.5,0,2.64-1.23-3.2-6.74-3.2-6.74l-210.79,2.72Z" transform="translate(-152.03 -115.81)"/><polygon class="ah" points="164.66 295.56 141.91 295.53 141.91 294.44 165.02 294.74 164.66 295.56"/><polygon class="av" points="267.83 111.71 263.19 108.07 265.29 127.03 266.86 235.63 269.99 239.14 267.83 111.71"/><path class="aw" d="M231.22,348.28l-14.4,17.42s-1.1,3.85-.82,5.83c.09.66.33,1.12.82,1.15,2,.13,70.48-1.12,70.48-1.12l104.24.2,37.15.14s2.09.13,2.48-1.44-5.49-10-5.49-10l-6.79-9.05-8.52-.84-34.87-.42-26.63-.34h-76l-31.7-.29-7.63.29Z" transform="translate(-152.03 -115.81)"/><polygon class="ax" points="115.68 310.42 115.68 310.42 115.68 315.37 225.81 315.37 226.78 313.69 223.57 310.61 219.24 310.49 170.76 310.46 170.44 273.47 164.27 273.48 164.1 310.45 115.68 310.42"/><polygon class="ay" points="189.49 273.48 188.84 311.01 193.93 311.01 193.93 273.48 189.49 273.48"/><polygon class="ap" points="138 310.42 138 271.18 142.38 271.18 143 310.43 138 310.42"/><polyline class="az" points="126.25 273.48 222.31 273.47 222.6 264.71 126.08 265"/><path class="ad" d="M302.69,374.46" transform="translate(-152.03 -115.81)"/><polyline class="ba" points="76.06 327.84 4.92 404.31 13.1 411.19 31.78 392.57 72.94 348.04 79.02 339 76.09 339.88"/><path class="au" d="M165.12,527l216,1.1s48.74.93,48.87-.33a24,24,0,0,0,0-3.31l-261.88-1-3,3.5" transform="translate(-152.03 -115.81)"/><path class="bb" d="M234.47,232.07l1.6,20.06s24-3.06,38.95-24.57,40.7-30.53,47.39-37.79S344.2,163.2,344.2,163.2l-21.79-18.64-48.75,45.19L240.38,224Z" transform="translate(-152.03 -115.81)"/><polygon class="bb" points="27.71 514.14 108.88 514.34 107.59 573.8 30.98 564.57 27.71 514.14"/><polygon class="bb" points="33.1 464.68 94.5 464.88 96.32 467.39 40.03 467.84 33.1 466.26 33.1 464.68"/><polygon class="bb" points="39.58 471.38 96.32 470.63 97.95 472.74 38.97 472.74 39.58 471.38"/><path class="bb" d="M247.43,529.06l.29,53.35.62,4,1.64,2.1s2.33.19,2.89-6.47,1.45-22.13,1.45-22.13l36.64-.16V527.37H247.15Z" transform="translate(-152.03 -115.81)"/><polygon class="bb" points="145.16 471.68 204.31 472.74 206.46 470.63 144.72 470.63 145.16 471.68"/><path class="bb" d="M297.64,589l60.85,3.27s4.67.09,6-1.64,1.66-22.23,1.66-22.23H408.7l-.35-32.36H360l-1.54,50.37-4.27,3.95Z" transform="translate(-152.03 -115.81)"/><polygon class="bb" points="90.63 289.48 223.44 296 224.81 264.7 91.62 265.11 90.63 289.48"/><polygon class="bc" points="91.6 260.36 91.62 265.11 222.6 264.71 267.75 265.11 271.2 260.06 203.43 259.53 91.6 260.36"/><polygon class="bb" points="222.6 264.71 223.81 309.81 225.95 312.53 227.01 315.15 229.64 315.15 231.54 312.82 228.96 299.81 264.8 299.91 265.27 268.74 267.75 265.11 222.6 264.71 222.6 264.71"/><polygon class="ac" points="195.22 515.72 196.64 558.71 255.66 558.71 255.66 515.72 195.22 515.72"/><polyline class="ac" points="126.33 517.16 107.59 517.16 107.99 566.05 130.28 566.05 196.64 558.71 195.22 515.72"/><path class="bb" d="M236.07,252.13s-7.07,2.32-9.33,2.27l-1.69.42.12-15.51,6.94-6,2.52.85Z" transform="translate(-152.03 -115.81)"/><path class="bb" d="M253.72,335.43s52.54-2.57,71,0Z" transform="translate(-152.03 -115.81)"/><polygon class="bb" points="264.87 174.22 221.22 175.1 265.29 175.03 264.87 174.22"/><polygon class="bb" points="265.29 185.07 230.18 185.32 265.29 186.12 265.29 185.07"/><polygon class="bb" points="264.63 159.77 243.25 159.77 265.29 158.6 264.63 159.77"/><polygon class="bb" points="210.81 159.19 228.13 159.77 210.83 160.12 210.81 159.19"/><polygon class="f" points="81.84 165.79 106.59 167.27 81.84 167.27 81.84 165.79"/><polygon class="f" points="133.37 179.64 105.65 180.65 133.59 180.65 133.37 179.64"/><polygon class="f" points="195.08 85.06 227.4 85.79 195.08 85.79 195.08 85.06"/><polygon class="f" points="195.08 96.37 230.5 97.2 195.08 97.6 195.08 96.37"/><polygon class="f" points="191.15 82.54 196.05 81.5 197.05 84.82 198.63 130.78 195.08 130.78 195.08 82.54 191.15 82.54"/><polygon class="bb" points="214.43 197.6 213.45 198.18 211.77 194.88 210.57 150.32 207.7 150.1 201.25 150.38 201.25 148.4 213.41 148.46 214.43 197.6"/><polygon class="ac" points="122.46 235.89 119.73 255.75 120.62 255.75 122.46 235.89"/><polygon class="ac" points="148.87 235.89 149.69 255.75 149.69 235.89 148.87 235.89"/><polygon class="ac" points="176.52 235.06 177.13 255.75 177.13 236.49 176.52 235.06"/><polygon class="ac" points="201.25 235.89 203.61 254.8 202.43 237.66 201.25 235.89"/><polygon class="ac" points="224.06 236.96 233.05 254.8 229.39 245.35 224.06 236.96"/><polygon class="ac" points="247.73 235.89 259.94 255.25 261.73 255.25 248.77 236.37 247.73 235.89"/><polygon class="bd" points="102.26 233.74 104.7 235.06 249.28 235.31 247.73 233.74 140.29 234.03 102.26 233.74"/><polygon class="f" points="91.74 255.75 96.93 234.03 97.6 234.03 92.77 255.75 91.74 255.75"/><path class="ac" d="M251.65,449.53s-8.62,19.75-9,25.12Z" transform="translate(-152.03 -115.81)"/><path class="ac" d="M275.16,443.64s-6.87,15.59-6.1,23Z" transform="translate(-152.03 -115.81)"/><path class="ac" d="M303.26,459.23s-4.11,26.16-3.35,28.41Z" transform="translate(-152.03 -115.81)"/><path class="ac" d="M341.65,447.39a49.14,49.14,0,0,0,0,19.29Z" transform="translate(-152.03 -115.81)"/><path class="ac" d="M401.3,452.76S403.93,466,405,473.44Z" transform="translate(-152.03 -115.81)"/><path class="ac" d="M382.39,470.93a41.58,41.58,0,0,0,1.92,16.71Z" transform="translate(-152.03 -115.81)"/><path class="ac" d="M279.73,482.52s-26.42-1.74-28.6-.78" transform="translate(-152.03 -115.81)"/><path class="ac" d="M396.69,483.05s-26.43-1.74-28.6-.78" transform="translate(-152.03 -115.81)"/><path class="ac" d="M314.21,470.49s-26.43-1.74-28.6-.79" transform="translate(-152.03 -115.81)"/><path class="ac" d="M356.47,462.09s-26.43-1.74-28.6-.78" transform="translate(-152.03 -115.81)"/><path class="ac" d="M309.32,446.8s-26.42-1.74-28.6-.78" transform="translate(-152.03 -115.81)"/><path class="ac" d="M258.48,457.57s-26.43-1.74-28.6-.78" transform="translate(-152.03 -115.81)"/><path class="ac" d="M398.61,444.86s-26.43-1.73-28.6-.78" transform="translate(-152.03 -115.81)"/><polygon class="bb" points="28.03 411.32 29.09 432.94 95.57 443.09 95.13 411.57 28.03 411.32"/><polygon class="bb" points="138.93 443.97 206.98 451.98 208 420.26 225.24 420.26 224.78 413.63 138.93 414.21 138.93 443.97"/><polyline class="bb" points="224.17 412.29 225.24 420.79 256.07 420.79 257.41 420.79 257.77 412.62 224.17 412.29"/><polygon class="f" points="20.05 343.42 20.17 345.72 55.01 348.5 55.01 342.94 20.05 343.42"/><polygon class="f" points="34.16 309.5 31.25 244.7 29.95 244.64 30.67 309.5 34.16 309.5"/><path d="M221.5,229.57l10.27,1.5,13.62-14.31-11.31-4.62,1-1.62,11.19,4.27,19.4-18.47-10.39-7.27,12.7,4.5a41.3,41.3,0,0,1,7.84-8.88c5.66-5.08,6.47-6.24,6.47-6.24l-11.78-7,.7-1.38s10.27,3.81,12,6.92l20-21.12v-1.27h-2.77s-4-2.54-7.27-2.19a17.18,17.18,0,0,1-5,0l2.07-1.47s5-.8,7.35,0S305,154,305,154A53.73,53.73,0,0,0,316,141.38c5.31-8.2,6-13.39,6-13.39v-5.77l1.61,7.39s3.24,9.81,2.77,15.35l.05,2.08s6.53-6.12,10-6.82a45.56,45.56,0,0,0,7.85-2.65l2.53,2.65a27.08,27.08,0,0,0-10.15,4.28c-4.62,3.34-6.58,4.84-6.58,4.84l11.77,11.89a30.91,30.91,0,0,1,9.47-3.92c6-1.5,10-2.77,10-2.77l1.73,2-18.93,6.7-7.85-4.62-12.47-10.85L275.4,189.17l-30.24,29.66L236.85,235Z" transform="translate(-152.03 -115.81)"/><polygon points="250.99 98.32 267.6 94.67 269.73 96.49 252.81 99.74 250.99 98.32"/><polygon points="268.51 152.03 284.38 143.65 304.67 141.9 293.28 130.91 300.27 127.07 298.69 124.98 288.75 128.29 279.67 117.47 288.75 115.55 287.35 113.45 273.03 115.55 267.8 112.41 268.51 152.03"/><polygon points="82.55 117.58 83.21 157.76 83.71 112.89 82.55 117.58"/><polygon points="127.14 140.88 129.18 143.28 214.21 143.28 215.17 142.08 127.14 140.88"/><path d="M281.6,314.55,295,318.21l68.46.78s3.44-3.66,6.21-3.66c0,0,.33-6.77-4.88-6.33l.22,2.45.44,2.54-2.11.67Z" transform="translate(-152.03 -115.81)"/><polygon points="79.19 233.74 81.1 202.12 81.1 233.74 79.19 233.74"/><polygon points="85.51 192.56 84.92 233.74 96.4 235.06 131.69 233.74 86.19 233.27 85.51 192.56"/><polygon points="263.81 109.61 265.54 214.64 263.81 215.57 265.54 216.38 265.54 223.87 263.81 224.8 266.11 225.72 266.11 233.45 204.28 234.49 267.15 235.64 265.65 115.09 273.03 115.55 263.81 109.61"/><polygon points="66.99 260.77 66.45 338.58 75.68 328.26 77.09 260.68 66.99 260.77"/><path d="M239.1,385.49s-.21,14.58,1.24,23.33,3.43,28.73,3.43,28.73.92-16,0-23.32,0-37.87,0-37.87H236Z" transform="translate(-152.03 -115.81)"/><polygon points="224.81 266.79 266.36 267.65 266.36 329.76 264.62 320.35 261.43 319.63 264.91 318.04 264.62 269.68 224.81 269.1 224.81 266.79"/><path d="M374.32,388.3l.78,38.78s2.83.49,2.73,2.93v1.17H267.71v3.16H382.39v-4h-2.95a5.12,5.12,0,0,0-1.33-3.1,5.72,5.72,0,0,0-1.87-1.45l.59-40.9v-2.32l-3.91.43Z" transform="translate(-152.03 -115.81)"/><polygon points="84.73 381.48 259.33 382.5 84.73 383.91 84.73 381.48"/><polygon points="70.15 374.56 76.85 378.95 84.73 382.69 84.73 381.48 76.99 377.85 70.15 374.56"/><path d="M171.41,523.5s2.66-8.18,8.5-10.41c4.72-1.8,32.75-27.93,42.1-38.44l1.42-7.29,7.62-12.55L223.79,464a190.5,190.5,0,0,1-16.67,19c-10.41,10.52-17.64,19.55-26,26.25a56,56,0,0,0-12.69,14.24Z" transform="translate(-152.03 -115.81)"/><polygon points="14.79 411.19 96.32 411.96 16.66 413.39 14.79 411.19"/><polygon points="29.09 412.29 29.09 421.41 33.83 421.92 29.86 496.39 27.04 496.39 26.14 412.29 29.09 412.29"/><polygon points="32.56 422.45 93.38 421.92 31.45 421.22 28.03 420.83 31.75 423.47 32.56 422.45"/><polygon points="96.32 411.96 96.32 467.39 94.5 464.88 94.5 412.29 96.32 411.96"/><polygon points="95.41 419.87 138.49 420.83 138.49 419.03 95.41 418.3 95.41 419.87"/><polygon points="138.93 414.21 224.78 414.21 224.17 412.29 129.5 411.57 138.93 414.21"/><polygon points="256.24 412.62 257.77 412.62 256.67 475.95 255.52 420.83 225.24 420.79 225.24 418.41 256.07 418.41 256.24 412.62"/><polygon points="137.26 588.81 137.26 591.26 199.69 590.04 199.69 588.23 137.26 588.81"/><polygon points="107.59 517.16 106.3 606.34 106.3 649.67 108.88 649.67 108.88 517.17 107.59 517.16"/><polygon points="48.19 536.59 49.1 602.43 54.74 602.43 51.47 601.15 51.47 536.59 48.19 536.59"/><polygon points="27.71 514.14 29.99 513.06 32.9 649.16 27.71 649.16 27.71 514.14"/><path d="M198.34,723.57l58.92-.55s.62,4-1.42,4.55h-5.76l-.42,33L247.85,729l-43.57-1.14-.74,37.9h-2.46l.56-39.92-2.39-.17Z" transform="translate(-152.03 -115.81)"/><polygon points="77.92 611.8 78.59 649.96 79.98 649.67 78.95 610.61 77.92 611.8"/><polygon points="91.94 611.18 93.01 643.67 93.54 610.61 91.94 611.18"/><polygon points="61.33 649.3 61.61 635.2 62.41 649.3 61.33 649.3"/><polyline points="135.29 517.34 256.8 517.02 259.36 514.94 137.85 513.98 135.36 513.02 16.35 512 17.98 516.18 124.63 517.34"/><polygon points="12.01 508.06 135.85 509.43 135.85 508.06 12.01 508.06"/><polygon points="135.85 510.53 260.55 512 198.2 509.92 135.85 510.53"/><polygon points="259.36 514.94 257.09 609.28 255.66 649.3 254.41 516.16 256.99 515.72 259.36 514.94"/><path d="M253.94,499.58s0,11.09-.94,14.4a55.48,55.48,0,0,0-1.35,8.57h.53s2.12-10.4,2.18-12.65S255.55,499,255.55,499Z" transform="translate(-152.03 -115.81)"/><polygon points="123.02 383.17 122.37 406.74 123.02 406.98 123.91 383.17 123.02 383.17"/><path d="M356.82,499a27.7,27.7,0,0,1,3.24,11.91,62.61,62.61,0,0,0,1.27,11.91h2.26s-1-19.46-5.52-24.29h-1.6Z" transform="translate(-152.03 -115.81)"/><path d="M187.16,509.14a49.57,49.57,0,0,1-.74,9.52c-.92,5-.56,4.84-.56,4.84h.62s1.37-10.63,1.31-12.18a18.91,18.91,0,0,1,0-2.18Z" transform="translate(-152.03 -115.81)"/><polygon points="194.53 529.31 196.66 526.54 197.81 588.23 195.82 588.27 195.56 581.13 195.11 580.36 194.53 529.31"/><path d="M303,196.74v49.85h2.58s-1.87-39.66,0-41.76,15.59-1.25,15.59-1.25-.39-3.74,1.95-3.66,2.18,1.79,2.26,2.41a13.66,13.66,0,0,1,0,1.87l17.2-1-.06-3.4.69-1.45,4.91-1Z" transform="translate(-152.03 -115.81)"/><polygon points="129.87 148.06 134.03 149.24 198.63 149.58 198.41 150.5 210.57 150.32 213.64 148.46 129.87 148.06"/><polygon points="138.93 420.26 208 420.26 207.92 422.77 138.93 421.52 138.93 420.26"/><polygon points="20.05 343.42 55.01 342.94 55.01 344.78 20.19 344.11 20.05 343.42"/><polygon points="25.63 358.71 25.63 359.81 46.83 359.26 47.93 358.07 25.63 358.71"/><polygon points="29.87 237.34 29.87 309.5 30.67 309.5 31.47 309.5 30.33 237.3 29.87 237.34"/></svg>