<svg xmlns="http://www.w3.org/2000/svg" xmlns:xlink="http://www.w3.org/1999/xlink" viewBox="0 0 370.84197 517.77077"><defs><style>.b7ad7d6c-d8cb-479c-ba73-be6224e6e25e{fill:url(#b97b79ff-3fe0-42ac-b1da-43019c2e800b);}.a4249a44-7ad3-4e7c-92a7-eecb5c43efbd{fill:#609991;}.ac2b04cf-f0bc-415e-85ab-7891bcff76cb{fill:url(#b92703ae-d7eb-4af8-a57f-41bdf3f762a9);}.aa1620ee-cede-4b73-9859-18d5f94fa2ff{fill:#a7cac5;}.bea85bfc-a506-44fb-9729-32cb5da30824{fill:#134f7f;}.a7a8617a-a3f2-4469-a1c7-87b9b304b671{fill:#407e79;}.a242a19c-195d-450b-9293-eaa4bbdfb596{fill:#5f8a85;}.b5a1126f-0ced-4b61-b607-e03abcdd50df{fill:url(#e73c5a1d-1db1-4747-9f2b-5d81bab63fa5);}.b92ac903-a719-4b58-ae90-28255c86185e{fill:#84010d;}.a88b93bf-a123-4b32-868d-0b5c54690a46{fill:#3e4d3e;}.ecbf728f-b00a-4c8a-96e3-d5186d1ef17c{fill:url(#b9e96f54-271f-4d51-b5ca-4e41309ef845);}.bb89d11a-3a4c-4272-8b51-5bd6c02f1172{fill:#7e6864;}.aa589d7e-de78-4443-825b-f04472a7d1c8{fill:#6a1b06;}.b4f1c5d0-eba8-4389-af05-6a09c0bf631e{fill:#a97e7a;}.fd570c9e-05da-4d7e-a717-6af1c9490242{fill:#3f6a65;}.aecc95df-1f02-4cd8-a14b-520f4f49e931{fill:#b6dad6;}.b65e9efd-af5a-445e-bd97-25c2b13b4c2e{fill:#fff;}.fb4e14a7-0eb6-47f8-8613-ae3231308412{opacity:0.3;}.b9d69000-bbc9-439a-a177-929d46f34abe{fill:none;stroke:#000;stroke-miterlimit:10;}.b2c4d3e5-9606-4722-82bb-eb1a481c9f98,.b9d69000-bbc9-439a-a177-929d46f34abe{opacity:0.2;}.aedf91a5-8d5a-4a53-a340-3a2eea3f377a{opacity:0.5;}.aa522f32-bcce-4f48-a3d4-8a3ef4245a4c{fill:url(#a4f11f89-f273-457f-84ce-de72fe56914a);}</style><linearGradient id="b97b79ff-3fe0-42ac-b1da-43019c2e800b" x1="187.27674" y1="236.56268" x2="187.27674" y2="39.83323" gradientUnits="userSpaceOnUse"><stop offset="0" stop-color="#3e797a"/><stop offset="0.08301" stop-color="#417b7c"/><stop offset="0.14653" stop-color="#4b8181"/><stop offset="0.20359" stop-color="#5b8c8a"/><stop offset="0.25685" stop-color="#729a96"/><stop offset="0.30746" stop-color="#90ada7"/><stop offset="0.35548" stop-color="#b4c4ba"/><stop offset="0.36821" stop-color="#bfcbc0"/><stop offset="0.41574" stop-color="#b9c7bc"/><stop offset="0.4823" stop-color="#a6bbb3"/><stop offset="0.5601" stop-color="#88a8a2"/><stop offset="0.64569" stop-color="#5f8e8c"/><stop offset="0.71723" stop-color="#377576"/></linearGradient><linearGradient id="b92703ae-d7eb-4af8-a57f-41bdf3f762a9" x1="61.20793" y1="372.72408" x2="187.65063" y2="372.72408" gradientUnits="userSpaceOnUse"><stop offset="0" stop-color="#377576"/><stop offset="1" stop-color="#ccd3c7"/></linearGradient><linearGradient id="e73c5a1d-1db1-4747-9f2b-5d81bab63fa5" x1="309.10028" y1="326.31552" x2="309.10028" y2="483.56985" gradientUnits="userSpaceOnUse"><stop offset="0" stop-color="#3e797a"/><stop offset="0.14967" stop-color="#417b7c"/><stop offset="0.2642" stop-color="#4b8181"/><stop offset="0.3671" stop-color="#5b8c8a"/><stop offset="0.46313" stop-color="#729a96"/><stop offset="0.55438" stop-color="#90ada7"/><stop offset="0.64097" stop-color="#b4c4ba"/><stop offset="0.66392" stop-color="#bfcbc0"/><stop offset="0.70095" stop-color="#b9c7bc"/><stop offset="0.75281" stop-color="#a6bbb3"/><stop offset="0.81342" stop-color="#88a8a2"/><stop offset="0.8801" stop-color="#5f8e8c"/><stop offset="0.93584" stop-color="#377576"/></linearGradient><linearGradient id="b9e96f54-271f-4d51-b5ca-4e41309ef845" x1="178.49136" y1="226.51516" x2="187.30616" y2="327.26878" gradientUnits="userSpaceOnUse"><stop offset="0" stop-color="#3e797a"/><stop offset="0.17373" stop-color="#417b7c"/><stop offset="0.30667" stop-color="#4b8181"/><stop offset="0.42611" stop-color="#5b8c8a"/><stop offset="0.53758" stop-color="#729a96"/><stop offset="0.6435" stop-color="#90ada7"/><stop offset="0.74401" stop-color="#b4c4ba"/><stop offset="0.77065" stop-color="#bfcbc0"/></linearGradient><linearGradient id="a4f11f89-f273-457f-84ce-de72fe56914a" x1="216.64386" y1="405.9364" x2="221.63714" y2="405.9364" gradientUnits="userSpaceOnUse"><stop offset="0" stop-opacity="0.6"/><stop offset="0.89829" stop-opacity="0.21811"/><stop offset="1" stop-opacity="0.1"/></linearGradient></defs><g id="fb8cd48f-bc2b-4066-a0c1-d86b5142541e" data-name="Слой 2"><g id="b240ffb7-5512-4e11-80de-34f1c4180dc2" data-name="Слой 2"><polygon class="b7ad7d6c-d8cb-479c-ba73-be6224e6e25e" points="307.607 236.563 66.946 233.577 187.778 39.833 300.966 216.483 307.607 236.563"/><polygon class="a4249a44-7ad3-4e7c-92a7-eecb5c43efbd" points="216.644 495.623 216.644 311.516 48.966 311.516 48.966 493.69 216.644 495.623"/><polygon class="ac2b04cf-f0bc-415e-85ab-7891bcff76cb" points="61.208 330.845 61.852 413.798 187.651 414.603 187.651 331.972 61.208 330.845"/><rect class="aa1620ee-cede-4b73-9859-18d5f94fa2ff" x="68.93946" y="339.70401" width="24.64425" height="68.61731"/><polygon class="aa1620ee-cede-4b73-9859-18d5f94fa2ff" points="155.678 339.704 155.678 408.321 181.691 408.487 181.691 339.704 155.678 339.704"/><rect class="bea85bfc-a506-44fb-9729-32cb5da30824" x="93.5837" y="339.70401" width="62.09383" height="36.96637"/><rect class="a7a8617a-a3f2-4469-a1c7-87b9b304b671" x="93.5837" y="376.67038" width="62.09383" height="31.65094"/><polygon class="a242a19c-195d-450b-9293-eaa4bbdfb596" points="76.993 425.234 78.282 492.382 176.738 492.382 176.738 425.556 76.993 425.234"/><polygon class="b5a1126f-0ced-4b61-b607-e03abcdd50df" points="286.55 313.288 286.55 495.623 329.395 495.623 331.65 312.18 286.55 313.288"/><rect class="b92ac903-a719-4b58-ae90-28255c86185e" x="216.64386" y="313.28796" width="69.90636" height="182.3352"/><rect class="a88b93bf-a123-4b32-868d-0b5c54690a46" x="48.96634" y="493.69028" width="280.45149" height="24.08049"/><path class="ecbf728f-b00a-4c8a-96e3-d5186d1ef17c" d="M0,304.3642s27.22142-65.81435,37.44959-65.4922,127.81182,2.57718,157.1272,1.93288,135.30174-11.91944,142.389.96644c0,0,29.31538,54.8206,30.92612,57.69212s7.08723,11.93421-2.89933,12.23507-148.34869-.18236-148.34869-.18236l-54.92684-.95776-57.98569-.94s-15.74318.29607-35.03348-.51366C38.91083,307.85435.7821,305.20479,0,304.3642Z"/><polygon class="bb89d11a-3a4c-4272-8b51-5bd6c02f1172" points="31.248 242.818 42.362 252.483 186.362 25.127 328.187 254.416 340.228 245.718 185.738 0 31.248 242.818"/><polygon class="aa589d7e-de78-4443-825b-f04472a7d1c8" points="41.557 260.456 42.362 252.483 186.362 25.127 328.187 254.416 321.181 258.847 187.778 39.833 171.382 73.45 97.127 190.228 51.705 259.65 41.557 260.456"/><path class="b4f1c5d0-eba8-4389-af05-6a09c0bf631e" d="M69.42268,234.12033a9.62591,9.62591,0,0,1,7.36911-3.50335c4.953-.1208,132.76483,1.69128,132.76483,1.69128l96.563,1.81207,7.49051,12.29757-23.1141-.45866L265.135,245.2015l-60.65214-.45032L133.4494,244.268l-62.21464-.84563-4.28859-1.208Z"/><rect class="fd570c9e-05da-4d7e-a717-6af1c9490242" x="107.44392" y="176.8587" width="49.60274" height="6.3624"/><polygon class="fd570c9e-05da-4d7e-a717-6af1c9490242" points="271.241 176.859 216.684 176.859 216.513 184.285 275.068 183.141 271.241 176.859"/><polygon class="aecc95df-1f02-4cd8-a14b-520f4f49e931" points="246.161 140.859 216.513 140.859 216.513 184.285 206.013 183.745 205.449 115.671 216.513 115.671 216.684 135.423 245.79 135.423 246.161 140.859"/><polygon class="aecc95df-1f02-4cd8-a14b-520f4f49e931" points="137.194 140.255 169.208 140.255 169.208 134.214 138.04 134.214 137.194 140.255"/><polygon class="aa589d7e-de78-4443-825b-f04472a7d1c8" points="159.141 104.327 159.141 114.362 216.513 115.671 216.513 103.007 159.141 104.327"/><polygon class="bea85bfc-a506-44fb-9729-32cb5da30824" points="169.208 180.572 206.013 180.572 205.449 115.671 169.208 114.592 169.208 180.572"/><rect class="b65e9efd-af5a-445e-bd97-25c2b13b4c2e" x="230.9794" y="399.30121" width="1.61074" height="17.86909"/><polygon class="fb4e14a7-0eb6-47f8-8613-ae3231308412" points="29.799 305.879 42.966 271.449 32.094 305.879 29.799 305.879"/><line class="b9d69000-bbc9-439a-a177-929d46f34abe" x1="142.71112" y1="287.91888" x2="143.91917" y2="256.8317"/><line class="b9d69000-bbc9-439a-a177-929d46f34abe" x1="166.30839" y1="289.9323" x2="166.91242" y2="262.38873"/><line class="b9d69000-bbc9-439a-a177-929d46f34abe" x1="190.63049" y1="287.01732" x2="190.39072" y2="272.77797"/><line class="b9d69000-bbc9-439a-a177-929d46f34abe" x1="215.59688" y1="300.24101" x2="212.63716" y2="257.25452"/><line class="b9d69000-bbc9-439a-a177-929d46f34abe" x1="239.43576" y1="299.02386" x2="234.8049" y2="263.47598"/><line class="b9d69000-bbc9-439a-a177-929d46f34abe" x1="257.87867" y1="278.17394" x2="255.08435" y2="258.84664"/><line class="b9d69000-bbc9-439a-a177-929d46f34abe" x1="278.33501" y1="276.32159" x2="274.67059" y2="258.88538"/><line class="b9d69000-bbc9-439a-a177-929d46f34abe" x1="301.28798" y1="276.32159" x2="295.50947" y2="252.54312"/><line class="b9d69000-bbc9-439a-a177-929d46f34abe" x1="319.00607" y1="264.43235" x2="331.65034" y2="305.23428"/><line class="b9d69000-bbc9-439a-a177-929d46f34abe" x1="345.01944" y1="309.74434" x2="335.43557" y2="281.87863"/><line class="b9d69000-bbc9-439a-a177-929d46f34abe" x1="360.40196" y1="309.74434" x2="353.07311" y2="294.84504"/><polyline class="aedf91a5-8d5a-4a53-a340-3a2eea3f377a" points="216.644 318.166 216.644 336.483 286.55 336.483 286.55 318.166 216.644 318.166"/><rect class="aa522f32-bcce-4f48-a3d4-8a3ef4245a4c" x="216.64386" y="318.18252" width="4.99328" height="175.50776"/><polygon class="b2c4d3e5-9606-4722-82bb-eb1a481c9f98" points="321.181 258.847 271.248 235.625 169.208 73.344 187.778 39.833 321.181 258.847"/><polygon class="b2c4d3e5-9606-4722-82bb-eb1a481c9f98" points="206.013 180.572 201.342 180.572 201.342 115.671 205.449 115.671 206.013 180.572"/><polygon class="b2c4d3e5-9606-4722-82bb-eb1a481c9f98" points="169.208 114.592 205.449 115.671 205.449 118.631 169.208 118.631 169.208 114.592"/><polygon class="b2c4d3e5-9606-4722-82bb-eb1a481c9f98" points="159.141 114.362 158.981 118.044 169.208 118.631 169.208 114.592 159.141 114.362"/><polygon class="b2c4d3e5-9606-4722-82bb-eb1a481c9f98" points="286.55 318.166 331.051 360.968 331.65 312.322 286.55 312.015 286.55 318.166"/><polygon class="b2c4d3e5-9606-4722-82bb-eb1a481c9f98" points="181.691 408.487 175.49 408.321 175.49 339.704 181.691 339.704 181.691 408.487"/><rect class="b2c4d3e5-9606-4722-82bb-eb1a481c9f98" x="282.44261" y="336.48254" width="4.1076" height="157.48962"/><polygon points="60.08 493.69 61.852 493.69 61.208 330.845 59.275 330.845 60.08 493.69"/><polygon points="68.939 408.321 70.55 408.321 71.839 347.113 181.691 342.603 181.691 339.704 68.939 339.704 68.939 408.321"/><polygon points="16.765 305.77 20.134 310.066 22.872 307.489 22.872 309.261 40.429 309.422 40.429 309.422 45.745 317.959 48.322 330.845 187.651 331.972 187.651 414.603 63.946 414.603 72.483 420.563 191.761 420.563 191.761 317.798 331.557 319.731 331.65 312.322 216.644 311.516 140.456 310.066 73.127 308.778 16.765 305.77"/><polygon points="77.517 435.382 75.825 423.543 178.872 423.543 177.906 491.918 175.852 425.596 78 426.442 77.517 435.382"/><polygon points="205.51 492.009 206.325 491.767 206.657 324.966 205.721 325.132 205.51 492.009"/><polygon points="317.717 322.389 316.751 493.972 315.704 493.972 316.348 322.389 317.717 322.389"/><polygon points="297.744 324.966 297.533 493.791 298.137 493.791 299.315 324.966 297.744 324.966"/><polygon points="256.791 392.013 257.275 442.509 228.583 442.751 228.583 443.415 258.12 443.415 257.697 392.013 277.932 392.013 277.932 390.925 247.369 390.925 256.791 392.013"/><polygon points="257.516 335.717 258.362 377.999 259.208 335.113 257.516 335.717"/><polygon points="227.436 489.382 227.436 455.435 280.469 455.435 279.986 456.492 228.432 456.341 228.221 489.382 227.436 489.382"/><polygon points="78.604 491.073 177.785 493.006 78.604 493.69 78.604 491.073"/><polygon points="60.362 307.449 73.651 246.201 62.419 308.346 60.241 308.346 60.362 307.449"/><path d="M36.38248,256.10687s3.40267,3.86576,5.17448,5.79864,10.79193,1.93288,13.208,0,10.75166-15.70466,14.81876-15.70466,27.54357-1.047,27.54357-1.047l-2.255,21.58385,4.83221-21.58385h19.97311l-.80537,16.91272,3.54362-16.91272h21.10063l.56376,9.02011s1.26845-8.57716,1.99328-8.57716,18.7248-.24161,19.26842.302l.54362.54363,1.02685,15.94627s.36241-16.24829,1.32885-16.36909,42.58381.302,42.82542.78523,1.57047,10.44965,1.57047,10.44965l.72483-11.05367,18,.0604L234.8049,263.476s-1.57047-16.97312-.96645-17.21473,18.18118-.12081,18.18118-.12081l3.08053,13.28857-.36242-13.349,16.12749.12081,3.80536,12.68453L273.825,246.08l19.32882.36242,2.3557,6.10066v-5.61744l4.22818-1.02685-36.96637-.745-31.77175-.40269H196.02645l-30.5637-.48322-44.21467-.84563-37.51-.906L69.30187,241.429l4.39893-10.26416,18.31377-.42392L75.04012,228.5633l39.48314-55.24821,15.46306-21.74493-.24161,13.93286,4.51005-14.33554,1.93289-9.18119,20.93955,1.047.08054,10.55031,2.17955-13.32883h-18.2126l-.0743-6.2416,15.62413-24.08049.32214,23.75835,1.28859-.72483.80537-18.604V104.32731l4.639-.1068.35426-7.17373,21.10063-25.85229L199.211,58.60274s-6.80874-10.5223-11.4326-18.76951l-4.69417,9.62421L162.36209,85.12735l-28.18786,43.812-22.14761,35.83885L96.6441,186.52311l-4.91274,11.91944L72.80522,225.5029,55.973,248.69749l-6.3624,9.34226s-4.67113,2.4161-6.20133.80537-1.047-6.36241-1.047-6.36241L31.24826,242.8183l3.42692,7.90827Z"/><polygon points="244.59 144 245.315 176.859 250.491 142.792 245.764 135.031 246.161 140.859 216.513 140.859 216.684 175.409 217.771 143.516 244.59 144"/><polygon points="221.387 95.01 216.306 98.864 216.684 135.423 219.342 101.718 223.622 98.679 221.387 95.01"/><polygon points="275.068 183.141 276.603 231.463 278.295 188.214 275.068 183.141"/><polyline points="219.342 207.302 220.308 195.221 220.55 185.557 245.919 185.436 246.402 194.255 247.852 185.677 275.068 186.221 275.068 183.141 273.1 183.141 216.684 183.986 215.718 185.677 218.979 186.282 218.738 194.255"/><polygon points="100.671 229.53 101.798 213.1 102.443 229.53 100.671 229.53"/><polygon points="105.988 185.259 129.423 185.718 129.906 194.496 131.275 186.12 154.953 185.637 156 186.684 157.047 183.221 107.444 183.221 105.988 185.259"/><polygon points="129.6 229.53 130.055 208.228 130.875 230.159 129.6 230.617 129.6 229.53"/><polygon points="157.047 203.033 157.047 229.932 157.852 221.637 158.174 206.335 157.047 203.033"/><polygon points="198.875 57.56 193.976 63.319 196.832 93.745 196.832 103.46 199.649 103.395 199.731 78.886 207.353 71.97 198.875 57.56"/><polygon points="88.631 308.346 93.584 275.073 90.202 309.105 88.308 309.068 88.631 308.346"/><polygon points="118.067 280.107 115.229 309.584 117.041 309.618 118.067 280.107"/><polygon points="141.262 310.082 142.711 288.845 142.711 310.082 141.262 310.082"/><polygon points="166.308 289.932 164.695 310.528 166.308 310.558 166.308 289.932"/><polygon points="189.666 311.003 190.63 287.017 191.115 311.03 189.666 311.003"/><polygon points="215.111 311.487 215.597 300.241 216.644 311.516 215.111 311.487"/><polygon points="240.402 311.686 239.436 299.024 242.174 311.699 240.402 311.686"/><polygon points="261.744 311.699 257.879 278.174 263.195 311.849 261.744 311.699"/><polygon points="284.778 311.849 278.335 276.322 286.55 312.015 284.778 311.849"/><polygon points="309.585 312.18 300.966 276.322 310.711 312.18 309.585 312.18"/><polygon points="332.134 311.194 331.65 305.234 334.228 311.194 332.134 311.194"/><polygon points="344.415 311.436 345.019 309.986 346.268 311.436 344.415 311.436"/><polygon points="360.04 310.711 360.402 309.744 361.167 310.711 360.04 310.711"/><polygon points="249.06 232.791 247.248 227.114 246.523 232.791 249.06 232.791"/></g></g></svg>